<svg width="577" height="455" viewBox="0 0 577 455" fill="none" xmlns="http://www.w3.org/2000/svg">
<path d="M0.433769 58.0325C-4.09847 38.4538 27.4011 14.4392 70.7849 4.39714C101.34 -2.67554 129.641 -0.923159 145.292 7.55276C147.722 8.87767 149.833 10.7187 151.475 12.9465C153.118 15.1742 154.252 17.7347 154.799 20.4479L171.758 103.272L303.462 208.581L205.123 343.736L127.722 251.106L148.451 316.087C150.277 322.056 150.763 328.355 149.874 334.533C148.984 340.712 146.742 346.618 143.307 351.83L140.042 356.788C139.516 357.587 138.795 358.24 137.947 358.685C137.099 359.13 136.152 359.352 135.195 359.331C134.238 359.31 133.301 359.046 132.474 358.564C131.647 358.081 130.956 357.397 130.465 356.575L59.5091 237.603C48.4484 219.068 44.1458 197.275 47.3323 175.927L52.4431 141.678L0.433769 58.0325Z" fill="#FFDEDF"/>
<path d="M118.724 334.98C123.539 332.985 129.059 333.613 132.93 337.111C138.433 342.099 138.516 350.967 133.113 356.95" stroke="#251D18" stroke-width="3.4183" stroke-miterlimit="10" stroke-linecap="round"/>
<path d="M530.602 141.678L538.054 156.877C549.252 179.715 551.634 205.88 544.744 230.364L495.484 405.426C495.223 406.354 494.76 407.214 494.13 407.943C493.499 408.673 492.715 409.255 491.834 409.648C490.953 410.041 489.997 410.235 489.032 410.217C488.068 410.198 487.119 409.968 486.254 409.542L481.073 406.992C475.716 404.355 471.196 400.285 468.015 395.233C464.834 390.181 463.116 384.345 463.054 378.375L462.642 338.719L295.029 452.44C292.562 454.116 289.607 454.92 286.632 454.725C283.656 454.531 280.831 453.348 278.604 451.366C276.377 449.383 274.876 446.714 274.338 443.781C273.8 440.848 274.257 437.82 275.636 435.176L286.031 415.225L252.267 442.721C249.375 445.072 245.727 446.289 242.003 446.144C238.28 446 234.736 444.505 232.035 441.938C229.335 439.37 227.661 435.907 227.328 432.196C226.996 428.484 228.026 424.779 230.227 421.772L249.46 395.543L229.911 414.031C227.399 416.428 224.087 417.809 220.617 417.907C217.146 418.006 213.761 416.816 211.116 414.566C208.472 412.316 206.754 409.167 206.295 405.725C205.835 402.283 206.668 398.793 208.63 395.929L227.693 369.853L209.265 380.47C206.654 381.841 203.656 382.288 200.758 381.739C197.861 381.19 195.234 379.678 193.305 377.447C191.376 375.216 190.259 372.398 190.134 369.451C190.01 366.505 190.885 363.603 192.619 361.217L346.15 149.908C354.812 137.978 366.044 128.146 379.015 121.139C391.987 114.132 406.367 110.128 421.093 109.424L430.168 34.8162C438.032 18.5227 477.977 11.2073 513.367 19.0714C553.978 28.1093 581.57 57.9362 575.881 76.1949L575.821 76.3811L530.602 141.678Z" fill="#FFDEDF"/>
<path d="M462.639 338.709L467.55 271.63L455.616 251.103" stroke="#251D18" stroke-width="3.59786" stroke-miterlimit="10" stroke-linecap="round"/>
<path d="M530.602 141.677C530.602 141.677 524.018 133.9 512.936 127.496" stroke="#251D18" stroke-width="3.59786" stroke-miterlimit="10" stroke-linecap="round"/>
<path d="M493.509 407.431C487.95 404.851 484.149 399.607 484.149 393.555C484.149 384.949 491.847 377.973 501.343 377.973" stroke="#251D18" stroke-width="3.59786" stroke-miterlimit="10" stroke-linecap="round"/>
<path d="M455.614 251.103C448.558 272.999 437.326 292.066 423.506 307.249C421.416 309.55 419.267 311.759 417.059 313.876L399.711 327.888L291.616 415.218L183.521 327.888L166.153 313.856C163.952 311.741 161.806 309.535 159.715 307.239C145.899 292.056 134.663 272.989 127.607 251.093C105.807 183.425 132.209 114.368 186.576 96.8506C223.024 85.1094 262.783 103.458 291.603 134.612C320.425 103.458 360.185 85.1094 396.632 96.8506C451.012 114.378 477.414 183.435 455.614 251.103Z" fill="#E2E3DE"/>
<mask id="mask0_501_8140" style="mask-type:alpha" maskUnits="userSpaceOnUse" x="119" y="93" width="345" height="323">
<path d="M455.614 251.103C448.558 272.999 437.326 292.066 423.506 307.249C421.416 309.55 419.267 311.759 417.059 313.876L399.711 327.888L291.616 415.218L183.521 327.888L166.153 313.856C163.952 311.741 161.806 309.535 159.715 307.239C145.899 292.056 134.663 272.989 127.607 251.093C105.807 183.425 132.209 114.368 186.576 96.8506C223.024 85.1094 262.783 103.458 291.603 134.612C320.425 103.458 360.185 85.1094 396.632 96.8506C451.012 114.378 477.414 183.435 455.614 251.103Z" fill="#EDE0C4"/>
</mask>
<g mask="url(#mask0_501_8140)">
<path d="M193.24 416.215V94.5228" stroke="#FFA33C" stroke-width="1.43981" stroke-miterlimit="10"/>
<path d="M178.554 416.216V99.624" stroke="#FFA33C" stroke-width="1.43981" stroke-miterlimit="10"/>
<path d="M208.374 416.215V94.5228" stroke="#FFA33C" stroke-width="1.43981" stroke-miterlimit="10"/>
<path d="M223.509 416.215V94.5228" stroke="#FFA33C" stroke-width="1.43981" stroke-miterlimit="10"/>
<path d="M238.642 416.216V99.624" stroke="#FFA33C" stroke-width="1.43981" stroke-miterlimit="10"/>
<path d="M253.776 416.215V104.724" stroke="#FFA33C" stroke-width="1.43981" stroke-miterlimit="10"/>
<path d="M268.908 416.215V114.93" stroke="#FFA33C" stroke-width="1.43981" stroke-miterlimit="10"/>
<path d="M284.041 416.215V114.93" stroke="#FFA33C" stroke-width="1.43981" stroke-miterlimit="10"/>
<path d="M133.364 416.215V114.93" stroke="#FFA33C" stroke-width="1.43981" stroke-miterlimit="10"/>
<path d="M148.496 416.215V114.93" stroke="#FFA33C" stroke-width="1.43981" stroke-miterlimit="10"/>
<path d="M163.63 416.215V104.724" stroke="#FFA33C" stroke-width="1.43981" stroke-miterlimit="10"/>
<path d="M298.745 246.261H117.991" stroke="#FFA33C" stroke-width="1.43981" stroke-miterlimit="10"/>
<path d="M298.745 231.128H117.991" stroke="#FFA33C" stroke-width="1.43981" stroke-miterlimit="10"/>
<path d="M298.745 215.992H117.991" stroke="#FFA33C" stroke-width="1.43981" stroke-miterlimit="10"/>
<path d="M298.745 200.859H117.991" stroke="#FFA33C" stroke-width="1.43981" stroke-miterlimit="10"/>
<path d="M298.745 185.726H117.991" stroke="#FFA33C" stroke-width="1.43981" stroke-miterlimit="10"/>
<path d="M298.745 170.593H117.991" stroke="#FFA33C" stroke-width="1.43981" stroke-miterlimit="10"/>
<path d="M298.745 155.46H117.991" stroke="#FFA33C" stroke-width="1.43981" stroke-miterlimit="10"/>
<path d="M298.745 140.327H118.842" stroke="#FFA33C" stroke-width="1.43981" stroke-miterlimit="10"/>
<path d="M298.745 125.191H117.991" stroke="#FFA33C" stroke-width="1.43981" stroke-miterlimit="10"/>
<path d="M298.745 367.418H117.991" stroke="#FFA33C" stroke-width="1.43981" stroke-miterlimit="10"/>
<path d="M298.745 382.711H117.991" stroke="#FFA33C" stroke-width="1.43981" stroke-miterlimit="10"/>
<path d="M298.745 352.284H117.991" stroke="#FFA33C" stroke-width="1.43981" stroke-miterlimit="10"/>
<path d="M298.745 337.152H117.991" stroke="#FFA33C" stroke-width="1.43981" stroke-miterlimit="10"/>
<path d="M298.745 322.019H117.991" stroke="#FFA33C" stroke-width="1.43981" stroke-miterlimit="10"/>
<path d="M298.745 306.886H117.991" stroke="#FFA33C" stroke-width="1.43981" stroke-miterlimit="10"/>
<path d="M298.745 291.75H117.991" stroke="#FFA33C" stroke-width="1.43981" stroke-miterlimit="10"/>
<path d="M298.745 276.617H117.991" stroke="#FFA33C" stroke-width="1.43981" stroke-miterlimit="10"/>
<path d="M298.745 261.484H118.842" stroke="#FFA33C" stroke-width="1.43981" stroke-miterlimit="10"/>
<path d="M359.739 416.215V94.5228" stroke="#FFA33C" stroke-width="1.43981" stroke-miterlimit="10"/>
<path d="M345.053 416.216V99.624" stroke="#FFA33C" stroke-width="1.43981" stroke-miterlimit="10"/>
<path d="M374.873 416.215V94.5228" stroke="#FFA33C" stroke-width="1.43981" stroke-miterlimit="10"/>
<path d="M390.005 416.215V94.5228" stroke="#FFA33C" stroke-width="1.43981" stroke-miterlimit="10"/>
<path d="M405.142 416.216V99.624" stroke="#FFA33C" stroke-width="1.43981" stroke-miterlimit="10"/>
<path d="M420.274 416.215V105.746" stroke="#FFA33C" stroke-width="1.43981" stroke-miterlimit="10"/>
<path d="M435.407 416.215V114.93" stroke="#FFA33C" stroke-width="1.43981" stroke-miterlimit="10"/>
<path d="M450.541 416.215V114.93" stroke="#FFA33C" stroke-width="1.43981" stroke-miterlimit="10"/>
<path d="M299.863 416.215V114.93" stroke="#FFA33C" stroke-width="1.43981" stroke-miterlimit="10"/>
<path d="M314.995 416.215V114.93" stroke="#FFA33C" stroke-width="1.43981" stroke-miterlimit="10"/>
<path d="M330.129 416.215V105.746" stroke="#FFA33C" stroke-width="1.43981" stroke-miterlimit="10"/>
<path d="M465.244 246.261H284.49" stroke="#FFA33C" stroke-width="1.43981" stroke-miterlimit="10"/>
<path d="M465.244 231.128H284.49" stroke="#FFA33C" stroke-width="1.43981" stroke-miterlimit="10"/>
<path d="M465.244 215.992H284.49" stroke="#FFA33C" stroke-width="1.43981" stroke-miterlimit="10"/>
<path d="M465.244 200.859H284.49" stroke="#FFA33C" stroke-width="1.43981" stroke-miterlimit="10"/>
<path d="M465.244 185.726H284.49" stroke="#FFA33C" stroke-width="1.43981" stroke-miterlimit="10"/>
<path d="M465.244 170.593H284.49" stroke="#FFA33C" stroke-width="1.43981" stroke-miterlimit="10"/>
<path d="M465.244 155.46H284.49" stroke="#FFA33C" stroke-width="1.43981" stroke-miterlimit="10"/>
<path d="M465.244 140.327H285.341" stroke="#FFA33C" stroke-width="1.43981" stroke-miterlimit="10"/>
<path d="M465.244 125.191H284.49" stroke="#FFA33C" stroke-width="1.43981" stroke-miterlimit="10"/>
<path d="M420.354 109.38H163.081" stroke="#FFA33C" stroke-width="1.43981" stroke-miterlimit="10"/>
<path d="M465.244 367.418H284.49" stroke="#FFA33C" stroke-width="1.43981" stroke-miterlimit="10"/>
<path d="M465.244 382.711H284.49" stroke="#FFA33C" stroke-width="1.43981" stroke-miterlimit="10"/>
<path d="M424.435 397.504H243.681" stroke="#FFA33C" stroke-width="1.43981" stroke-miterlimit="10"/>
<path d="M465.244 352.284H284.49" stroke="#FFA33C" stroke-width="1.43981" stroke-miterlimit="10"/>
<path d="M465.244 337.152H284.49" stroke="#FFA33C" stroke-width="1.43981" stroke-miterlimit="10"/>
<path d="M465.244 322.019H284.49" stroke="#FFA33C" stroke-width="1.43981" stroke-miterlimit="10"/>
<path d="M465.244 306.886H284.49" stroke="#FFA33C" stroke-width="1.43981" stroke-miterlimit="10"/>
<path d="M465.244 291.75H284.49" stroke="#FFA33C" stroke-width="1.43981" stroke-miterlimit="10"/>
<path d="M465.244 276.617H284.49" stroke="#FFA33C" stroke-width="1.43981" stroke-miterlimit="10"/>
<path d="M465.244 261.484H285.341" stroke="#FFA33C" stroke-width="1.43981" stroke-miterlimit="10"/>
</g>
<path d="M455.616 251.107C448.56 273 437.327 292.066 423.508 307.249C421.417 309.55 419.268 311.759 417.06 313.876L404.019 324.41H310.288C278.004 324.41 261.478 285.702 283.81 262.386L345.482 197.98L462.735 197.471C464.208 215.564 461.438 233.021 455.616 251.107Z" fill="#251D18"/>
<path d="M370.311 287.511H412.913C421.444 287.512 429.786 284.995 436.892 280.275C443.999 275.555 449.554 268.843 452.862 260.979L455.063 255.749" stroke="#FFDEDF" stroke-width="1.79893" stroke-miterlimit="10" stroke-linecap="round"/>
<path d="M443.425 284.07L425.595 317.405L436.685 322.642C443.116 325.883 448.203 331.281 451.06 337.891C451.166 338.141 451.36 338.342 451.606 338.457C451.851 338.572 452.131 338.592 452.39 338.514C452.65 338.436 452.871 338.264 453.012 338.033C453.153 337.801 453.204 337.526 453.155 337.26L443.425 284.07Z" fill="#B15EFF"/>
<path d="M443.426 284.07L453.152 337.26" stroke="#251D18" stroke-width="2.70006" stroke-miterlimit="10" stroke-linecap="round"/>
<path d="M430.131 328.075C429.161 328.075 428.231 327.69 427.545 327.004C426.859 326.318 426.473 325.387 426.473 324.417C426.473 323.447 426.859 322.517 427.545 321.831C428.231 321.145 429.161 320.76 430.131 320.76H432.791C432.924 320.757 433.055 320.782 433.178 320.831C433.301 320.88 433.413 320.953 433.507 321.046C433.602 321.139 433.677 321.249 433.728 321.372C433.779 321.494 433.805 321.625 433.805 321.757V324.417C433.805 324.899 433.71 325.376 433.525 325.821C433.341 326.266 433.07 326.67 432.728 327.01C432.387 327.349 431.982 327.619 431.536 327.801C431.09 327.984 430.613 328.077 430.131 328.075Z" stroke="white" stroke-width="1.79893" stroke-miterlimit="10" stroke-linecap="round"/>
<path d="M433.315 315.575L433.794 321.764" stroke="white" stroke-width="1.79893" stroke-miterlimit="10" stroke-linecap="round"/>
<path d="M461.951 184.636C467.55 215.56 452.128 236.645 428.007 247.775L347.328 284.994L338.35 261.002L410.563 206.975L383.755 215.394C376.364 217.714 368.386 217.303 361.273 214.235C354.159 211.168 348.384 205.649 344.997 198.682L328.371 164.482C327.97 163.722 327.403 163.061 326.712 162.549C326.022 162.037 325.225 161.686 324.381 161.523C323.537 161.36 322.668 161.388 321.836 161.605C321.004 161.823 320.232 162.224 319.576 162.78L301.952 178.408C300.955 171.329 299.498 164.253 297.839 157.127C296.543 147.89 293.33 139.025 288.406 131.104C317.228 100 360.23 85.1131 396.641 96.8544C430.162 107.655 453.558 134.472 461.076 172.047L461.951 184.636Z" fill="#FFA33C"/>
<path d="M289.367 130.679C289.367 130.679 297.38 141.536 298.767 156.635" stroke="#251D18" stroke-width="2.15805" stroke-miterlimit="10" stroke-linecap="round"/>
<path d="M418.154 178.027L410.058 205.965" stroke="#251D18" stroke-width="2.15805" stroke-miterlimit="10" stroke-linecap="round"/>
<path d="M350.394 118.068C350.394 102.277 362.674 93.2888 379.709 93.2888C396.744 93.2888 405.449 109.2 405.449 123.169L410.55 206.964L375.493 218.422L381.81 134.564L350.394 118.068Z" fill="#251D18"/>
<path d="M384.439 129.118V123.834" stroke="#FFA33C" stroke-width="1.79893" stroke-miterlimit="10" stroke-linecap="round"/>
<path d="M387.287 127.529L384.44 129.118C384.44 129.118 365.593 135.047 355.375 111.691L350.387 118.521L351.641 133.261C352.562 144.102 364.642 150.11 373.84 144.301L386.595 136.247C387.775 135.499 388.735 134.451 389.378 133.21C390.02 131.969 390.322 130.58 390.253 129.185C390.238 128.844 390.137 128.514 389.958 128.224C389.779 127.934 389.529 127.695 389.232 127.529C388.935 127.363 388.6 127.275 388.259 127.276C387.919 127.276 387.584 127.363 387.287 127.529Z" fill="#B4702F"/>
<path d="M350.973 125.334L354.574 127.053C355.703 127.689 356.656 128.596 357.345 129.694C358.034 130.792 358.439 132.044 358.521 133.337L358.983 140.57" stroke="#251D18" stroke-width="1.79893" stroke-miterlimit="10" stroke-linecap="round"/>
<path d="M371.525 135.296C370.71 135.912 369.709 136.229 368.689 136.198C367.359 136.198 366.211 135.735 365.593 135.047" stroke="#251D18" stroke-width="1.79893" stroke-miterlimit="10" stroke-linecap="round"/>
<path d="M355.398 132.735C355.138 133.025 354.819 133.255 354.462 133.41C354.105 133.565 353.719 133.643 353.33 133.637C352.889 133.645 352.453 133.545 352.06 133.345C351.666 133.144 351.328 132.851 351.076 132.489" stroke="#251D18" stroke-width="1.79893" stroke-miterlimit="10" stroke-linecap="round"/>
<path d="M398.611 221.934L352.807 251.565L344.544 301.951L374.115 321.091C376.276 322.49 378.076 324.382 379.365 326.611C380.654 328.839 381.397 331.342 381.532 333.913C381.668 336.485 381.192 339.052 380.143 341.403C379.095 343.755 377.504 345.825 375.501 347.443L319.811 392.433C319.519 392.668 319.159 392.802 318.785 392.814C318.41 392.826 318.042 392.716 317.735 392.501C317.429 392.285 317.201 391.976 317.086 391.619C316.971 391.263 316.975 390.879 317.098 390.525L325.677 365.875C326.118 364.606 327.032 363.555 328.227 362.942C329.423 362.329 330.809 362.2 332.098 362.583L336.231 363.813L352.807 337.78L324.227 331.09L286.32 396.054L292.95 408.986C293.479 410.018 293.635 411.201 293.393 412.335C293.15 413.469 292.524 414.485 291.62 415.211L270.372 398.046C268.817 396.789 267.693 395.079 267.157 393.153C266.621 391.227 266.698 389.182 267.379 387.302L318.727 245.796C320.013 242.251 322.115 239.06 324.865 236.481C327.614 233.901 330.933 232.006 334.552 230.949L404.075 208.743C403.479 208.956 396.174 211.719 398.611 221.934Z" fill="#B15EFF"/>
<path d="M357.159 338.708L352.81 337.787L354.632 335.16" stroke="white" stroke-width="1.79893" stroke-miterlimit="10" stroke-linecap="round"/>
<path d="M324.225 331.096L322.668 330.568C320.711 329.902 318.963 328.734 317.599 327.18C316.235 325.627 315.302 323.743 314.894 321.716" stroke="white" stroke-width="1.79893" stroke-miterlimit="10" stroke-linecap="round"/>
<path d="M322.893 230.998L319.567 243.797L320.03 242.905C322.735 237.672 327.361 233.688 332.938 231.789L349.694 226.137L347.855 223.603C347.398 222.974 346.755 222.505 346.016 222.263C345.278 222.02 344.482 222.017 343.742 222.253L325.766 227.982C325.071 228.202 324.444 228.594 323.942 229.121C323.44 229.648 323.079 230.294 322.893 230.998Z" fill="white"/>
<path d="M326.691 362.206L316.589 393.081" stroke="#251D18" stroke-width="2.15805" stroke-miterlimit="10" stroke-linecap="round"/>
<path d="M265.052 393.757L291.617 415.218" stroke="#251D18" stroke-width="2.15805" stroke-miterlimit="10" stroke-linecap="round"/>
<path d="M424.981 215.88C425.161 216.003 425.312 216.165 425.422 216.353C425.532 216.542 425.6 216.752 425.619 216.97C425.638 217.187 425.608 217.406 425.533 217.611C425.457 217.816 425.336 218.001 425.18 218.154L421.652 221.602C420.493 222.736 418.996 223.463 417.388 223.674C415.78 223.885 414.147 223.569 412.734 222.773L406.915 219.491C406.185 219.08 405.357 218.876 404.519 218.901C403.682 218.927 402.867 219.18 402.163 219.634L398.612 221.935C396.175 211.72 403.48 208.967 404.075 208.751H404.112L406.895 207.863C408.238 207.434 409.661 207.317 411.056 207.521C412.451 207.725 413.781 208.245 414.945 209.04L424.981 215.88Z" fill="#B4702F"/>
<path d="M418.354 215.564L423.129 218.653" stroke="#251D18" stroke-width="1.79893" stroke-miterlimit="10" stroke-linecap="round"/>
<path d="M415.803 218.114L420.578 221.204" stroke="#251D18" stroke-width="1.79893" stroke-miterlimit="10" stroke-linecap="round"/>
<path d="M343.516 222.7L323.495 228.685C322.145 229.09 320.703 229.07 319.365 228.629C318.026 228.188 316.855 227.346 316.01 226.218L310.404 218.746C308.957 216.817 307.972 214.58 307.527 212.209C307.082 209.839 307.188 207.397 307.837 205.074C308.486 202.751 309.66 200.608 311.27 198.812C312.879 197.015 314.88 195.612 317.117 194.712L329.61 189.684C332.053 188.7 334.772 188.647 337.252 189.535C339.732 190.422 341.8 192.189 343.064 194.499L346.263 200.338L350.103 201.582C350.257 201.631 350.4 201.71 350.523 201.815C350.647 201.92 350.748 202.048 350.822 202.192C350.896 202.335 350.941 202.493 350.954 202.654C350.967 202.815 350.948 202.977 350.898 203.131L349.744 206.702L349.937 207.035C350.719 208.458 351.173 210.037 351.265 211.658C351.357 213.279 351.085 214.899 350.469 216.401C349.854 217.904 348.91 219.249 347.706 220.339C346.503 221.428 345.072 222.235 343.516 222.7Z" fill="#B4702F"/>
<path d="M324.972 217.417C324.047 216.665 322.925 216.196 321.741 216.067C320.556 215.937 319.359 216.153 318.295 216.689L318.171 216.752C316.904 217.387 315.888 218.432 315.288 219.717C314.689 221.002 314.54 222.451 314.866 223.831L314.367 224.037L310.404 218.753C308.956 216.824 307.972 214.587 307.527 212.217C307.082 209.846 307.188 207.405 307.837 205.082C308.486 202.758 309.66 200.616 311.27 198.819C312.879 197.022 314.88 195.619 317.117 194.719L329.61 189.691C331.295 189.01 333.126 188.77 334.93 188.993C337.301 198.872 333.421 209.809 324.972 217.417Z" fill="#251D18"/>
<path d="M318.83 220.486C318.83 220.486 322.82 219.213 324.243 222.634" stroke="#251D18" stroke-width="1.79893" stroke-miterlimit="10" stroke-linecap="round"/>
<path d="M320.529 223.016L321.537 220.343" stroke="#251D18" stroke-width="1.79893" stroke-miterlimit="10" stroke-linecap="round"/>
<path d="M343.032 205.396C343.827 205.396 344.472 204.751 344.472 203.956C344.472 203.161 343.827 202.516 343.032 202.516C342.237 202.516 341.592 203.161 341.592 203.956C341.592 204.751 342.237 205.396 343.032 205.396Z" fill="#251D18"/>
<path d="M157.789 304.962C156.053 303.299 153.234 299.163 151.495 297.201C141.048 283.274 133.012 267.693 127.723 251.107C105.92 183.436 132.315 114.378 186.692 96.8612C194.632 94.3018 202.907 92.9347 211.248 92.8045C224.2 92.5883 237.185 95.2884 249.561 100.502C256.662 103.513 263.439 107.236 269.788 111.615C277.366 116.844 283.774 123.591 288.604 131.429C293.435 139.267 296.582 148.024 297.846 157.144C307.18 197.229 309.724 235.781 265.865 282.094L157.789 304.962Z" fill="#B15EFF"/>
<path d="M240.757 125.528L238.549 149.835L218.854 137.781L199.478 148.708L198.082 125.528H240.757Z" fill="white"/>
<path d="M219.458 151.176C220.646 151.176 221.609 150.212 221.609 149.024C221.609 147.836 220.646 146.873 219.458 146.873C218.27 146.873 217.307 147.836 217.307 149.024C217.307 150.212 218.27 151.176 219.458 151.176Z" stroke="#FFA33C" stroke-width="1.79893" stroke-miterlimit="10" stroke-linecap="round"/>
<path d="M219.458 166.242C220.646 166.242 221.609 165.279 221.609 164.091C221.609 162.903 220.646 161.94 219.458 161.94C218.27 161.94 217.307 162.903 217.307 164.091C217.307 165.279 218.27 166.242 219.458 166.242Z" stroke="white" stroke-width="1.79893" stroke-miterlimit="10" stroke-linecap="round"/>
<path d="M248.613 118.296L247.808 121.032C247.45 122.248 246.708 123.315 245.694 124.074C244.679 124.833 243.445 125.242 242.178 125.242H240.685C240.064 129.004 238.126 132.424 235.218 134.891C232.31 137.358 228.621 138.712 224.807 138.712H214.114C210.368 138.713 206.739 137.408 203.853 135.021C200.967 132.633 199.004 129.314 198.302 125.634H196.74C195.473 125.635 194.24 125.225 193.226 124.466C192.212 123.707 191.47 122.64 191.113 121.425L190.309 118.688C190.143 118.127 190.111 117.536 190.214 116.961C190.317 116.385 190.553 115.842 190.903 115.374C191.253 114.906 191.707 114.526 192.23 114.264C192.752 114.003 193.329 113.866 193.913 113.866H194.651C195.192 113.866 195.721 114.02 196.176 114.312C196.631 114.603 196.992 115.018 197.218 115.509C200.544 112.922 202.745 108.267 202.745 102.947C202.747 102.295 202.71 101.645 202.635 100.998C210.416 105.49 222.041 108.443 229.666 108.021C231.883 107.938 234.081 107.572 236.206 106.933C237.021 110.648 238.953 113.767 241.51 115.669C241.627 115.05 241.957 114.491 242.443 114.091C242.929 113.69 243.54 113.472 244.17 113.474H245.021C245.604 113.477 246.179 113.615 246.699 113.878C247.22 114.14 247.672 114.521 248.021 114.988C248.369 115.456 248.604 115.998 248.706 116.572C248.809 117.146 248.777 117.736 248.613 118.296Z" fill="#B4702F"/>
<path d="M231.094 121.641C230.33 122.217 229.391 122.514 228.434 122.482C227.197 122.482 226.106 122.05 225.538 121.408" stroke="#251D18" stroke-width="1.79893" stroke-miterlimit="10" stroke-linecap="round"/>
<path d="M212.731 121.641C211.966 122.217 211.027 122.514 210.07 122.482C208.833 122.482 207.743 122.05 207.174 121.408" stroke="#251D18" stroke-width="1.79893" stroke-miterlimit="10" stroke-linecap="round"/>
<path d="M216.4 116.876L218.388 130.602H222.359" stroke="#251D18" stroke-width="1.79893" stroke-miterlimit="10" stroke-linecap="round"/>
<path d="M216.541 117.76H202.243L203.573 115.153C203.791 114.723 204.123 114.362 204.534 114.11C204.946 113.858 205.418 113.725 205.901 113.727H213.781C214.568 113.731 215.332 113.996 215.952 114.481C216.572 114.966 217.013 115.644 217.206 116.407L217.303 116.782C217.332 116.898 217.335 117.019 217.31 117.136C217.285 117.253 217.235 117.363 217.161 117.458C217.088 117.552 216.994 117.628 216.886 117.681C216.779 117.733 216.661 117.76 216.541 117.76Z" fill="#251D18"/>
<path d="M236.854 117.76H222.649L223.872 115.153C224.058 114.735 224.36 114.379 224.742 114.126C225.123 113.873 225.569 113.735 226.027 113.727H233.342C234.1 113.747 234.828 114.022 235.409 114.509C235.99 114.996 236.389 115.664 236.541 116.407L236.854 117.76Z" fill="#251D18"/>
<path d="M244.443 91.3081L241.683 115.798C239.023 113.909 237.028 110.734 236.2 106.933C234.075 107.572 231.877 107.937 229.659 108.021C222.034 108.443 210.41 105.49 202.629 100.998C202.703 101.644 202.74 102.295 202.738 102.946C202.738 108.267 200.524 112.922 197.202 115.519L194.495 90.8825C194.828 81.9842 205.894 78.689 219.474 78.689C233.257 78.679 244.443 82.0807 244.443 91.3081Z" fill="#251D18"/>
<path d="M211.338 316.809C196.63 315.761 183.426 299.937 178.528 265.704C173.923 233.529 172.054 205.052 191.829 199.533C201.555 196.813 211.474 200.484 220.093 208.644L230.095 190.225L242.827 195.14L233.656 227.394C236.698 233.402 239.133 239.698 240.925 246.188C241.77 249.211 242.452 252.224 242.974 255.203C247 255.327 250.944 256.374 254.502 258.262C263.616 263.25 267.39 270.649 266.004 281.515C266.761 282.197 267.471 282.928 268.132 283.703C279.99 297.589 276.807 315.585 246.774 334.329C241.929 337.355 234.76 341.901 229.234 345.412L238.265 366.208C238.396 366.728 238.36 367.277 238.162 367.776C237.964 368.275 237.613 368.698 237.161 368.987C236.708 369.276 236.177 369.415 235.641 369.385C235.105 369.354 234.592 369.156 234.175 368.818L207.966 347.643C205.865 345.948 204.424 343.57 203.893 340.923C203.362 338.276 203.775 335.527 205.06 333.152L211.338 316.809Z" fill="white"/>
<path d="M215.915 220.69L197.962 220.97" stroke="#FFA33C" stroke-width="1.61272" stroke-miterlimit="10" stroke-linecap="round"/>
<path d="M189.507 243.877L217.771 243.515C221.007 243.473 224.146 242.401 226.732 240.454C229.318 238.507 231.215 235.787 232.149 232.688L242.624 195.858" stroke="#FFA33C" stroke-width="1.61272" stroke-miterlimit="10" stroke-linecap="round"/>
<path d="M265.764 282.094C265.764 282.094 269.066 304.277 233.204 338.709" stroke="#FFA33C" stroke-width="1.79893" stroke-miterlimit="10" stroke-linecap="round"/>
<path d="M211.337 316.808L228.938 293.512" stroke="#FFA33C" stroke-width="1.79893" stroke-miterlimit="10" stroke-linecap="round"/>
<path d="M229.179 191.755L227.936 181.071C227.898 180.733 227.991 180.393 228.196 180.122C228.4 179.85 228.701 179.668 229.036 179.611C229.341 179.563 229.652 179.622 229.918 179.777C230.183 179.933 230.387 180.177 230.493 180.466L231.846 184.176C231.901 184.329 232.001 184.461 232.132 184.557C232.264 184.652 232.421 184.705 232.583 184.71C232.745 184.714 232.905 184.67 233.042 184.583C233.178 184.495 233.285 184.369 233.349 184.22L237.549 174.527C237.652 174.281 237.804 174.059 237.994 173.873C238.185 173.687 238.411 173.541 238.659 173.444C238.907 173.346 239.172 173.3 239.438 173.306C239.704 173.313 239.966 173.373 240.209 173.483L243.401 174.883C244.543 175.384 245.47 176.274 246.018 177.394C246.566 178.514 246.699 179.792 246.394 181.001L242.833 195.133C242.833 195.133 235.062 198.205 229.179 191.755Z" fill="#B4702F"/>
<path d="M240.373 174.53L238.082 180.505" stroke="#251D18" stroke-width="1.43981" stroke-miterlimit="10" stroke-linecap="round"/>
<path d="M242.956 175.415L240.665 181.403" stroke="#251D18" stroke-width="1.43981" stroke-miterlimit="10" stroke-linecap="round"/>
<path d="M244.961 176.851L243.006 181.952" stroke="#251D18" stroke-width="1.43981" stroke-miterlimit="10" stroke-linecap="round"/>
<path d="M190.605 207.377C178.272 208.734 170.321 205.901 168.925 193.079C168.261 187.272 169.764 181.424 173.144 176.656C172.691 176.759 172.233 176.837 171.771 176.888C169.214 177.167 166.636 176.599 164.433 175.273C162.229 173.947 160.521 171.935 159.57 169.545C158.619 167.155 158.477 164.52 159.167 162.042C159.857 159.564 161.34 157.381 163.389 155.826C165.438 154.272 167.941 153.432 170.513 153.435C173.085 153.438 175.585 154.285 177.63 155.844C179.675 157.404 181.152 159.591 181.836 162.071C182.519 164.55 182.371 167.186 181.414 169.573C183.698 168.437 186.164 167.714 188.7 167.438C201.033 166.081 212.169 175.362 213.579 188.167C214.989 200.973 202.931 206.02 190.605 207.377Z" fill="#FFA33C"/>
<path d="M171.694 180.097C171.141 180 170.613 179.795 170.139 179.494C169.665 179.192 169.255 178.801 168.933 178.341C168.611 177.881 168.383 177.362 168.261 176.814C168.14 176.265 168.128 175.699 168.226 175.146V175.146C168.324 174.593 168.53 174.066 168.832 173.593C169.134 173.121 169.526 172.712 169.985 172.391C170.445 172.07 170.964 171.842 171.511 171.722C172.059 171.601 172.625 171.589 173.177 171.687L177.384 172.436L176.636 176.642C176.437 177.755 175.805 178.743 174.879 179.391C173.953 180.038 172.808 180.292 171.694 180.097V180.097Z" stroke="#251D18" stroke-width="1.79893" stroke-miterlimit="10" stroke-linecap="round"/>
<path d="M186.265 168.715C186.317 168.155 186.259 167.591 186.094 167.055C185.928 166.518 185.658 166.019 185.3 165.587C184.941 165.154 184.501 164.797 184.004 164.535C183.507 164.273 182.964 164.111 182.404 164.059V164.059C181.845 164.006 181.281 164.064 180.744 164.23C180.207 164.395 179.708 164.665 179.275 165.023C178.843 165.382 178.485 165.823 178.223 166.32C177.961 166.817 177.8 167.361 177.749 167.92L177.357 172.173L181.609 172.565C182.737 172.671 183.861 172.325 184.733 171.603C185.606 170.881 186.157 169.842 186.265 168.715V168.715Z" stroke="#251D18" stroke-width="1.79893" stroke-miterlimit="10" stroke-linecap="round"/>
<path d="M211.311 211.646C204.607 215.267 194.685 213.242 189.315 206.505L187.569 208.031C187.049 208.486 186.442 208.83 185.785 209.043C185.128 209.256 184.435 209.334 183.748 209.272C183.06 209.21 182.392 209.009 181.784 208.681C181.176 208.354 180.641 207.907 180.21 207.366L179.166 206.09C178.266 204.991 177.824 203.587 177.933 202.171C178.041 200.754 178.691 199.434 179.748 198.485C180.671 197.669 181.861 197.218 183.093 197.218C184.073 197.22 185.032 197.503 185.857 198.033C186.869 198.169 187.893 198.183 188.909 198.076C195.812 197.354 200.773 191.332 199.995 184.619C199.758 182.576 198.999 180.63 197.791 178.966C199.616 180.338 201.8 181.151 204.078 181.304C206.356 181.458 208.63 180.946 210.623 179.831C211.843 181.3 212.95 183.435 214.001 186.394C217.772 196.925 220.804 206.519 211.311 211.646Z" fill="#B4702F"/>
<path d="M185.757 203.832C185.757 203.832 184.627 200.384 180.866 202.835" stroke="#251D18" stroke-width="1.67922" stroke-miterlimit="10" stroke-linecap="round"/>
<path d="M212.672 184.971C208.349 185.557 206.52 190.551 207.351 196.759C207.767 199.842 209.014 202.518 210.677 204.361" stroke="#251D18" stroke-width="1.79893" stroke-miterlimit="10" stroke-linecap="round"/>
<path d="M201.003 199.28C200.87 200.674 199.234 201.658 197.345 201.482" stroke="#251D18" stroke-width="1.79893" stroke-miterlimit="10" stroke-linecap="round"/>
<path d="M213.406 192.394C213.287 193.644 211.817 194.528 210.124 194.365" stroke="#251D18" stroke-width="1.79893" stroke-miterlimit="10" stroke-linecap="round"/>
<path d="M173.717 319.967L180.065 309.07C181.185 307.148 182.741 305.517 184.608 304.307C186.475 303.098 188.601 302.344 190.812 302.108C193.024 301.871 195.261 302.158 197.341 302.945C199.422 303.733 201.288 304.998 202.789 306.64L225.48 331.456L224.15 332.313C222.899 333.13 221.443 333.578 219.949 333.604C218.455 333.63 216.984 333.235 215.704 332.463L210.121 329.088C209.842 328.921 209.516 328.851 209.193 328.89C208.87 328.928 208.569 329.073 208.337 329.302C208.106 329.53 207.957 329.829 207.914 330.152C207.871 330.474 207.936 330.802 208.1 331.083L221.121 353.106C222.295 355.101 219.838 357.213 218.045 355.766L173.717 319.967Z" fill="#B4702F"/>
<path d="M190.055 302.208L183.447 288.574C183.447 288.574 165.491 289.905 157.69 304.948L159.074 306.727C161.934 310.403 165.279 313.676 169.016 316.456L173.718 319.958L190.055 302.208Z" fill="#251D18"/>
<path d="M179.54 301.602C180.728 301.602 181.692 300.639 181.692 299.451C181.692 298.263 180.728 297.299 179.54 297.299C178.352 297.299 177.389 298.263 177.389 299.451C177.389 300.639 178.352 301.602 179.54 301.602Z" stroke="#FFA33C" stroke-width="1.43981" stroke-miterlimit="10" stroke-linecap="round"/>
<path d="M266.511 176.591C269.653 193.251 268.064 208.393 256.948 221.195L237.236 243.893" stroke="white" stroke-width="1.79893" stroke-miterlimit="10" stroke-linecap="round"/>
<path d="M239.87 241.579L250.118 230.606C250.118 230.606 267.935 226.446 275.08 252.186L258.83 261.473L239.87 241.579Z" fill="#251D18"/>
<path d="M259.292 260.084C258.407 263.329 256.402 266.069 253.945 268.37C244.907 276.816 233.398 285.419 227.676 288.817C226.276 289.645 224.902 287.633 226.113 286.542L234.426 278.076L217.677 285.325C215.748 286.16 214.139 283.663 215.705 282.243L217.657 280.501L212.27 282.496C209.843 283.39 207.911 280.334 209.766 278.525L212.486 275.865L210.056 276.76C207.568 277.677 205.829 274.282 208.027 272.799L224.873 261.444L225.155 261.251C225.314 261.137 225.433 260.976 225.496 260.79C225.56 260.605 225.564 260.405 225.508 260.217C225.453 260.03 225.341 259.864 225.187 259.743C225.033 259.622 224.845 259.552 224.65 259.542C224.557 259.539 224.464 259.549 224.374 259.572L216.613 261.524C215.9 261.702 215.156 261.716 214.438 261.563C213.719 261.411 213.045 261.096 212.466 260.643L211.489 259.874L233.767 244.396C237.133 241.842 239.277 240.296 243.78 240.738C253.326 241.706 260.273 250.381 259.288 260.081L259.292 260.084Z" fill="#B4702F"/>
<path d="M212.485 275.855L227.119 267.546" stroke="#251D18" stroke-width="2.15805" stroke-miterlimit="10" stroke-linecap="round"/>
<path d="M217.657 280.481L230.848 273.116" stroke="#251D18" stroke-width="2.15805" stroke-miterlimit="10" stroke-linecap="round"/>
<path d="M251.458 239.058C252.646 239.058 253.609 238.095 253.609 236.907C253.609 235.719 252.646 234.755 251.458 234.755C250.27 234.755 249.306 235.719 249.306 236.907C249.306 238.095 250.27 239.058 251.458 239.058Z" stroke="#FFA33C" stroke-width="1.43981" stroke-miterlimit="10" stroke-linecap="round"/>
<path d="M363.84 277.372L347.327 284.993L338.349 261.002L352.075 252.107C354.616 250.461 360.106 255.213 363.351 262.236C366.596 269.259 366.59 276.098 363.84 277.372Z" fill="#FFA33C"/>
<path d="M338.335 260.999H318.717C318.096 260.999 317.499 261.238 317.05 261.668C316.601 262.097 316.334 262.682 316.306 263.303C316.281 263.864 316.452 264.416 316.79 264.865C317.128 265.313 317.612 265.63 318.158 265.76L325.164 267.423C325.452 267.491 325.712 267.644 325.911 267.862C326.111 268.08 326.24 268.352 326.283 268.644C326.326 268.936 326.281 269.235 326.152 269.501C326.024 269.767 325.819 269.988 325.563 270.136L308.894 279.779C308.477 280.02 308.111 280.341 307.818 280.724C307.524 281.107 307.31 281.544 307.186 282.01C307.063 282.476 307.033 282.962 307.097 283.439C307.162 283.917 307.321 284.377 307.564 284.794L310.77 290.277C311.916 292.24 313.722 293.733 315.866 294.49C318.009 295.247 320.352 295.22 322.478 294.413L347.307 284.986C347.307 284.986 351.234 270.312 338.335 260.999Z" fill="#B4702F"/>
<path d="M309.623 285.818L319.958 280.411" stroke="#251D18" stroke-width="1.79893" stroke-miterlimit="10" stroke-linecap="round"/>
<path d="M311.664 289.389L322.016 283.973" stroke="#251D18" stroke-width="1.79893" stroke-miterlimit="10" stroke-linecap="round"/>
<path d="M314.683 292.715L323.502 288.1" stroke="#251D18" stroke-width="1.79893" stroke-miterlimit="10" stroke-linecap="round"/>
<path d="M266.518 125.946L254.711 117.198C254.422 116.981 254.181 116.707 254.001 116.394C253.821 116.081 253.707 115.734 253.666 115.376C253.625 115.017 253.657 114.654 253.76 114.308C253.864 113.962 254.037 113.641 254.268 113.364L258.698 108.137C259.584 107.364 260.665 106.851 261.824 106.653C262.982 106.455 264.173 106.579 265.265 107.013L280.331 112.998C281.621 113.51 282.717 114.416 283.461 115.588C284.205 116.76 284.56 118.137 284.475 119.522L284.115 125.384L282.985 123.496C282.629 122.9 282.146 122.39 281.572 122.002C280.997 121.613 280.344 121.355 279.659 121.246C278.974 121.137 278.273 121.179 277.606 121.37C276.939 121.562 276.323 121.896 275.799 122.352L272.304 125.408C271.517 126.091 270.536 126.51 269.498 126.606C268.46 126.703 267.418 126.472 266.518 125.946Z" fill="#B4702F"/>
<path d="M256.602 117.713L263.193 110.018" stroke="#251D18" stroke-width="2.15805" stroke-miterlimit="10" stroke-linecap="round"/>
<path d="M261.005 120.788L267.596 113.094" stroke="#251D18" stroke-width="2.15805" stroke-miterlimit="10" stroke-linecap="round"/>
<path d="M265.276 123.834L271.866 116.14" stroke="#251D18" stroke-width="2.15805" stroke-miterlimit="10" stroke-linecap="round"/>
</svg>
