<svg width="723" height="431" viewBox="0 0 723 431" fill="none" xmlns="http://www.w3.org/2000/svg">
<path d="M312.427 64.1324H74.0772C56.6236 64.1324 42.4746 78.2814 42.4746 95.7351V316.967C42.4746 334.42 56.6236 348.569 74.0772 348.569H312.427C329.881 348.569 344.03 334.42 344.03 316.967V95.7351C344.03 78.2814 329.881 64.1324 312.427 64.1324Z" fill="#E2E3DE"/>
<path d="M162.87 97.1218H87.0022C87.0022 90.395 93.9153 84.9416 102.438 84.9416C104.295 84.9371 106.144 85.2037 107.924 85.733C110.751 81.5898 115.09 78.9297 119.955 78.9297C127.27 78.9297 133.382 84.915 134.985 92.9421C137.791 90.9669 142.323 89.404 147.434 89.404C155.957 89.414 162.87 93.7601 162.87 97.1218Z" fill="#EDEEEA" fill-opacity="0.88"/>
<mask id="mask0_501_8147" style="mask-type:alpha" maskUnits="userSpaceOnUse" x="42" y="108" width="302" height="111">
<rect x="42.5079" y="108" width="301" height="111" fill="#C4C4C4"/>
</mask>
<g mask="url(#mask0_501_8147)">
<path d="M394.409 267.612L233.005 106.203" stroke="#EDEEEA" stroke-opacity="0.88" stroke-width="0.901127" stroke-miterlimit="10"/>
<path d="M387.646 274.375L248.883 135.614" stroke="#EDEEEA" stroke-opacity="0.88" stroke-width="0.901127" stroke-miterlimit="10"/>
<path d="M401.379 260.642L247.173 106.433" stroke="#EDEEEA" stroke-opacity="0.88" stroke-width="0.901127" stroke-miterlimit="10"/>
<path d="M408.349 253.672L260.953 106.273" stroke="#EDEEEA" stroke-opacity="0.88" stroke-width="0.901127" stroke-miterlimit="10"/>
<path d="M415.322 246.702L274.842 106.223" stroke="#EDEEEA" stroke-opacity="0.88" stroke-width="0.901127" stroke-miterlimit="10"/>
<path d="M422.291 239.733L283.528 100.969" stroke="#EDEEEA" stroke-opacity="0.88" stroke-width="0.901127" stroke-miterlimit="10"/>
<path d="M429.261 232.76L290.497 93.9996" stroke="#EDEEEA" stroke-opacity="0.88" stroke-width="0.901127" stroke-miterlimit="10"/>
<path d="M436.231 225.79L297.467 87.0299" stroke="#EDEEEA" stroke-opacity="0.88" stroke-width="0.901127" stroke-miterlimit="10"/>
<path d="M366.834 295.187L228.071 156.427" stroke="#EDEEEA" stroke-opacity="0.88" stroke-width="0.901127" stroke-miterlimit="10"/>
<path d="M373.803 288.217L235.04 149.457" stroke="#EDEEEA" stroke-opacity="0.88" stroke-width="0.901127" stroke-miterlimit="10"/>
<path d="M380.773 281.248L242.012 142.488" stroke="#EDEEEA" stroke-opacity="0.88" stroke-width="0.901127" stroke-miterlimit="10"/>
<path d="M371.586 133.885L281.48 223.995" stroke="#EDEEEA" stroke-opacity="0.88" stroke-width="0.901127" stroke-miterlimit="10"/>
<path d="M364.616 126.916L274.506 217.026" stroke="#EDEEEA" stroke-opacity="0.88" stroke-width="0.901127" stroke-miterlimit="10"/>
<path d="M357.646 119.946L267.537 210.055" stroke="#EDEEEA" stroke-opacity="0.88" stroke-width="0.901127" stroke-miterlimit="10"/>
<path d="M350.676 112.977L260.567 203.086" stroke="#EDEEEA" stroke-opacity="0.88" stroke-width="0.901127" stroke-miterlimit="10"/>
<path d="M343.707 106.007L253.597 196.113" stroke="#EDEEEA" stroke-opacity="0.88" stroke-width="0.901127" stroke-miterlimit="10"/>
<path d="M336.738 99.0374L246.628 189.143" stroke="#EDEEEA" stroke-opacity="0.88" stroke-width="0.901127" stroke-miterlimit="10"/>
<path d="M329.768 92.0676L239.659 182.174" stroke="#EDEEEA" stroke-opacity="0.88" stroke-width="0.901127" stroke-miterlimit="10"/>
<path d="M322.795 85.0979L233.082 174.812" stroke="#EDEEEA" stroke-opacity="0.88" stroke-width="0.901127" stroke-miterlimit="10"/>
<path d="M315.825 78.1251L225.719 168.235" stroke="#EDEEEA" stroke-opacity="0.88" stroke-width="0.901127" stroke-miterlimit="10"/>
<path d="M427.386 189.689L337.28 279.795" stroke="#EDEEEA" stroke-opacity="0.88" stroke-width="0.901127" stroke-miterlimit="10"/>
<path d="M420.416 182.716L330.31 272.825" stroke="#EDEEEA" stroke-opacity="0.88" stroke-width="0.901127" stroke-miterlimit="10"/>
<path d="M413.446 175.745L323.34 265.855" stroke="#EDEEEA" stroke-opacity="0.88" stroke-width="0.901127" stroke-miterlimit="10"/>
<path d="M406.477 168.776L316.371 258.886" stroke="#EDEEEA" stroke-opacity="0.88" stroke-width="0.901127" stroke-miterlimit="10"/>
<path d="M399.507 161.807L309.398 251.917" stroke="#EDEEEA" stroke-opacity="0.88" stroke-width="0.901127" stroke-miterlimit="10"/>
<path d="M392.537 154.837L302.428 244.946" stroke="#EDEEEA" stroke-opacity="0.88" stroke-width="0.901127" stroke-miterlimit="10"/>
<path d="M385.568 147.868L295.458 237.977" stroke="#EDEEEA" stroke-opacity="0.88" stroke-width="0.901127" stroke-miterlimit="10"/>
<path d="M378.598 140.898L288.881 230.612" stroke="#EDEEEA" stroke-opacity="0.88" stroke-width="0.901127" stroke-miterlimit="10"/>
<path d="M443.516 218.505L304.756 79.7444" stroke="#EDEEEA" stroke-opacity="0.88" stroke-width="0.901127" stroke-miterlimit="10"/>
<path d="M283.122 267.611L121.704 106.193" stroke="#EDEEEA" stroke-opacity="0.88" stroke-width="0.901127" stroke-miterlimit="10"/>
<path d="M276.355 274.375L108.184 106.203" stroke="#EDEEEA" stroke-opacity="0.88" stroke-width="0.901127" stroke-miterlimit="10"/>
<path d="M290.092 260.642L135.63 106.18" stroke="#EDEEEA" stroke-opacity="0.88" stroke-width="0.901127" stroke-miterlimit="10"/>
<path d="M297.061 253.672L149.858 106.469" stroke="#EDEEEA" stroke-opacity="0.88" stroke-width="0.901127" stroke-miterlimit="10"/>
<path d="M304.031 246.702L163.352 106.02" stroke="#EDEEEA" stroke-opacity="0.88" stroke-width="0.901127" stroke-miterlimit="10"/>
<path d="M311.001 239.733L172.24 100.969" stroke="#EDEEEA" stroke-opacity="0.88" stroke-width="0.901127" stroke-miterlimit="10"/>
<path d="M317.97 232.76L179.21 93.9996" stroke="#EDEEEA" stroke-opacity="0.88" stroke-width="0.901127" stroke-miterlimit="10"/>
<path d="M324.94 225.79L186.18 87.0299" stroke="#EDEEEA" stroke-opacity="0.88" stroke-width="0.901127" stroke-miterlimit="10"/>
<path d="M255.543 295.187L66.6357 106.28" stroke="#EDEEEA" stroke-opacity="0.88" stroke-width="0.901127" stroke-miterlimit="10"/>
<path d="M262.513 288.217L80.5984 106.303" stroke="#EDEEEA" stroke-opacity="0.88" stroke-width="0.901127" stroke-miterlimit="10"/>
<path d="M269.482 281.248L94.4408 106.203" stroke="#EDEEEA" stroke-opacity="0.88" stroke-width="0.901127" stroke-miterlimit="10"/>
<path d="M221.223 274.375L53.0486 106.203" stroke="#EDEEEA" stroke-opacity="0.88" stroke-width="0.901127" stroke-miterlimit="10"/>
<path d="M200.411 295.187L11.5034 106.28" stroke="#EDEEEA" stroke-opacity="0.88" stroke-width="0.901127" stroke-miterlimit="10"/>
<path d="M207.381 288.217L25.463 106.303" stroke="#EDEEEA" stroke-opacity="0.88" stroke-width="0.901127" stroke-miterlimit="10"/>
<path d="M214.351 281.248L39.3063 106.203" stroke="#EDEEEA" stroke-opacity="0.88" stroke-width="0.901127" stroke-miterlimit="10"/>
<path d="M179.363 274.375L11.1884 106.203" stroke="#EDEEEA" stroke-opacity="0.88" stroke-width="0.901127" stroke-miterlimit="10"/>
<path d="M158.547 295.187L-30.3568 106.28" stroke="#EDEEEA" stroke-opacity="0.88" stroke-width="0.901127" stroke-miterlimit="10"/>
<path d="M165.52 288.217L-16.3979 106.303" stroke="#EDEEEA" stroke-opacity="0.88" stroke-width="0.901127" stroke-miterlimit="10"/>
<path d="M172.49 281.248L-2.55469 106.203" stroke="#EDEEEA" stroke-opacity="0.88" stroke-width="0.901127" stroke-miterlimit="10"/>
<path d="M124.228 274.375L-43.9438 106.203" stroke="#EDEEEA" stroke-opacity="0.88" stroke-width="0.901127" stroke-miterlimit="10"/>
<path d="M103.415 295.187L-85.4921 106.28" stroke="#EDEEEA" stroke-opacity="0.88" stroke-width="0.901127" stroke-miterlimit="10"/>
<path d="M110.385 288.217L-71.5332 106.303" stroke="#EDEEEA" stroke-opacity="0.88" stroke-width="0.901127" stroke-miterlimit="10"/>
<path d="M117.355 281.248L-57.6901 106.203" stroke="#EDEEEA" stroke-opacity="0.88" stroke-width="0.901127" stroke-miterlimit="10"/>
<path d="M260.298 133.885L170.188 223.995" stroke="#EDEEEA" stroke-opacity="0.88" stroke-width="0.901127" stroke-miterlimit="10"/>
<path d="M273.935 106.306L163.219 217.025" stroke="#EDEEEA" stroke-opacity="0.88" stroke-width="0.901127" stroke-miterlimit="10"/>
<path d="M260.491 105.811L147.312 218.994" stroke="#EDEEEA" stroke-opacity="0.88" stroke-width="0.901127" stroke-miterlimit="10"/>
<path d="M246.552 105.811L132.558 219.805" stroke="#EDEEEA" stroke-opacity="0.88" stroke-width="0.901127" stroke-miterlimit="10"/>
<path d="M232.416 106.007L119.124 219.3" stroke="#EDEEEA" stroke-opacity="0.88" stroke-width="0.901127" stroke-miterlimit="10"/>
<path d="M225.447 99.0374L105.184 219.3" stroke="#EDEEEA" stroke-opacity="0.88" stroke-width="0.901127" stroke-miterlimit="10"/>
<path d="M218.477 92.0676L91.0492 219.496" stroke="#EDEEEA" stroke-opacity="0.88" stroke-width="0.901127" stroke-miterlimit="10"/>
<path d="M211.508 85.0979L77.1067 219.496" stroke="#EDEEEA" stroke-opacity="0.88" stroke-width="0.901127" stroke-miterlimit="10"/>
<path d="M204.538 78.1251L63.1672 219.496" stroke="#EDEEEA" stroke-opacity="0.88" stroke-width="0.901127" stroke-miterlimit="10"/>
<path d="M163.498 106.007L50.2058 219.3" stroke="#EDEEEA" stroke-opacity="0.88" stroke-width="0.901127" stroke-miterlimit="10"/>
<path d="M156.529 99.0374L36.2664 219.3" stroke="#EDEEEA" stroke-opacity="0.88" stroke-width="0.901127" stroke-miterlimit="10"/>
<path d="M149.559 92.0676L22.1312 219.496" stroke="#EDEEEA" stroke-opacity="0.88" stroke-width="0.901127" stroke-miterlimit="10"/>
<path d="M142.59 85.0979L8.18872 219.496" stroke="#EDEEEA" stroke-opacity="0.88" stroke-width="0.901127" stroke-miterlimit="10"/>
<path d="M135.62 78.1251L-5.75073 219.496" stroke="#EDEEEA" stroke-opacity="0.88" stroke-width="0.901127" stroke-miterlimit="10"/>
<path d="M94.5805 106.007L-18.7122 219.3" stroke="#EDEEEA" stroke-opacity="0.88" stroke-width="0.901127" stroke-miterlimit="10"/>
<path d="M87.6106 99.0374L-32.6516 219.3" stroke="#EDEEEA" stroke-opacity="0.88" stroke-width="0.901127" stroke-miterlimit="10"/>
<path d="M80.6413 92.0676L-46.7867 219.496" stroke="#EDEEEA" stroke-opacity="0.88" stroke-width="0.901127" stroke-miterlimit="10"/>
<path d="M73.6714 85.0979L-60.7262 219.496" stroke="#EDEEEA" stroke-opacity="0.88" stroke-width="0.901127" stroke-miterlimit="10"/>
<path d="M316.098 189.689L225.989 279.795" stroke="#EDEEEA" stroke-opacity="0.88" stroke-width="0.901127" stroke-miterlimit="10"/>
<path d="M323.141 196.732L233.031 286.838" stroke="#EDEEEA" stroke-opacity="0.88" stroke-width="0.901127" stroke-miterlimit="10"/>
<path d="M309.128 182.716L219.019 272.825" stroke="#EDEEEA" stroke-opacity="0.88" stroke-width="0.901127" stroke-miterlimit="10"/>
<path d="M302.158 175.745L212.049 265.855" stroke="#EDEEEA" stroke-opacity="0.88" stroke-width="0.901127" stroke-miterlimit="10"/>
<path d="M295.189 168.776L205.079 258.886" stroke="#EDEEEA" stroke-opacity="0.88" stroke-width="0.901127" stroke-miterlimit="10"/>
<path d="M288.22 161.807L198.11 251.917" stroke="#EDEEEA" stroke-opacity="0.88" stroke-width="0.901127" stroke-miterlimit="10"/>
<path d="M281.247 154.837L191.141 244.946" stroke="#EDEEEA" stroke-opacity="0.88" stroke-width="0.901127" stroke-miterlimit="10"/>
<path d="M274.277 147.868L184.171 237.977" stroke="#EDEEEA" stroke-opacity="0.88" stroke-width="0.901127" stroke-miterlimit="10"/>
<path d="M267.308 140.898L177.594 230.612" stroke="#EDEEEA" stroke-opacity="0.88" stroke-width="0.901127" stroke-miterlimit="10"/>
<path d="M332.228 218.505L193.465 79.7444" stroke="#EDEEEA" stroke-opacity="0.88" stroke-width="0.901127" stroke-miterlimit="10"/>
</g>
<path d="M92.938 164.58L66.3664 219.665H42.4749V164.58H92.938Z" fill="#EDEEEA" fill-opacity="0.88"/>
<path d="M120.311 219.662H66.3662L92.9378 164.58H93.1573L120.311 219.662Z" fill="#B15EFF"/>
<path d="M92.8179 164.58L120.646 219.662" stroke="white" stroke-width="1.19042" stroke-miterlimit="10" stroke-linecap="round"/>
<path d="M101.43 219.662H82.3303C87.462 217.01 91.8617 213.135 95.1411 208.38C98.4206 203.624 100.479 198.135 101.134 192.396L101.43 189.818V219.662Z" fill="#251D18"/>
<path d="M82.906 219.662V191.122" stroke="#251D18" stroke-width="1.43981" stroke-miterlimit="10"/>
<path d="M82.3969 219.154C92.8147 213.77 100.02 202.106 101.35 190.458" stroke="white" stroke-width="1.19042" stroke-miterlimit="10" stroke-linecap="round"/>
<g style="mix-blend-mode:multiply">
<path d="M42.4746 255.368L120.311 220.174L42.4746 219.479V255.368Z" fill="#EDEEEA" fill-opacity="0.88"/>
</g>
<path d="M556.819 306.317L554.671 315.179H443.716L441.568 306.317C439.31 297.007 446.735 288.135 456.767 288.135C458.034 288.166 459.261 287.694 460.18 286.821C461.098 285.948 461.632 284.746 461.665 283.48C461.663 282.657 461.433 281.852 461 281.152L452.132 266.472C447.181 258.282 451.42 247.831 460.871 244.934L473.566 241.04C476.645 240.096 477.929 236.621 476.147 234.058L471.668 227.597C465.898 219.284 470.218 208.011 480.267 205.185L485.191 203.798C487.672 203.1 489.151 200.686 488.57 198.288L486.076 188.027C484.127 180 490.329 172.325 498.874 171.956H499.519C508.065 172.325 514.27 180 512.318 188.027L509.827 198.305C509.246 200.703 510.725 203.117 513.203 203.815L518.127 205.202C528.176 208.028 532.499 219.29 526.729 227.613L522.247 234.074C520.468 236.645 521.752 240.119 524.827 241.057L537.523 244.951C546.977 247.847 551.216 258.298 546.262 266.488L537.38 281.172C536.947 281.872 536.717 282.677 536.715 283.5C536.747 284.766 537.281 285.968 538.199 286.841C539.117 287.714 540.343 288.186 541.61 288.155C551.648 288.135 559.074 297.013 556.819 306.317Z" fill="#E2E3DE"/>
<path d="M607.499 190.774H499.596V315.179H607.499V190.774Z" fill="#EDEEEA" fill-opacity="0.88"/>
<path d="M699.454 190.774H607.499V315.179H699.454V190.774Z" fill="#FFA33C"/>
<path d="M651.684 146.399H545.384L499.596 190.774H607.499L651.684 146.399Z" fill="#E2E3DE"/>
<path d="M699.454 190.774H607.499L651.684 146.399H652.06L699.454 190.774Z" fill="#B4702F"/>
<path d="M652.326 227.859H638.576V241.609H652.326V227.859Z" fill="#251D18"/>
<path d="M672.559 227.859H658.809V241.609H672.559V227.859Z" fill="#251D18"/>
<path d="M652.326 248.094H638.576V261.843H652.326V248.094Z" fill="#251D18"/>
<path d="M672.559 248.094H658.809V261.843H672.559V248.094Z" fill="#251D18"/>
<path d="M579.331 136.464H592.239V146.399L579.331 160.106V136.464Z" fill="#B4702F"/>
<path d="M579.327 136.464H555.17V160.106H579.327V136.464Z" fill="#EDEEEA" fill-opacity="0.88"/>
<path d="M593.952 131.223H553.408V136.463H593.952V131.223Z" fill="#FFA33C"/>
<path d="M579.331 136.464H592.239V140.61L579.331 136.464Z" fill="#251D18"/>
<path d="M571.224 227.859H539.12V315.179H571.224V227.859Z" fill="#FFA33C"/>
<path d="M539.119 227.859H532.482V315.179H539.119V227.859Z" fill="#251D18"/>
<path d="M571.224 232.834L539.12 232.052V227.859H571.224V232.834Z" fill="#B4702F"/>
<path d="M544.872 269.734C546.752 269.734 548.277 268.209 548.277 266.329C548.277 264.448 546.752 262.924 544.872 262.924C542.991 262.924 541.467 264.448 541.467 266.329C541.467 268.209 542.991 269.734 544.872 269.734Z" stroke="#251D18" stroke-width="1.43981" stroke-miterlimit="10"/>
<path d="M684.187 428.617H561.657L455.73 328.413L603.422 328.027L532.991 315.178H571.224L697.069 337.254L518.17 339.718L684.187 428.617Z" fill="#EDEEEA" fill-opacity="0.88"/>
<path d="M722.746 315.179H646.2C646.2 308.914 654.207 303.837 664.08 303.837C666.047 303.832 668.01 304.042 669.932 304.462C672.106 299.576 675.654 295.428 680.144 292.524C684.635 289.621 689.873 288.086 695.22 288.108C710.423 288.108 722.746 300.229 722.746 315.179Z" fill="#E2E3DE"/>
<path d="M470.789 90.8775C495.884 90.8775 516.228 70.5339 516.228 45.4388C516.228 20.3436 495.884 0 470.789 0C445.694 0 425.35 20.3436 425.35 45.4388C425.35 70.5339 445.694 90.8775 470.789 90.8775Z" fill="#FFA33C"/>
<path d="M427.139 91.1338C430.197 91.1338 432.675 88.655 432.675 85.5973C432.675 82.5397 430.197 80.0609 427.139 80.0609C424.081 80.0609 421.603 82.5397 421.603 85.5973C421.603 88.655 424.081 91.1338 427.139 91.1338Z" fill="#FFA33C"/>
<path d="M397.648 284.041C402.304 284.091 404.412 286.791 406.39 290.991L473.938 428.321H419.708L380.407 362.569L367.439 428.331H322.629L317.581 344.579C316.451 326.728 322.193 309.12 333.629 295.367L348.203 277.843L397.648 284.041Z" fill="#251D18"/>
<path d="M380.927 364.611L385.964 327.714L394.975 324.974" stroke="white" stroke-width="1.83551" stroke-miterlimit="10" stroke-linecap="round"/>
<path d="M355.265 108.857C354.51 107.716 354.079 106.392 354.016 105.025C353.954 103.658 354.263 102.3 354.912 101.095C355.56 99.8906 356.522 98.8839 357.697 98.1826C358.872 97.4813 360.215 97.1115 361.583 97.1127H387.929C390.572 97.1156 393.179 97.7243 395.55 98.8923C397.921 100.06 399.993 101.756 401.606 103.85C403.219 105.943 404.331 108.379 404.856 110.97C405.381 113.56 405.305 116.236 404.634 118.793L401.748 129.746H408.774C411.053 129.746 413.309 130.194 415.415 131.066C417.52 131.938 419.433 133.216 421.044 134.827C422.655 136.438 423.933 138.351 424.805 140.457C425.677 142.562 426.125 144.818 426.125 147.097V152.228H427.299C429.769 152.228 432.21 152.756 434.459 153.776C436.708 154.796 438.714 156.284 440.342 158.141C441.97 159.998 443.183 162.182 443.899 164.545C444.616 166.909 444.819 169.398 444.497 171.846L441.883 191.655H417.609C415.353 191.655 413.12 191.21 411.035 190.347C408.951 189.484 407.058 188.218 405.463 186.623C403.867 185.028 402.602 183.134 401.739 181.05C400.876 178.966 400.431 176.732 400.431 174.477V164.055C398.362 164.055 396.313 163.648 394.401 162.856C392.489 162.064 390.752 160.903 389.289 159.44C387.825 157.977 386.665 156.24 385.873 154.328C385.081 152.416 384.673 150.367 384.673 148.297L355.265 108.857Z" fill="#251D18"/>
<path d="M362.381 108.566C362.601 105.107 364.539 102.913 367.522 101.167C367.782 103.893 368.639 106.528 370.034 108.884C371.428 111.241 373.325 113.261 375.589 114.8L378.279 116.633C379.881 117.723 381.248 119.122 382.302 120.747C383.356 122.373 384.075 124.192 384.417 126.099C384.809 124.726 385.637 123.517 386.777 122.656C387.917 121.796 389.307 121.331 390.735 121.331H391.603C392.88 121.33 394.129 121.701 395.197 122.399C396.266 123.097 397.108 124.091 397.62 125.26C398.133 126.429 398.293 127.722 398.082 128.981C397.871 130.24 397.297 131.41 396.431 132.347L403.564 156.921H374.931V143.38L367.911 143.414C363.758 143.746 360.792 140.81 361.061 136.654L361.178 127.054L356.732 125.105C356.557 125.029 356.407 124.906 356.298 124.749C356.189 124.593 356.125 124.41 356.114 124.219C356.103 124.029 356.144 123.839 356.234 123.671C356.324 123.503 356.458 123.363 356.622 123.266L356.805 123.16C358.287 122.288 359.534 121.067 360.435 119.603C361.337 118.139 361.867 116.476 361.979 114.761L362.381 108.566Z" fill="#B4702F"/>
<path d="M388.518 129.59C388.518 127.006 390.094 125.43 392.681 125.43" stroke="#251D18" stroke-width="1.80225" stroke-miterlimit="10" stroke-linecap="round"/>
<path d="M391.757 128.699L389.795 126.903" stroke="#251D18" stroke-width="1.80225" stroke-miterlimit="10" stroke-linecap="round"/>
<path d="M374.931 143.38L385.08 141.794L374.931 155.198V143.38Z" fill="#251D18"/>
<path d="M387.108 138.182C387.088 139.205 386.72 140.191 386.065 140.977C385.409 141.762 384.506 142.302 383.503 142.505L378.07 143.612" stroke="#251D18" stroke-width="1.43981" stroke-miterlimit="10" stroke-linecap="round"/>
<path d="M367.519 121.696C368.189 121.696 368.732 121.038 368.732 120.227C368.732 119.415 368.189 118.757 367.519 118.757C366.848 118.757 366.305 119.415 366.305 120.227C366.305 121.038 366.848 121.696 367.519 121.696Z" fill="#251D18"/>
<path d="M366.675 114.221C366.675 114.221 369.551 114.454 372.424 117.014" stroke="#251D18" stroke-width="1.80225" stroke-miterlimit="10" stroke-linecap="round"/>
<path d="M361.832 131.828C362.973 131.828 364.562 131.299 365.264 130.401" stroke="#251D18" stroke-width="1.80225" stroke-miterlimit="10" stroke-linecap="round"/>
<path d="M318.18 264.343C313.734 262.344 310.246 258.687 308.459 254.152C306.672 249.617 306.727 244.564 308.613 240.069L331.69 172.023C333.18 167.63 336.005 163.812 339.769 161.102C343.534 158.391 348.05 156.923 352.689 156.903L404.482 156.929C405.363 156.78 406.269 156.941 407.045 157.387C407.82 157.832 408.417 158.533 408.731 159.37L412.163 168.494L428.087 171.703C431.964 172.602 435.427 174.775 437.921 177.875C440.416 180.975 441.798 184.823 441.847 188.801L442.532 247.701L501.557 283.486L489.799 297.652L429.87 275.645C427.139 274.644 424.741 272.902 422.943 270.616C421.146 268.329 420.02 265.587 419.691 262.697L415.97 229.914L407.202 274.256C406.653 277.03 405.151 279.524 402.956 281.307C400.762 283.091 398.012 284.05 395.184 284.018L368.317 283.719C366.89 285.129 364.194 285.541 362.332 284.663L318.18 264.343Z" fill="#FFDEDF"/>
<path d="M380.237 268.656L338.736 240.266L355.94 196.968" stroke="white" stroke-width="1.83551" stroke-miterlimit="10" stroke-linecap="round"/>
<path d="M338.736 240.266L334.603 237.283" stroke="white" stroke-width="1.83551" stroke-miterlimit="10" stroke-linecap="round"/>
<path d="M413.32 164.388C413.947 164.791 414.467 165.337 414.839 165.982C415.21 166.628 415.422 167.352 415.455 168.096L419.402 258.062C420.024 271.955 408.861 277.398 394.955 277.272L362.784 255.588L413.32 164.388Z" fill="#FFA33C"/>
<path d="M412.615 165.041L397.705 192.184" stroke="white" stroke-width="1.83551" stroke-miterlimit="10" stroke-linecap="round"/>
<path d="M373.765 222.861L374.17 227.742L371.55 224.084C371.198 223.589 370.739 223.179 370.207 222.885C369.675 222.591 369.083 222.421 368.476 222.387C367.869 222.353 367.262 222.456 366.701 222.689C366.139 222.922 365.637 223.278 365.232 223.732L363.473 225.69C362.793 226.451 362.369 227.407 362.264 228.422C362.158 229.437 362.375 230.459 362.885 231.343L369.455 242.702L387.012 211.818L380.801 213.241C378.668 213.731 376.782 214.973 375.49 216.739C374.198 218.506 373.585 220.679 373.765 222.861Z" fill="white"/>
<path d="M384.152 188.329L378.253 188.107C376.703 188.048 375.156 188.309 373.71 188.871C372.264 189.433 370.948 190.286 369.844 191.377C368.739 192.467 367.87 193.772 367.29 195.211C366.71 196.651 366.43 198.193 366.469 199.745L366.635 206.305C366.669 207.64 367.009 208.95 367.628 210.133C368.247 211.316 369.129 212.342 370.206 213.131C371.284 213.92 372.527 214.452 373.842 214.686C375.157 214.919 376.508 214.849 377.791 214.479L387.022 211.819C389.601 211.075 391.856 209.487 393.424 207.308C394.992 205.129 395.782 202.487 395.667 199.805C395.545 196.794 394.291 193.94 392.156 191.813C390.022 189.685 387.164 188.442 384.152 188.329Z" fill="#B4702F"/>
<path d="M368.095 219.433L365.205 213.78C365.086 213.546 364.881 213.368 364.633 213.281C364.386 213.194 364.114 213.206 363.875 213.314C363.659 213.413 363.484 213.584 363.38 213.797C363.276 214.011 363.25 214.254 363.306 214.485L364.028 217.441C364.057 217.562 364.049 217.689 364.005 217.805C363.961 217.921 363.883 218.022 363.781 218.093C363.679 218.165 363.559 218.204 363.434 218.207C363.31 218.209 363.188 218.174 363.084 218.106L356.264 213.707C356.092 213.597 355.901 213.522 355.701 213.486C355.5 213.45 355.295 213.454 355.096 213.497C354.897 213.541 354.709 213.623 354.542 213.74C354.375 213.856 354.232 214.004 354.122 214.176L353.514 215.123C352.763 216.3 352.454 217.705 352.64 219.088C352.826 220.472 353.496 221.745 354.531 222.681L359.11 226.818C360.048 227.671 361.269 228.146 362.537 228.153C363.805 228.159 365.03 227.695 365.977 226.851C366.959 225.971 367.742 224.891 368.271 223.682C368.557 223.005 368.689 222.272 368.658 221.538C368.628 220.803 368.435 220.084 368.095 219.433Z" fill="#B4702F"/>
<path d="M377.791 214.472L387.022 211.808L383.71 217.634L377.791 214.472Z" fill="#B15EFF"/>
<path d="M368.214 283.803L380.4 267.985C383.323 264.972 389.309 265.837 393.093 266.375L404.472 268.105L404.309 269.202C404.138 269.756 403.821 270.254 403.39 270.641C402.959 271.029 402.43 271.292 401.861 271.403C400.086 271.736 397.422 272.424 395.543 272.77C395.473 272.783 395.411 272.821 395.367 272.877C395.322 272.933 395.3 273.003 395.303 273.074C395.306 273.145 395.335 273.213 395.384 273.264C395.433 273.316 395.499 273.348 395.57 273.355L404.571 274.243C405.022 274.281 405.471 274.145 405.825 273.864L412.216 269.076C412.766 268.638 413.434 268.374 414.134 268.315C414.835 268.255 415.537 268.404 416.153 268.743H416.186C416.26 268.783 416.324 268.839 416.374 268.906C416.424 268.974 416.459 269.051 416.476 269.134C416.493 269.216 416.492 269.301 416.473 269.383C416.454 269.465 416.417 269.541 416.366 269.608C416.199 269.817 416.003 270.07 415.781 270.362C416.607 270.298 417.43 270.524 418.108 271.001L418.141 271.024C418.21 271.072 418.267 271.134 418.309 271.207C418.351 271.279 418.376 271.36 418.384 271.443C418.392 271.526 418.381 271.61 418.353 271.689C418.325 271.767 418.28 271.839 418.221 271.899C416.582 273.561 410.593 278.921 406.846 282.539C405.82 283.53 404.458 284.098 403.032 284.129L368.214 283.803Z" fill="#B4702F"/>
<path d="M415.262 271.028L408.927 279.357" stroke="#251D18" stroke-width="1.26025" stroke-miterlimit="10" stroke-linecap="round"/>
<path d="M519.437 279.44C519.83 279.646 520.162 279.954 520.396 280.332C520.63 280.71 520.758 281.144 520.767 281.588L520.93 288.797C520.933 288.925 520.91 289.052 520.862 289.17C520.814 289.288 520.742 289.395 520.65 289.485C520.559 289.574 520.45 289.643 520.33 289.687C520.21 289.732 520.083 289.752 519.955 289.745L510.824 289.256L506.801 295.574C505.598 297.457 503.792 298.877 501.679 299.602C499.565 300.327 497.268 300.313 495.163 299.564L489.796 297.646L501.188 279.936C501.718 279.109 502.474 278.45 503.366 278.038C504.258 277.626 505.249 277.476 506.222 277.608L519.437 279.44Z" fill="#B4702F"/>
<path d="M510.353 288.777C509.759 288.496 509.096 288.396 508.445 288.489C507.795 288.582 507.186 288.863 506.695 289.299L502.818 292.724" stroke="#251D18" stroke-width="1.26025" stroke-miterlimit="10" stroke-linecap="round"/>
<path d="M487.503 415.216C483.772 423.728 476.144 428.616 476.144 428.616C476.144 428.616 474.568 419.698 478.299 411.182C482.03 402.666 489.655 397.782 489.655 397.782C489.655 397.782 491.234 406.7 487.503 415.216Z" fill="#E2E3DE"/>
<path d="M462.268 415.216C465.999 423.728 473.623 428.616 473.623 428.616C473.623 428.616 475.203 419.698 471.472 411.182C467.741 402.666 460.113 397.782 460.113 397.782C460.113 397.782 458.537 406.7 462.268 415.216Z" fill="#E2E3DE"/>
<path d="M487.503 389.17C483.772 397.686 476.144 402.571 476.144 402.571C476.144 402.571 474.568 393.653 478.299 385.137C482.03 376.621 489.655 371.736 489.655 371.736C489.655 371.736 491.234 380.664 487.503 389.17Z" fill="#E2E3DE"/>
<path d="M462.268 389.17C465.999 397.686 473.623 402.571 473.623 402.571C473.623 402.571 475.203 393.653 471.472 385.137C467.741 376.621 460.113 371.736 460.113 371.736C460.113 371.736 458.537 380.664 462.268 389.17Z" fill="#E2E3DE"/>
<path d="M474.884 374.584C477.941 374.584 480.42 372.105 480.42 369.047C480.42 365.99 477.941 363.511 474.884 363.511C471.826 363.511 469.347 365.99 469.347 369.047C469.347 372.105 471.826 374.584 474.884 374.584Z" fill="#B15EFF"/>
<path d="M279.482 404.549C284.862 416.077 282.997 428.33 282.997 428.33C282.997 428.33 272.402 421.893 267.036 410.374C261.669 398.856 263.521 386.593 263.521 386.593C263.521 386.593 274.102 393.02 279.482 404.549Z" fill="#E2E3DE"/>
<path d="M283.31 383.823V427.885" stroke="#251D18" stroke-width="1.43981" stroke-miterlimit="10"/>
<path d="M293.648 402.434L283.31 415.027" stroke="#251D18" stroke-width="1.43981" stroke-miterlimit="10"/>
<path d="M289.897 377.569C293.536 373.93 293.536 368.031 289.897 364.393C286.259 360.754 280.359 360.754 276.721 364.393C273.082 368.031 273.082 373.93 276.721 377.569C280.359 381.208 286.259 381.208 289.897 377.569Z" fill="#FFDEDF"/>
<path d="M283.31 361.661V380.295" stroke="white" stroke-width="0.744843" stroke-miterlimit="10" stroke-linecap="round"/>
<path d="M273.992 370.978H292.627" stroke="white" stroke-width="0.744843" stroke-miterlimit="10" stroke-linecap="round"/>
<path d="M276.722 364.39L289.897 377.568" stroke="white" stroke-width="0.744843" stroke-miterlimit="10" stroke-linecap="round"/>
<path d="M276.722 377.568L289.897 364.39" stroke="white" stroke-width="0.744843" stroke-miterlimit="10" stroke-linecap="round"/>
<path d="M283.31 374.427C285.214 374.427 286.758 372.883 286.758 370.978C286.758 369.074 285.214 367.53 283.31 367.53C281.405 367.53 279.862 369.074 279.862 370.978C279.862 372.883 281.405 374.427 283.31 374.427Z" fill="#FFDEDF"/>
<path d="M283.309 372.84C284.338 372.84 285.171 372.007 285.171 370.978C285.171 369.95 284.338 369.116 283.309 369.116C282.281 369.116 281.447 369.95 281.447 370.978C281.447 372.007 282.281 372.84 283.309 372.84Z" fill="white"/>
<path d="M308.109 400.448C311.747 396.809 311.747 390.91 308.109 387.271C304.47 383.633 298.571 383.633 294.932 387.271C291.293 390.91 291.293 396.809 294.932 400.448C298.571 404.086 304.47 404.086 308.109 400.448Z" fill="#FFDEDF"/>
<path d="M301.518 384.541V403.175" stroke="white" stroke-width="0.744843" stroke-miterlimit="10" stroke-linecap="round"/>
<path d="M292.2 393.859H310.838" stroke="white" stroke-width="0.744843" stroke-miterlimit="10" stroke-linecap="round"/>
<path d="M294.931 387.269L308.108 400.447" stroke="white" stroke-width="0.744843" stroke-miterlimit="10" stroke-linecap="round"/>
<path d="M294.931 400.447L308.108 387.269" stroke="white" stroke-width="0.744843" stroke-miterlimit="10" stroke-linecap="round"/>
<path d="M304.937 394.436C305.242 392.557 303.965 390.785 302.086 390.48C300.206 390.175 298.435 391.452 298.13 393.331C297.824 395.211 299.101 396.982 300.981 397.288C302.86 397.593 304.632 396.316 304.937 394.436Z" fill="#FFDEDF"/>
<path d="M302.229 395.58C303.179 395.186 303.63 394.097 303.237 393.147C302.843 392.197 301.754 391.745 300.804 392.139C299.854 392.533 299.403 393.622 299.796 394.572C300.19 395.522 301.279 395.973 302.229 395.58Z" fill="white"/>
<path d="M308.442 420.324C301.725 426.748 292.813 428.331 292.813 428.331C292.813 428.331 294.785 419.489 301.502 413.062C308.219 406.634 317.13 405.055 317.13 405.055C317.13 405.055 315.159 413.896 308.442 420.324Z" fill="#E2E3DE"/>
<path d="M15.1026 347.662C18.1603 347.662 20.6391 345.183 20.6391 342.125C20.6391 339.068 18.1603 336.589 15.1026 336.589C12.0449 336.589 9.56616 339.068 9.56616 342.125C9.56616 345.183 12.0449 347.662 15.1026 347.662Z" fill="#FFA33C"/>
<path d="M27.735 415.35C24.0041 423.866 16.3761 428.751 16.3761 428.751C16.3761 428.751 14.8 419.832 18.5308 411.317C22.2617 402.801 29.8897 397.916 29.8897 397.916C29.8897 397.916 31.4492 406.834 27.735 415.35Z" fill="#E2E3DE"/>
<path d="M2.48343 415.35C6.2143 423.866 13.8423 428.751 13.8423 428.751C13.8423 428.751 15.4184 419.832 11.6876 411.317C7.9567 402.801 0.33203 397.916 0.33203 397.916C0.33203 397.916 -1.24744 406.834 2.48343 415.35Z" fill="#E2E3DE"/>
<path d="M27.735 389.312C24.0041 397.828 16.3761 402.713 16.3761 402.713C16.3761 402.713 14.8 393.795 18.5308 385.279C22.2617 376.763 29.8897 371.878 29.8897 371.878C29.8897 371.878 31.4492 380.796 27.735 389.312Z" fill="#E2E3DE"/>
<path d="M2.48343 389.312C6.2143 397.828 13.8423 402.713 13.8423 402.713C13.8423 402.713 15.4184 393.795 11.6876 385.279C7.9567 376.763 0.33203 371.878 0.33203 371.878C0.33203 371.878 -1.24744 380.796 2.48343 389.312Z" fill="#E2E3DE"/>
<path d="M27.735 363.277C24.0041 371.793 16.3761 376.678 16.3761 376.678C16.3761 376.678 14.8 367.76 18.5308 359.247C22.2617 350.735 29.8897 345.843 29.8897 345.843C29.8897 345.843 31.4492 354.765 27.735 363.277Z" fill="#E2E3DE"/>
<path d="M2.48343 363.277C6.2143 371.793 13.8423 376.678 13.8423 376.678C13.8423 376.678 15.4184 367.76 11.6876 359.247C7.9567 350.735 0.33203 345.843 0.33203 345.843C0.33203 345.843 -1.24744 354.765 2.48343 363.277Z" fill="#E2E3DE"/>
<path d="M552.567 420.759C545.85 427.187 536.938 428.767 536.938 428.767C536.938 428.767 538.91 419.928 545.627 413.501C552.344 407.073 561.256 405.494 561.256 405.494C561.256 405.494 559.284 414.315 552.567 420.759Z" fill="#251D18"/>
<path d="M532.08 376.224V428.453L514.384 411.378" stroke="#251D18" stroke-width="1.43981" stroke-miterlimit="10"/>
<path d="M541.4 392.283L532.08 404.366" stroke="#251D18" stroke-width="1.43981" stroke-miterlimit="10"/>
<path d="M538.667 369.969C542.306 366.331 542.306 360.431 538.667 356.793C535.029 353.154 529.13 353.154 525.491 356.793C521.852 360.431 521.852 366.331 525.491 369.969C529.13 373.608 535.029 373.608 538.667 369.969Z" fill="#FFA33C"/>
<path d="M532.08 354.063V372.697" stroke="white" stroke-width="0.744843" stroke-miterlimit="10" stroke-linecap="round"/>
<path d="M522.763 363.381H541.401" stroke="white" stroke-width="0.744843" stroke-miterlimit="10" stroke-linecap="round"/>
<path d="M525.493 356.793L538.671 369.971" stroke="white" stroke-width="0.744843" stroke-miterlimit="10" stroke-linecap="round"/>
<path d="M525.493 369.971L538.671 356.793" stroke="white" stroke-width="0.744843" stroke-miterlimit="10" stroke-linecap="round"/>
<path d="M532.08 366.828C533.984 366.828 535.528 365.285 535.528 363.38C535.528 361.476 533.984 359.932 532.08 359.932C530.175 359.932 528.632 361.476 528.632 363.38C528.632 365.285 530.175 366.828 532.08 366.828Z" fill="#FFA33C"/>
<path d="M532.08 365.242C533.109 365.242 533.942 364.408 533.942 363.38C533.942 362.351 533.109 361.518 532.08 361.518C531.052 361.518 530.218 362.351 530.218 363.38C530.218 364.408 531.052 365.242 532.08 365.242Z" fill="white"/>
<path d="M549.272 393.024C554.417 393.024 558.589 388.852 558.589 383.707C558.589 378.561 554.417 374.39 549.272 374.39C544.126 374.39 539.955 378.561 539.955 383.707C539.955 388.852 544.126 393.024 549.272 393.024Z" fill="#FFA33C"/>
<path d="M549.271 374.39V393.024" stroke="white" stroke-width="0.744843" stroke-miterlimit="10" stroke-linecap="round"/>
<path d="M539.955 383.706H558.589" stroke="white" stroke-width="0.744843" stroke-miterlimit="10" stroke-linecap="round"/>
<path d="M542.681 377.119L555.859 390.293" stroke="white" stroke-width="0.744843" stroke-miterlimit="10" stroke-linecap="round"/>
<path d="M542.681 390.293L555.859 377.119" stroke="white" stroke-width="0.744843" stroke-miterlimit="10" stroke-linecap="round"/>
<path d="M549.271 387.155C551.176 387.155 552.72 385.611 552.72 383.707C552.72 381.803 551.176 380.259 549.271 380.259C547.367 380.259 545.823 381.803 545.823 383.707C545.823 385.611 547.367 387.155 549.271 387.155Z" fill="#FFA33C"/>
<path d="M549.272 385.569C550.3 385.569 551.134 384.735 551.134 383.707C551.134 382.678 550.3 381.844 549.272 381.844C548.243 381.844 547.409 382.678 547.409 383.707C547.409 384.735 548.243 385.569 549.272 385.569Z" fill="white"/>
<path d="M515.232 405.194C516.414 400.186 513.312 395.168 508.304 393.986C503.296 392.804 498.278 395.906 497.096 400.914C495.914 405.922 499.016 410.94 504.024 412.122C509.032 413.304 514.05 410.202 515.232 405.194Z" fill="#E2E3DE"/>
<path d="M506.184 393.765V412.4" stroke="#FFA33C" stroke-width="0.744843" stroke-miterlimit="10" stroke-linecap="round"/>
<path d="M496.863 403.082H515.501" stroke="#FFA33C" stroke-width="0.744843" stroke-miterlimit="10" stroke-linecap="round"/>
<path d="M499.593 396.493L512.77 409.671" stroke="#FFA33C" stroke-width="0.744843" stroke-miterlimit="10" stroke-linecap="round"/>
<path d="M499.593 409.671L512.77 396.493" stroke="#FFA33C" stroke-width="0.744843" stroke-miterlimit="10" stroke-linecap="round"/>
<path d="M506.184 406.531C508.088 406.531 509.632 404.987 509.632 403.083C509.632 401.178 508.088 399.635 506.184 399.635C504.279 399.635 502.736 401.178 502.736 403.083C502.736 404.987 504.279 406.531 506.184 406.531Z" fill="white"/>
<path d="M506.183 404.945C507.212 404.945 508.045 404.111 508.045 403.082C508.045 402.054 507.212 401.22 506.183 401.22C505.155 401.22 504.321 402.054 504.321 403.082C504.321 404.111 505.155 404.945 506.183 404.945Z" fill="#FFA33C"/>
<path d="M653.984 365.725C656.77 365.481 658.751 362.103 658.407 358.178C658.064 354.254 655.527 351.271 652.741 351.514C649.955 351.758 647.974 355.137 648.317 359.061C648.661 362.985 651.198 365.969 653.984 365.725Z" fill="#B15EFF"/>
<path d="M650.656 367.81C650.815 366.005 648.786 364.351 646.124 364.117C643.462 363.882 641.176 365.156 641.017 366.962C640.858 368.768 642.887 370.421 645.549 370.655C648.21 370.89 650.497 369.616 650.656 367.81Z" fill="#B15EFF"/>
<path d="M654.67 370.567C652.625 372 650.594 372.632 650.138 371.98C649.683 371.328 650.97 369.652 653.018 368.202C655.066 366.753 657.095 366.138 657.553 366.789C658.012 367.441 656.719 369.134 654.67 370.567Z" fill="#251D18"/>
<path d="M659.365 366.333C659.205 366.467 659.008 366.55 658.8 366.571C658.592 366.591 658.382 366.548 658.199 366.448C658.016 366.347 657.867 366.194 657.773 366.007C657.678 365.821 657.642 365.61 657.67 365.403C657.697 365.196 657.786 365.001 657.926 364.846C658.065 364.69 658.248 364.58 658.451 364.53C658.654 364.481 658.868 364.494 659.063 364.567C659.259 364.641 659.428 364.772 659.548 364.943C659.706 365.152 659.776 365.415 659.742 365.676C659.708 365.936 659.572 366.172 659.365 366.333Z" fill="#251D18"/>
<path d="M275.9 348.567H161.274L172.463 304.731C175.444 293.047 182.903 283.006 193.229 276.779L196.255 274.954L254.416 289.701L275.9 348.567Z" fill="#B4702F"/>
<path d="M242.475 286.672L196.255 274.954L192.711 277.002C186.24 280.74 181.451 286.073 177.767 292.401L242.475 286.672Z" fill="#251D18"/>
<path d="M228.269 348.568L236.755 323.702L241.374 323.556C242.782 323.498 244.134 322.986 245.228 322.096C246.321 321.207 247.098 319.988 247.442 318.621" stroke="white" stroke-width="1.80225" stroke-miterlimit="10" stroke-linecap="round"/>
<path d="M331.577 172.302L239.881 136.682C222.923 130.105 208.435 131.974 193.072 141.72L131.347 177.945C127.504 180.383 124.406 183.832 122.392 187.913C120.378 191.994 119.525 196.551 119.928 201.085L125.069 258.906L150.164 264.712L158.111 206.116L207.294 186.018L187.955 258.085C187.428 259.861 187.266 261.725 187.477 263.566C187.689 265.406 188.27 267.185 189.186 268.795C190.101 270.406 191.333 271.815 192.806 272.938C194.28 274.06 195.965 274.874 197.761 275.329L254.236 289.651C258.006 290.606 261.994 290.18 265.478 288.451C268.962 286.722 271.713 283.804 273.233 280.224L298.404 220.849C298.969 219.515 300.03 218.452 301.363 217.885C302.696 217.318 304.198 217.291 305.55 217.81L315.147 220.803L331.577 172.302Z" fill="white"/>
<path d="M206.131 187.424L216.146 183.587" stroke="#B15EFF" stroke-width="1.80225" stroke-miterlimit="10" stroke-linecap="round"/>
<path d="M152.315 202.018L157.599 205.606L158.62 201.506" stroke="#B15EFF" stroke-width="1.80225" stroke-miterlimit="10" stroke-linecap="round"/>
<path d="M300.506 218.435L307.296 202.019" stroke="#B15EFF" stroke-width="1.80225" stroke-miterlimit="10" stroke-linecap="round"/>
<path d="M286.777 177.319L293.391 157.324L308.45 163.41L286.777 177.319Z" fill="#B15EFF"/>
<path d="M107.774 285.547L109.184 276.343C109.53 274.092 110.705 272.052 112.479 270.624C114.253 269.196 116.498 268.483 118.771 268.625L131.835 269.45C133.041 269.526 134.22 269.84 135.303 270.376C136.386 270.911 137.352 271.657 138.145 272.569C138.937 273.481 139.54 274.542 139.919 275.689C140.298 276.837 140.445 278.048 140.351 279.253L139.666 288.108" stroke="#251D18" stroke-width="3.60118" stroke-miterlimit="10"/>
<path d="M150.662 301.641L130.149 414.717C129.663 417.407 128.13 419.793 125.885 421.352C123.64 422.911 120.868 423.515 118.178 423.03L59.4788 412.39C44.4889 409.67 36.5018 393.137 43.6775 379.703L91.1546 290.857L150.662 301.641Z" fill="#FFA33C"/>
<path d="M150.662 301.641L130.149 414.717C129.664 417.407 128.13 419.793 125.885 421.352C123.64 422.911 120.868 423.515 118.179 423.03C103.189 420.31 95.1982 403.774 102.374 390.344L149.834 301.491L150.662 301.641Z" fill="#251D18"/>
<path d="M147.573 303.835L149.681 397.087C150.346 415.063 140.168 425.178 125.181 422.458L119.213 421.378" stroke="#251D18" stroke-width="3.60118" stroke-miterlimit="10"/>
<path d="M101.842 369.572L90.9716 392.496C90.5461 393.376 89.844 394.092 88.9726 394.536C88.1012 394.979 87.1087 395.124 86.1468 394.95L79.4099 393.726C80.3715 393.901 81.364 393.757 82.2355 393.314C83.1069 392.871 83.8092 392.155 84.2348 391.275L96.1722 366.569C96.3489 366.204 96.4388 365.803 96.4348 365.397C96.4308 364.991 96.3331 364.592 96.1493 364.23C95.9655 363.868 95.7006 363.554 95.3752 363.311C95.0498 363.069 94.6728 362.905 94.2735 362.832L99.2247 363.733C101.645 364.169 103.547 366.35 101.842 369.572Z" fill="#251D18"/>
<path d="M101.842 369.571L90.9721 392.495C90.0144 394.37 88.4516 398.573 83.394 397.656L55.1032 392.521C50.6408 391.713 50.7173 386.909 51.5453 385.279L64.9757 362.817C65.9334 360.942 68.1347 359.925 70.3659 360.327L99.6641 365.647C101.579 365.993 102.67 367.948 101.842 369.571Z" fill="#251D18"/>
<path d="M96.1725 366.558L84.235 391.265C83.8095 392.145 83.1072 392.861 82.2357 393.303C81.3643 393.746 80.3717 393.891 79.4102 393.715L54.3349 389.17C52.6191 388.861 50.7869 386.842 51.5451 385.273L63.4825 360.57C63.9078 359.69 64.6092 358.974 65.4798 358.53C66.3504 358.086 67.3423 357.94 68.3041 358.112L94.2738 362.824C94.6726 362.897 95.0492 363.061 95.3742 363.304C95.6993 363.546 95.964 363.86 96.1477 364.221C96.3315 364.583 96.4293 364.982 96.4336 365.387C96.4379 365.792 96.3485 366.193 96.1725 366.558Z" fill="#B15EFF"/>
<path d="M135.955 311.773L89.6117 303.38C86.3272 302.784 83.4139 300.908 81.5121 298.164C79.6104 295.421 78.8758 292.034 79.4699 288.75C80.067 285.466 81.9434 282.553 84.6867 280.651C87.4299 278.75 90.8159 278.015 94.1007 278.608L140.457 286.994C143.742 287.59 146.655 289.466 148.557 292.21C150.459 294.953 151.193 298.34 150.599 301.625C150.305 303.253 149.692 304.807 148.797 306.199C147.901 307.59 146.74 308.791 145.38 309.734C144.02 310.676 142.488 311.342 140.87 311.692C139.253 312.041 137.583 312.069 135.955 311.773Z" fill="#FFA33C"/>
<path d="M140.297 287.842C143.582 288.439 146.495 290.315 148.397 293.058C150.299 295.802 151.033 299.188 150.439 302.473V302.473C149.843 305.758 147.967 308.671 145.223 310.573C142.48 312.474 139.093 313.209 135.808 312.615L89.4651 304.209" stroke="#251D18" stroke-width="1.98181" stroke-miterlimit="10"/>
<path d="M147.18 308.3C152.097 303.382 152.097 295.409 147.18 290.491C142.262 285.574 134.289 285.574 129.371 290.491C124.453 295.409 124.453 303.382 129.371 308.3C134.289 313.218 142.262 313.218 147.18 308.3Z" fill="#251D18"/>
<path d="M92.3478 374.486L59.6279 368.55" stroke="white" stroke-width="1.80225" stroke-miterlimit="10" stroke-linecap="round"/>
<path d="M442.03 225.821L441.831 207.655C441.808 206.149 441.253 204.7 440.265 203.563C439.277 202.427 437.919 201.676 436.431 201.444L435.177 201.248C434.829 201.194 434.496 201.064 434.203 200.869C433.909 200.673 433.662 200.416 433.479 200.115C433.295 199.813 433.179 199.476 433.139 199.125C433.1 198.775 433.137 198.42 433.248 198.086L436.976 186.866C437.241 186.073 437.762 185.391 438.457 184.926C439.152 184.462 439.983 184.243 440.817 184.303L442.948 184.515C444.039 184.625 445.088 184.994 446.007 185.592C446.925 186.19 447.687 187 448.228 187.954L451.155 192.247C452.333 193.977 453.042 195.984 453.212 198.071C453.382 200.158 453.006 202.253 452.122 204.151L442.03 225.821Z" fill="#B4702F"/>
<path d="M436.996 188.06L441.704 188.509C443.052 188.638 444.297 189.288 445.172 190.321L447.972 193.616" stroke="#251D18" stroke-width="1.43981" stroke-miterlimit="10" stroke-linecap="round"/>
<path d="M435.862 191.957L440.694 192.419C441.97 192.543 443.154 193.136 444.019 194.082L446.619 196.895" stroke="#251D18" stroke-width="1.43981" stroke-miterlimit="10" stroke-linecap="round"/>
<path d="M434.738 195.854L439.523 196.313C440.827 196.437 442.036 197.048 442.908 198.025L444.664 199.991" stroke="#251D18" stroke-width="1.43981" stroke-miterlimit="10" stroke-linecap="round"/>
<path d="M144.745 263.459L140.997 276.473C140.375 278.633 138.947 280.472 137.008 281.609C135.07 282.746 132.768 283.096 130.58 282.585L121.838 280.54C120.308 280.182 118.913 279.392 117.818 278.264C116.724 277.137 115.976 275.719 115.663 274.179L115.257 272.164C115.217 271.966 115.222 271.762 115.273 271.566C115.324 271.371 115.418 271.19 115.549 271.036C115.68 270.883 115.844 270.761 116.029 270.681C116.214 270.6 116.415 270.563 116.617 270.571L118.23 270.644C119.064 270.681 119.898 270.552 120.682 270.266C121.467 269.98 122.187 269.541 122.802 268.976C123.417 268.411 123.914 267.729 124.265 266.971C124.616 266.214 124.814 265.394 124.847 264.559L125.076 258.906L144.745 263.459Z" fill="#B4702F"/>
<path d="M125.069 258.906L144.745 263.459L143.454 267.948L125.069 258.906Z" fill="#251D18"/>
<path d="M238.577 136.339C242.375 137.794 246.544 137.97 250.451 136.842C254.359 135.714 257.792 133.343 260.231 130.088L273.335 112.598L300.149 136.376L286.766 177.319L275.962 158.675C272.117 152.037 266.114 146.917 258.954 144.167L238.577 136.339Z" fill="#B4702F"/>
<path d="M314.601 81.5406C315.251 81.5744 315.873 81.8193 316.371 82.2383C316.87 82.6572 317.218 83.2274 317.363 83.8622C317.508 84.497 317.443 85.1618 317.176 85.7558C316.909 86.3498 316.455 86.8406 315.884 87.1536L308.29 91.4231C305.722 93.4736 302.634 94.7692 299.372 95.165C296.11 95.5608 292.802 95.0412 289.818 93.6643C290.683 94.2676 291.389 95.071 291.877 96.006C292.364 96.941 292.619 97.98 292.618 99.0345V105.888C292.618 108 291.864 110.043 290.493 111.65L287.833 114.776V121.017C287.831 122.348 288.252 123.645 289.035 124.72C289.818 125.796 290.922 126.595 292.189 127.003L302.497 129.995C303.624 126.69 306.298 123.126 309.66 122.165L316.333 121.283L316.024 132.522C315.996 133.5 315.751 134.46 315.307 135.331C314.862 136.202 314.229 136.964 313.453 137.56C312.678 138.156 311.779 138.572 310.822 138.777C309.866 138.983 308.876 138.972 307.924 138.747L289.702 133.37C288.099 132.828 286.705 131.8 285.713 130.43C284.721 129.059 284.18 127.414 284.165 125.722V117.02C284.165 116.062 283.977 115.114 283.61 114.229C283.243 113.343 282.706 112.539 282.029 111.862C281.351 111.184 280.547 110.647 279.662 110.28C278.777 109.914 277.828 109.725 276.87 109.725H275.397C273.535 109.73 271.746 110.447 270.396 111.729C269.045 113.011 268.236 114.76 268.134 116.619C268.031 118.478 268.643 120.306 269.845 121.728C271.046 123.15 272.746 124.059 274.595 124.269L275.357 124.476L271.513 124.579C269.082 124.642 266.725 123.742 264.954 122.077C263.182 120.411 262.14 118.114 262.053 115.684L261.551 101.655C261.398 89.3216 270.313 83.0137 279.816 81.1516C282.895 80.2771 314.601 81.5406 314.601 81.5406Z" fill="#251D18"/>
<path d="M284.169 117.02V124.336L274.599 124.276C272.749 124.066 271.049 123.157 269.848 121.735C268.647 120.312 268.034 118.485 268.137 116.626C268.239 114.767 269.049 113.017 270.399 111.736C271.749 110.454 273.538 109.737 275.4 109.732H276.873C278.807 109.732 280.662 110.499 282.029 111.866C283.397 113.233 284.167 115.087 284.169 117.02Z" fill="#B4702F"/>
<path d="M275.098 114.566C276.304 114.566 277.461 115.046 278.314 115.899C279.167 116.752 279.647 117.909 279.647 119.115" stroke="#251D18" stroke-width="1.80225" stroke-miterlimit="10" stroke-linecap="round"/>
<path d="M275.965 118.217L278.213 115.803" stroke="#251D18" stroke-width="1.80225" stroke-miterlimit="10" stroke-linecap="round"/>
<path d="M316.649 109.482C316.596 111.418 317.227 113.805 318.434 115.335L320.39 117.782C320.555 117.99 320.667 118.236 320.715 118.498C320.763 118.759 320.745 119.029 320.664 119.282C320.583 119.535 320.44 119.765 320.249 119.95C320.058 120.135 319.824 120.27 319.568 120.342L316.336 121.264L309.663 122.158C306.301 123.119 303.627 126.684 302.5 129.989L292.192 126.996C290.925 126.589 289.821 125.79 289.038 124.714C288.255 123.638 287.834 122.341 287.836 121.011V114.776L290.496 111.65C291.867 110.044 292.621 108 292.621 105.888V99.0347C292.622 97.9802 292.367 96.9412 291.88 96.0062C291.392 95.0712 290.686 94.2678 289.821 93.6645C292.805 95.0414 296.113 95.561 299.375 95.1652C302.637 94.7694 305.725 93.4738 308.293 91.4233L314.298 88.0482C315.758 89.7811 316.682 91.9011 316.958 94.15L316.649 109.482Z" fill="#B4702F"/>
<path d="M307.655 102.623L314.324 101.542L314.693 103.816C314.743 104.124 314.732 104.439 314.66 104.742C314.589 105.046 314.458 105.332 314.275 105.585C314.093 105.838 313.863 106.052 313.597 106.216C313.332 106.38 313.037 106.49 312.73 106.54L305.243 107.754L305.006 106.297C304.939 105.882 304.954 105.457 305.051 105.048C305.147 104.639 305.324 104.253 305.57 103.911C305.816 103.57 306.126 103.281 306.484 103.06C306.842 102.839 307.24 102.691 307.655 102.623Z" fill="#251D18"/>
<path d="M309.789 112.472C310.529 112.472 311.129 111.747 311.129 110.852C311.129 109.958 310.529 109.233 309.789 109.233C309.049 109.233 308.449 109.958 308.449 110.852C308.449 111.747 309.049 112.472 309.789 112.472Z" fill="#251D18"/>
<path d="M316.183 127.335C314.664 127.335 312.825 125.812 312.888 124.559" stroke="#B4702F" stroke-width="1.43981" stroke-miterlimit="10"/>
</svg>
