<svg width="483" height="459" viewBox="0 0 483 459" fill="none" xmlns="http://www.w3.org/2000/svg">
<path d="M15.9243 79.0925L60.0563 32.613C74.9018 19.457 94.0518 12.194 113.888 12.1963H170.213C178.245 12.1956 186.056 14.8245 192.452 19.6813L219.882 40.497C225.837 45.0237 233.111 47.4763 240.591 47.4799H296.511C304.143 47.4802 311.636 49.5256 318.211 53.4033C324.785 57.281 330.2 62.8494 333.893 69.5293L377.453 148.303C380.609 154.012 385.237 158.771 390.855 162.085C396.474 165.399 402.878 167.147 409.401 167.147H423.393C434.104 167.147 440.019 179.58 433.263 187.896L374.739 259.94C372.45 262.759 370.908 266.11 370.257 269.682C369.606 273.255 369.867 276.934 371.015 280.38L381.812 312.757C384.22 319.978 383.972 327.821 381.114 334.876C378.256 341.93 372.975 347.734 366.22 351.243L352.417 358.409C346.544 361.453 341.959 366.506 339.499 372.647L323.634 412.317C318.23 425.835 308.897 437.423 296.842 445.584C284.787 453.746 270.562 458.107 256.003 458.105H249.14C245.538 458.104 242.008 457.097 238.947 455.198C235.887 453.298 233.418 450.582 231.819 447.354L187.471 357.883C184.886 352.67 183.702 346.873 184.038 341.064C184.373 335.254 186.215 329.632 189.383 324.751L192.426 320.066C196.775 313.363 198.704 305.376 197.891 297.427C197.078 289.478 193.573 282.046 187.956 276.363L167.673 255.85C164.655 251.783 162.881 246.929 162.564 241.875C162.248 236.821 163.403 231.784 165.891 227.373L171.424 217.563C172.227 216.139 172.644 214.529 172.632 212.894C172.621 211.258 172.181 209.654 171.356 208.242C170.532 206.829 169.352 205.657 167.934 204.842C166.516 204.028 164.909 203.598 163.274 203.598H72.0569C32.261 203.598 0 171.32 0 131.508V118.982C0.00172355 104.136 5.7019 89.8577 15.9243 79.0925Z" fill="#E2E3DE"/>
<path d="M430.343 327.192L430.416 327.342C431.564 329.677 432.224 332.221 432.354 334.82C432.484 337.419 432.083 340.017 431.174 342.455L411.928 394.098C411.088 396.35 409.58 398.292 407.606 399.663C405.632 401.034 403.285 401.769 400.882 401.769C397.756 401.769 394.759 400.528 392.549 398.318C390.339 396.108 389.097 393.11 389.097 389.985V348.753C389.097 346.484 389.632 344.248 390.659 342.225C391.686 340.203 393.177 338.452 395.009 337.114L414.109 323.182C415.397 322.243 416.875 321.598 418.438 321.291C420.002 320.984 421.613 321.023 423.16 321.405C424.707 321.787 426.152 322.503 427.393 323.503C428.633 324.503 429.64 325.762 430.343 327.192Z" fill="#E2E3DE"/>
<path d="M331.151 248.097H432.423V256.124C432.423 262.773 431.113 269.358 428.569 275.501C426.024 281.645 422.294 287.227 417.592 291.929C412.89 296.631 407.308 300.361 401.165 302.905C395.021 305.45 388.437 306.76 381.787 306.76C375.137 306.76 368.552 305.45 362.409 302.905C356.265 300.36 350.683 296.63 345.981 291.928C341.279 287.225 337.549 281.643 335.005 275.499C332.46 269.355 331.151 262.77 331.151 256.121V248.097Z" fill="#B15EFF"/>
<path d="M381.775 256.081C409.74 256.081 432.411 252.506 432.411 248.097C432.411 243.688 409.74 240.113 381.775 240.113C353.809 240.113 331.139 243.688 331.139 248.097C331.139 252.506 353.809 256.081 381.775 256.081Z" fill="#251D18"/>
<path d="M474.694 351.418L425.98 363.336L417.73 313.039C407.904 312.843 403.794 306.984 402.654 301.474L394.843 263.803C394.807 263.629 394.81 263.449 394.852 263.276C394.893 263.104 394.973 262.942 395.084 262.803C395.195 262.665 395.335 262.552 395.495 262.474C395.654 262.395 395.829 262.353 396.007 262.35L398.783 262.307C400.185 262.284 401.566 262.644 402.778 263.347C403.991 264.05 404.989 265.07 405.666 266.297L410.83 275.684L415.918 259.912C416.103 259.34 416.147 258.731 416.046 258.138C415.946 257.544 415.704 256.984 415.34 256.504C414.977 256.025 414.504 255.64 413.96 255.382C413.416 255.124 412.818 255.002 412.217 255.024L402.481 255.387L407.136 247.892C407.939 246.596 409.06 245.527 410.392 244.786C411.724 244.045 413.223 243.655 414.747 243.656L426.432 244.071L424.676 230.458C424.648 230.243 424.635 230.026 424.636 229.809C424.638 228.626 425.055 227.48 425.815 226.573C426.576 225.666 427.631 225.056 428.796 224.848C429.004 224.809 429.219 224.846 429.401 224.951C429.584 225.057 429.724 225.224 429.794 225.424L440.97 257.226L474.694 351.418Z" fill="#B4702F"/>
<path d="M395.61 264.804C396.048 264.701 396.503 264.687 396.946 264.763C397.39 264.839 397.814 265.003 398.193 265.245C398.572 265.487 398.899 265.804 399.154 266.175C399.409 266.545 399.587 266.964 399.677 267.405C399.767 267.846 399.768 268.3 399.68 268.742C399.591 269.183 399.415 269.602 399.162 269.974C398.909 270.346 398.583 270.663 398.205 270.908C397.827 271.152 397.404 271.317 396.96 271.395" stroke="#251D18" stroke-width="1.61937" stroke-miterlimit="10" stroke-linecap="round"/>
<path d="M411.212 275.685L416.057 285.65" stroke="#251D18" stroke-width="1.97849" stroke-miterlimit="10" stroke-linecap="round"/>
<path d="M429.009 225.627C427.678 226.143 426.964 227.553 427.432 228.776C427.901 230 429.371 230.572 430.711 230.057" stroke="#251D18" stroke-width="1.61937" stroke-miterlimit="10" stroke-linecap="round"/>
<path d="M434.964 251.104C433.71 246.851 429.996 244.238 425.583 243.825L413.28 242.931" stroke="#251D18" stroke-width="1.97849" stroke-miterlimit="10" stroke-linecap="round"/>
<path d="M476.103 354.162L482.923 372.208L425.407 373.092L424.626 368.517L416.632 370.745L415.848 349.025L478.275 340.419L482.923 352.26L476.103 354.162Z" fill="#FFDEDF"/>
<path d="M453.775 360.391L424.626 368.517L425.404 373.09L453.775 360.391Z" fill="#251D18"/>
<path d="M342.721 274.65L342.671 274.956C341.55 278.427 321.413 281.33 294.123 282.271C288.068 282.481 281.657 282.604 275.027 282.604C272.045 282.604 269.111 282.582 266.225 282.537C233.841 282.045 208.639 278.88 207.369 274.969L207.319 274.663C207.319 270.277 237.625 266.723 275.01 266.723C312.395 266.723 342.721 270.264 342.721 274.65Z" fill="#251D18"/>
<path d="M244.724 277.783C246.889 277.783 248.644 276.028 248.644 273.863C248.644 271.697 246.889 269.942 244.724 269.942C242.559 269.942 240.804 271.697 240.804 273.863C240.804 276.028 242.559 277.783 244.724 277.783Z" fill="white"/>
<path d="M295.145 283.29C289.089 283.5 282.678 283.623 276.048 283.623C273.055 283.623 270.126 283.599 267.246 283.556C267.758 276.952 273.813 271.738 281.212 271.738C288.504 271.728 294.499 276.809 295.145 283.29Z" fill="white"/>
<path d="M310.024 292.807C314.911 292.807 318.873 289.162 318.873 284.667C318.873 280.171 314.911 276.527 310.024 276.527C305.137 276.527 301.176 280.171 301.176 284.667C301.176 289.162 305.137 292.807 310.024 292.807Z" fill="white"/>
<path d="M342.672 274.956L340.281 289.587C337.752 305.07 329.8 319.149 317.846 329.309C305.892 339.469 290.715 345.048 275.027 345.048C259.339 345.048 244.162 339.469 232.208 329.309C220.254 319.149 212.302 305.07 209.774 289.587L207.386 274.956C208.64 278.853 233.841 282.032 266.242 282.524C269.124 282.566 272.058 282.588 275.044 282.591C281.674 282.591 288.085 282.478 294.14 282.258C321.414 281.33 341.551 278.427 342.672 274.956Z" fill="#FFA33C"/>
<path d="M203.205 388.847V349.882C203.206 338.249 207.779 327.081 215.938 318.788L248.83 285.354C249.025 285.155 249.26 285.001 249.519 284.902C249.778 284.803 250.056 284.76 250.333 284.778C250.61 284.796 250.88 284.873 251.124 285.004C251.369 285.136 251.582 285.318 251.75 285.54L251.88 285.709C252.772 286.889 253.335 288.285 253.511 289.754C253.686 291.223 253.467 292.712 252.877 294.069L248.687 305.348C248.416 306.077 248.349 306.866 248.495 307.63C248.64 308.394 248.993 309.104 249.514 309.681C250.034 310.259 250.704 310.683 251.448 310.907C252.193 311.131 252.985 311.146 253.738 310.951L306.493 297.241C307.294 296.989 308.162 297.05 308.921 297.411C309.68 297.773 310.273 298.408 310.583 299.19L310.612 299.263C310.938 300.078 310.939 300.988 310.613 301.803C310.288 302.619 309.661 303.278 308.863 303.645C304.338 305.72 296.198 309.465 296.198 309.465L315.151 303.207C316.076 302.905 317.081 302.974 317.956 303.397C318.831 303.82 319.509 304.566 319.847 305.478L319.88 305.564C320.225 306.491 320.202 307.515 319.816 308.426C319.43 309.336 318.711 310.065 317.805 310.462C311.793 313.096 299.746 318.393 299.556 318.476L313.655 314.116C314.457 313.869 315.324 313.931 316.082 314.291C316.841 314.65 317.438 315.281 317.755 316.058L317.782 316.132C318.104 316.911 318.129 317.783 317.851 318.58C317.574 319.377 317.013 320.044 316.275 320.454L294.186 332.758C294.026 332.849 293.901 332.993 293.834 333.165C293.767 333.337 293.76 333.526 293.816 333.703C293.872 333.879 293.986 334.03 294.14 334.132C294.294 334.235 294.478 334.281 294.662 334.264L311.554 332.555C314.234 332.282 315.125 336.043 312.608 337.004L253.346 359.615C252.512 359.933 251.814 360.529 251.371 361.304C250.928 362.078 250.767 362.982 250.915 363.861L254.799 386.958L203.205 388.847Z" fill="#B4702F"/>
<path d="M299.636 308.384L284.852 313.006" stroke="#251D18" stroke-width="1.97849" stroke-miterlimit="10" stroke-linecap="round"/>
<path d="M301.182 317.981L288.978 321.798" stroke="#251D18" stroke-width="1.97849" stroke-miterlimit="10" stroke-linecap="round"/>
<path d="M309.313 301.817C310.105 301.025 310.105 299.741 309.313 298.949C308.521 298.157 307.237 298.157 306.445 298.949C305.652 299.741 305.652 301.025 306.445 301.817C307.237 302.609 308.521 302.609 309.313 301.817Z" stroke="#251D18" stroke-width="1.61937" stroke-miterlimit="10" stroke-linecap="round"/>
<path d="M317.252 317.755C317.509 316.665 316.834 315.572 315.744 315.315C314.653 315.058 313.561 315.733 313.304 316.823C313.046 317.913 313.722 319.006 314.812 319.263C315.902 319.521 316.995 318.845 317.252 317.755Z" stroke="#251D18" stroke-width="1.61937" stroke-miterlimit="10" stroke-linecap="round"/>
<path d="M313.462 335.176C313.662 334.327 313.137 333.476 312.288 333.276C311.439 333.075 310.588 333.601 310.388 334.45C310.187 335.299 310.713 336.15 311.562 336.35C312.411 336.55 313.262 336.025 313.462 335.176Z" stroke="#251D18" stroke-width="1.43981" stroke-miterlimit="10" stroke-linecap="round"/>
<path d="M319.254 307.126C319.554 305.854 318.766 304.578 317.494 304.278C316.221 303.978 314.946 304.766 314.646 306.038C314.345 307.311 315.133 308.586 316.406 308.886C317.678 309.187 318.954 308.399 319.254 307.126Z" stroke="#251D18" stroke-width="1.61937" stroke-miterlimit="10" stroke-linecap="round"/>
<path d="M249.748 285.264C250.363 285.954 250.7 286.849 250.692 287.773C250.684 288.698 250.333 289.586 249.706 290.266C249.079 290.946 248.222 291.368 247.301 291.451C246.38 291.534 245.462 291.271 244.724 290.714" stroke="#251D18" stroke-width="1.61937" stroke-miterlimit="10" stroke-linecap="round"/>
<path d="M269.303 427.685C269.303 432.849 254.204 437.038 235.579 437.038C221.976 437.038 210.251 434.804 204.921 431.585C202.953 430.398 201.855 429.078 201.855 427.685V395.098H193.981L198.111 372.992L260.764 381.345L264.346 395.098H258.995L269.131 426.687L269.234 427.02C269.258 427.11 269.276 427.203 269.29 427.296C269.304 427.425 269.308 427.555 269.303 427.685Z" fill="#B15EFF"/>
<path d="M258.989 395.091H213.743L260.811 400.77L258.989 395.091Z" fill="#251D18"/>
<path d="M179.254 227.285C179.261 227.345 179.261 227.405 179.254 227.465C178.51 230.966 156.065 233.782 128.482 233.782C100.9 233.782 78.4546 230.973 77.713 227.465C77.6998 227.406 77.6931 227.345 77.6931 227.285C77.6915 227.268 77.6915 227.252 77.6931 227.235C77.6897 227.221 77.6897 227.206 77.6931 227.192C78.0821 223.651 100.67 220.794 128.475 220.794C156.281 220.794 178.869 223.651 179.261 227.192C179.263 227.206 179.263 227.221 179.261 227.235L179.254 227.285Z" fill="#251D18"/>
<path d="M123.631 234.15C126.89 240.056 124.928 247.361 119.232 250.317C113.931 253.067 107.185 250.982 103.936 245.556C101.249 241.076 101.658 235.696 104.481 232.012C104.924 231.41 105.182 230.692 105.225 229.946C105.268 229.2 105.094 228.458 104.724 227.809L77.7267 178.872C77.1514 177.831 77.4308 176.508 78.3917 175.946C78.638 175.813 78.9085 175.73 79.1872 175.703C79.4658 175.675 79.7472 175.704 80.0148 175.786C80.2823 175.869 80.5307 176.004 80.7453 176.184C80.9599 176.364 81.1365 176.585 81.2647 176.834L108.269 225.781C108.617 226.443 109.152 226.99 109.807 227.352C110.463 227.714 111.21 227.876 111.956 227.819C116.498 227.337 121.184 229.711 123.631 234.15Z" fill="#FFA33C"/>
<path d="M179.238 227.464L178.526 235.398C176.671 261.667 166.888 282.054 128.459 282.054C84.3834 282.054 80.2436 261.68 78.3914 235.398L77.6898 227.464C78.4313 230.965 100.876 233.782 128.459 233.782C156.041 233.782 178.493 230.965 179.238 227.464Z" fill="#FFDEDF"/>
<path d="M139.316 298.922V354.575C139.316 360.538 129.071 367.085 116.279 369.269C103.813 371.394 93.4819 368.604 92.614 362.995L96.6042 306.886L70.6976 286.752C69.1326 285.312 67.9264 283.527 67.1758 281.537C66.4251 279.548 66.1508 277.411 66.3749 275.296C67.7282 262.478 70.5846 240.049 71.3627 232.77C71.3876 232.546 71.4611 232.329 71.578 232.136C71.6948 231.943 71.8523 231.777 72.0395 231.65C72.2268 231.524 72.4393 231.44 72.6623 231.403C72.8853 231.367 73.1135 231.38 73.3312 231.44L73.4343 231.47C75.2636 231.979 76.9028 233.015 78.1475 234.449C79.3922 235.883 80.1873 237.651 80.4338 239.534L83.8222 260.875C83.9822 262.089 84.5965 263.198 85.5413 263.977L88.6105 266.501C88.1174 266.044 87.724 265.49 87.4551 264.874C87.1861 264.257 87.0474 263.592 87.0476 262.92V260.366C87.0472 260.055 87.1243 259.748 87.272 259.474C87.4197 259.2 87.6334 258.967 87.8938 258.796C88.1541 258.625 88.4529 258.521 88.7633 258.495C89.0736 258.468 89.3856 258.519 89.6712 258.644L122.155 272.746C127.255 274.962 131.596 278.62 134.645 283.271C137.694 287.921 139.318 293.361 139.316 298.922Z" fill="#B4702F"/>
<path d="M87.8025 266.705L106.966 281.559" stroke="#251D18" stroke-width="1.97849" stroke-miterlimit="10" stroke-linecap="round"/>
<path d="M71.9219 233.323C72.3811 233.36 72.8283 233.488 73.237 233.701C73.6458 233.913 74.0077 234.206 74.3015 234.561C74.5952 234.915 74.8148 235.326 74.9472 235.767C75.0796 236.208 75.1221 236.672 75.0723 237.13C75.0225 237.588 74.8813 238.031 74.6571 238.433C74.4329 238.836 74.1302 239.189 73.7671 239.473C73.4039 239.756 72.9875 239.964 72.5426 240.084C72.0978 240.203 71.6334 240.233 71.177 240.17" stroke="#251D18" stroke-width="1.61937" stroke-miterlimit="10" stroke-linecap="round"/>
<path d="M96.4453 262.157C96.2532 262.61 95.9738 263.02 95.6231 263.365C95.2723 263.709 94.8572 263.982 94.4013 264.166C93.9454 264.35 93.4577 264.443 92.966 264.438C92.4743 264.434 91.9883 264.333 91.5357 264.141C91.0831 263.949 90.6727 263.669 90.3281 263.318C89.9835 262.968 89.7113 262.553 89.5271 262.097C89.3429 261.641 89.2504 261.153 89.2547 260.661C89.259 260.17 89.3601 259.684 89.5522 259.231" stroke="#251D18" stroke-width="1.61937" stroke-miterlimit="10" stroke-linecap="round"/>
<path d="M142.283 371.653L142.349 373.315C141.242 378.682 127.02 380.478 112.073 377.402C97.4423 374.389 85.9804 367.686 86.5191 362.369L86.5723 362.036L90.5991 335.435L84.3976 334.208L89.259 322.51L144.88 331.82L146.273 346.451L141.212 345.453L142.283 371.653Z" fill="#FFA33C"/>
<path d="M141.205 345.425L117.164 340.667L141.478 352.102L141.205 345.425Z" fill="#251D18"/>
<path d="M327.362 170.657L254.65 2" stroke="#251D18" stroke-width="2.41741" stroke-miterlimit="10" stroke-linecap="round"/>
<path d="M335.748 187.46C335.747 195.349 333.022 202.996 328.035 209.108C323.047 215.22 316.102 219.423 308.374 221.007C300.646 222.591 292.607 221.458 285.618 217.8C278.628 214.141 273.116 208.183 270.012 200.93C266.908 193.677 266.403 185.575 268.582 177.993C270.762 170.411 275.492 163.814 281.973 159.316C288.454 154.819 296.29 152.696 304.155 153.308C312.02 153.92 319.433 157.228 325.141 162.674C328.494 165.873 331.163 169.719 332.986 173.979C334.809 178.24 335.749 182.826 335.748 187.46Z" fill="#B15EFF"/>
<path d="M304.415 198.867C291.271 205.045 277.371 204.643 269.135 198.737C266.591 191.474 266.567 183.566 269.067 176.288C271.567 169.009 276.445 162.785 282.916 158.619C289.386 154.452 297.071 152.586 304.731 153.322C312.392 154.057 319.582 157.351 325.141 162.672C325.181 162.756 325.221 162.835 325.258 162.918C330.821 174.74 321.487 190.837 304.415 198.867Z" fill="#251D18"/>
<path d="M253.396 204.238C253.396 199.662 254.589 195.165 256.858 191.191C259.126 187.217 262.393 183.904 266.333 181.578C270.274 179.252 274.754 177.994 279.329 177.929C283.905 177.863 288.418 178.993 292.424 181.205L308.302 194.15C303.899 198.323 294.582 199.646 290.698 201.276C287.107 202.782 284.78 207.231 284.78 211.125V282.111C282.296 282.111 279.845 282.607 277.431 282.573C268.832 282.44 260.719 282.573 253.4 282.124L253.396 204.238Z" fill="white"/>
<path d="M249.287 212.142V236.678" stroke="white" stroke-width="1.63267" stroke-miterlimit="10" stroke-linecap="round"/>
<path d="M442.806 61.182L322.59 24.3555C317.943 22.9352 313.049 22.507 308.226 23.0985L258.7 29.2003C258.048 29.2801 257.428 29.5307 256.904 29.9267C256.379 30.3228 255.969 30.8502 255.713 31.4557C255.458 32.0613 255.367 32.7235 255.449 33.3755C255.532 34.0274 255.785 34.6461 256.183 35.169C257.632 37.0734 259.469 38.6484 261.572 39.7897C263.675 40.931 265.997 41.6126 268.383 41.7894L292.451 43.5751C292.677 43.5823 292.895 43.6664 293.067 43.8135C293.239 43.9607 293.356 44.1621 293.399 44.3847C293.441 44.6072 293.407 44.8377 293.301 45.038C293.195 45.2384 293.024 45.3968 292.817 45.487L264.157 59.4529L265.686 53.5407C265.889 52.7545 265.91 51.9324 265.746 51.1371C265.582 50.3419 265.238 49.5947 264.741 48.9528C264.244 48.3109 263.607 47.7913 262.878 47.4338C262.149 47.0763 261.348 46.8904 260.536 46.8903C259.585 46.8904 258.651 47.1379 257.825 47.6084C256.998 48.0788 256.309 48.7561 255.824 49.5737L247.478 63.636C246.14 65.8888 245.646 68.5436 246.085 71.1267C246.523 73.7097 247.866 76.0529 249.872 77.7381L285.352 107.542C288.598 110.268 292.543 112.03 296.741 112.628C300.938 113.226 305.218 112.635 309.097 110.924L345.341 94.916L424.182 138.952C424.182 138.952 458.401 106.664 442.806 61.182Z" fill="#B4702F"/>
<path d="M265.084 59.9121L260.053 79.7635C259.271 83.1586 259.567 84.9575 262.234 87.1987" stroke="#251D18" stroke-width="2.04499" stroke-miterlimit="10" stroke-linecap="round"/>
<path d="M262.235 87.199C261.427 86.5204 260.784 85.6667 260.355 84.7026C259.926 83.7386 259.723 82.6895 259.76 81.635C259.797 80.5805 260.074 79.5484 260.57 78.6169C261.065 77.6854 261.767 76.8791 262.62 76.2591L286.409 58.9681C287.12 58.4515 287.97 58.1602 288.848 58.1317C289.727 58.1032 290.594 58.339 291.337 58.8085V58.8085C291.846 59.1312 292.284 59.5554 292.622 60.0547C292.96 60.554 293.192 61.1176 293.303 61.7104C293.414 62.3032 293.401 62.9125 293.266 63.5002C293.131 64.0879 292.876 64.6415 292.517 65.1264L287.529 71.8034" stroke="#251D18" stroke-width="2.04499" stroke-miterlimit="10" stroke-linecap="round"/>
<path d="M274.348 97.3692C273.5 96.6571 272.808 95.7767 272.318 94.7837C271.827 93.7907 271.548 92.7067 271.498 91.6003C271.448 90.4939 271.628 89.3892 272.027 88.356C272.426 87.3228 273.035 86.3837 273.816 85.598L295.001 64.2735C295.82 63.4475 296.902 62.9339 298.06 62.8216C299.218 62.7093 300.379 63.0052 301.342 63.6583V63.6583C302.404 64.3758 303.15 65.4749 303.424 66.7275C303.697 67.9801 303.478 69.29 302.811 70.3852L289.9 91.6664" stroke="#251D18" stroke-width="2.04499" stroke-miterlimit="10" stroke-linecap="round"/>
<path d="M287.261 108.227C286.391 107.494 285.674 106.596 285.153 105.585C284.632 104.573 284.315 103.469 284.223 102.335C284.13 101.201 284.262 100.06 284.613 98.9773C284.963 97.8948 285.524 96.8922 286.263 96.0273L299.803 80.1728C300.486 79.377 301.429 78.8492 302.464 78.6836C303.499 78.518 304.559 78.7252 305.456 79.2684C306.365 79.8236 307.044 80.6881 307.367 81.7033C307.69 82.7185 307.636 83.8162 307.215 84.7948L298.57 104.919" stroke="#251D18" stroke-width="2.04499" stroke-miterlimit="10" stroke-linecap="round"/>
<path d="M267.908 29.2964C267.984 29.9549 267.93 30.6219 267.748 31.2595C267.567 31.897 267.261 32.4925 266.849 33.012C266.438 33.5315 265.928 33.9649 265.348 34.2872C264.769 34.6096 264.132 34.8148 263.474 34.891C262.815 34.9672 262.148 34.913 261.511 34.7314C260.873 34.5498 260.278 34.2444 259.758 33.8326C259.239 33.4209 258.805 32.9108 258.483 32.3316C258.16 31.7524 257.955 31.1154 257.879 30.4569" stroke="#251D18" stroke-width="2.04499" stroke-miterlimit="10" stroke-linecap="round"/>
<path d="M293.838 44.5064C293.838 44.5064 306.826 59.9919 327.13 62.4292" stroke="#251D18" stroke-width="2.04499" stroke-miterlimit="10" stroke-linecap="round"/>
<path d="M345.344 94.9124L357.365 86.7922" stroke="#251D18" stroke-width="2.04499" stroke-miterlimit="10" stroke-linecap="round"/>
<path d="M260.911 54.4574C262.705 54.4574 264.16 53.0029 264.16 51.2087C264.16 49.4145 262.705 47.96 260.911 47.96C259.117 47.96 257.662 49.4145 257.662 51.2087C257.662 53.0029 259.117 54.4574 260.911 54.4574Z" stroke="#251D18" stroke-width="1.85878" stroke-miterlimit="10" stroke-linecap="round"/>
<path d="M290.494 64.9062C292.152 64.2195 292.939 62.3191 292.252 60.6615C291.566 59.0039 289.665 58.2167 288.008 58.9033C286.35 59.5899 285.563 61.4903 286.249 63.148C286.936 64.8056 288.836 65.5928 290.494 64.9062Z" stroke="#251D18" stroke-width="1.85878" stroke-miterlimit="10" stroke-linecap="round"/>
<path d="M302.726 67.4295C303.047 65.45 301.703 63.5849 299.723 63.2636C297.744 62.9423 295.879 64.2864 295.557 66.2659C295.236 68.2454 296.58 70.1106 298.56 70.432C300.539 70.7533 302.404 69.409 302.726 67.4295Z" stroke="#251D18" stroke-width="1.85878" stroke-miterlimit="10" stroke-linecap="round"/>
<path d="M303.537 85.8675C305.331 85.8675 306.785 84.413 306.785 82.6188C306.785 80.8246 305.331 79.3701 303.537 79.3701C301.742 79.3701 300.288 80.8246 300.288 82.6188C300.288 84.413 301.742 85.8675 303.537 85.8675Z" stroke="#251D18" stroke-width="1.85878" stroke-miterlimit="10" stroke-linecap="round"/>
<path d="M433.808 51.8287L449.619 50.9043L448.409 155.977L418.585 145.802L433.808 51.8287Z" fill="#FFA33C"/>
<path d="M429.811 73.6486L420.065 136.654L413.934 133.229L429.811 73.6486Z" fill="#251D18"/>
<path d="M276.317 52.3272L280.663 62.3793" stroke="#251D18" stroke-width="2.44734" stroke-miterlimit="10" stroke-linecap="round"/>
<path d="M306.656 122.762L299.204 105.232" stroke="#251D18" stroke-width="2.28441" stroke-miterlimit="10" stroke-linecap="round"/>
</svg>
