<svg width="617" height="422" viewBox="0 0 617 422" fill="none" xmlns="http://www.w3.org/2000/svg">
<path d="M98.7085 96.63C98.7085 59.7902 129.756 29.9266 168.079 29.9266C206.401 29.9266 237.449 59.7902 237.449 96.63H98.7085Z" fill="#EDEEEA" fill-opacity="0.88"/>
<path d="M25.3448 130.384C28.4373 109.851 54.0479 83.9412 85.8102 79.0432C111.959 75.0097 136.104 86.8042 146.661 98.2661C145.659 95.0597 145.15 91.7197 145.152 88.3603C145.152 67.7774 164.059 51.0916 187.381 51.0916C198.218 51.0916 208.104 54.6961 215.576 60.6183C217.83 26.7445 244.911 0 277.986 0C312.535 0 340.546 29.1885 340.546 65.1937C340.548 68.1725 340.354 71.1483 339.968 74.1019C348.817 68.1683 359.241 65.0226 369.895 65.0707C397.903 65.0707 420.607 86.0527 420.607 111.936C420.609 118.311 419.214 124.609 416.52 130.387L25.3448 130.384Z" fill="#E2E3DE"/>
<path d="M595.699 56.2857H448.363C445.489 51.3757 443.979 45.7877 443.987 40.0987C443.987 39.2474 444.02 38.404 444.086 37.5682C444.678 30.1412 447.834 23.1509 453.012 17.7942C458.19 12.4375 465.07 9.04748 472.473 8.20466C479.875 7.36183 487.341 9.11859 493.591 13.1741C499.841 17.2297 504.487 23.3318 506.733 30.4357C509.542 29.6192 512.453 29.2083 515.379 29.2153C529.707 29.2153 541.402 38.8784 542.04 51.002C548.115 48.1191 556.192 46.3467 565.057 46.3467C578.484 46.36 590.112 50.4035 595.699 56.2857Z" fill="#E2E3DE"/>
<path d="M427.261 56.2854C432.328 56.2854 436.435 52.178 436.435 47.1112C436.435 42.0444 432.328 37.937 427.261 37.937C422.194 37.937 418.087 42.0444 418.087 47.1112C418.087 52.178 422.194 56.2854 427.261 56.2854Z" fill="#E2E3DE"/>
<path d="M553.475 275.791C577.084 275.791 596.224 245.252 596.224 207.581C596.224 169.91 577.084 139.372 553.475 139.372C529.865 139.372 510.726 169.91 510.726 207.581C510.726 245.252 529.865 275.791 553.475 275.791Z" fill="#E2E3DE"/>
<path d="M552.012 178.692V316.661" stroke="#B4702F" stroke-width="2.16138" stroke-miterlimit="10"/>
<path d="M552.012 233.678H555.271C557.72 233.678 560.145 233.196 562.408 232.259C564.671 231.322 566.727 229.949 568.459 228.217C570.191 226.485 571.565 224.43 572.502 222.167C573.44 219.904 573.922 217.479 573.922 215.03" stroke="#B4702F" stroke-width="2.16138" stroke-miterlimit="10"/>
<path d="M266.205 208.982V366.769H25.3415V209.028L145.773 118.749L145.86 118.686L158.685 128.309L266.205 208.982Z" fill="#B4702F"/>
<path d="M516.496 208.981H266.205V366.768H516.496V208.981Z" fill="#FFA33C"/>
<path d="M516.496 208.981V257.223L462.927 257.14L453.799 225.448L266.205 214.697V208.981H516.496Z" fill="#251D18"/>
<path d="M210.904 248.189H147.655V366.769H210.904V248.189Z" fill="#E2E3DE"/>
<path d="M145.61 366.835V248.189H210.904" stroke="#251D18" stroke-width="2.16138" stroke-miterlimit="10"/>
<path d="M157.003 248.189H145.86V366.769H157.003V248.189Z" fill="#251D18"/>
<path d="M168.079 325.26C170.879 325.26 173.15 323.018 173.15 320.252C173.15 317.486 170.879 315.244 168.079 315.244C165.278 315.244 163.008 317.486 163.008 320.252C163.008 323.018 165.278 325.26 168.079 325.26Z" stroke="#251D18" stroke-width="2.16138" stroke-miterlimit="10"/>
<path d="M522.973 208.981L400.666 117.206C395.997 113.705 390.318 111.812 384.482 111.813H136.705L266.205 208.975L522.973 208.981Z" fill="#B15EFF"/>
<path d="M145.86 118.686L25.3448 209.028L15.183 209.001C14.6195 209.007 14.0687 208.833 13.6101 208.506C13.1515 208.179 12.8087 207.714 12.6311 207.179C12.4536 206.644 12.4505 206.067 12.6223 205.53C12.794 204.993 13.1318 204.525 13.5869 204.193L136.705 111.816L145.86 118.686Z" fill="#251D18"/>
<path d="M264.908 209.63L135.409 112.464" stroke="white" stroke-width="2.46397" stroke-linecap="round" stroke-linejoin="round"/>
<path d="M103.47 248.189H54.7994V264.303H103.47V248.189Z" fill="white"/>
<path d="M103.47 264.302H54.7994V305.528H103.47V264.302Z" fill="#FFDEDF"/>
<path d="M62.9627 248.189H54.7994V305.529H62.9627V248.189Z" fill="#251D18"/>
<path d="M103.47 264.302H55.4478" stroke="#251D18" stroke-width="2.16138" stroke-miterlimit="10"/>
<path d="M358.316 248.189H308.186V305.529H358.316V248.189Z" fill="white"/>
<path d="M358.316 248.189H308.186V260.186H358.316V248.189Z" fill="#B15EFF"/>
<path d="M356.208 264.302H308.186" stroke="#251D18" stroke-width="2.16138" stroke-miterlimit="10"/>
<path d="M358.317 248.189H349.724V305.459H358.317V248.189Z" fill="#251D18"/>
<path d="M142.764 194.31C153.945 194.31 163.008 185.247 163.008 174.067C163.008 162.886 153.945 153.823 142.764 153.823C131.584 153.823 122.521 162.886 122.521 174.067C122.521 185.247 131.584 194.31 142.764 194.31Z" stroke="#251D18" stroke-width="2.16138" stroke-miterlimit="10"/>
<path d="M142.764 153.823V194.31" stroke="#251D18" stroke-width="2.16138" stroke-miterlimit="10"/>
<path d="M163.008 174.067H122.521" stroke="#251D18" stroke-width="2.16138" stroke-miterlimit="10"/>
<path d="M525.616 321.842H458.504L467.588 264.854L516.502 265.037L525.616 321.842Z" fill="#B4702F"/>
<path d="M472.394 268.505L467.589 264.854L516.506 265.037L518.66 278.467L472.394 268.505Z" fill="#251D18"/>
<path d="M493.039 321.462L497.954 291.642L506.862 289.733" stroke="white" stroke-width="2.28441" stroke-linecap="round" stroke-linejoin="round"/>
<path d="M507.763 269.364H475.485C472.145 269.378 468.924 268.124 466.473 265.855C464.021 263.587 462.522 260.472 462.278 257.141L458.397 200.483C458.283 198.681 458.541 196.876 459.154 195.178C459.767 193.48 460.723 191.927 461.962 190.614C463.201 189.301 464.697 188.257 466.356 187.546C468.015 186.836 469.803 186.474 471.608 186.484H511.644C513.449 186.474 515.236 186.836 516.895 187.546C518.555 188.257 520.05 189.301 521.289 190.614C522.527 191.927 523.483 193.48 524.096 195.178C524.709 196.876 524.966 198.682 524.851 200.483L520.974 257.141C520.73 260.473 519.23 263.588 516.778 265.857C514.326 268.125 511.104 269.379 507.763 269.364Z" fill="#FFDEDF"/>
<path d="M461.928 252.03H521.931" stroke="white" stroke-width="2.28441" stroke-linecap="round" stroke-linejoin="round"/>
<path d="M460.981 230.49H524.369" stroke="white" stroke-width="2.28441" stroke-linecap="round" stroke-linejoin="round"/>
<path d="M460.894 210.821H524.718" stroke="white" stroke-width="2.28441" stroke-linecap="round" stroke-linejoin="round"/>
<path d="M510.091 187.418H477.324L478.418 182.6C478.649 181.599 479.213 180.705 480.019 180.066C480.824 179.428 481.823 179.082 482.851 179.085H504.564C505.592 179.082 506.591 179.428 507.396 180.066C508.202 180.705 508.766 181.599 508.997 182.6L510.091 187.418Z" fill="#FFA33C"/>
<path d="M507.192 159.36C508.24 162.3 503.475 170.091 503.475 170.091L491.996 171.175L490.925 161.395C489.04 161.115 487.211 160.54 485.505 159.689C480.281 157.132 477.156 152.833 478.522 150.083C479.816 147.489 484.661 147.207 489.595 149.341L507.192 159.36Z" fill="#251D18"/>
<path d="M501.1 179.076L500.635 177.413C502.723 177.377 503.877 175.93 504.352 173.822V173.792C504.484 173.197 504.497 172.582 504.391 171.982C504.284 171.382 504.06 170.809 503.731 170.296C503.403 169.783 502.976 169.34 502.475 168.993C501.974 168.646 501.41 168.401 500.814 168.272L500.286 168.152C499.374 167.952 498.423 168.014 497.546 168.332L495.417 169.107C490.912 165.851 494.227 160.102 494.227 160.102C482.539 162.337 483.197 154.143 483.197 154.143L475.909 165.286C475.803 165.445 475.731 165.623 475.696 165.81C475.66 165.997 475.663 166.189 475.703 166.375C475.743 166.561 475.821 166.737 475.93 166.893C476.04 167.048 476.179 167.181 476.341 167.281L478.669 168.748L476.673 173.373C476.008 174.843 475.769 175.551 477.505 176.891L484.268 179.096L501.1 179.076Z" fill="#B4702F"/>
<path d="M478.669 168.738L481.446 170.161C482.549 170.725 483.477 171.581 484.127 172.637C484.776 173.693 485.124 174.907 485.13 176.146V179.059L477.891 178.926C477.403 178.921 476.925 178.79 476.503 178.546C476.08 178.302 475.728 177.953 475.479 177.534C475.23 177.114 475.094 176.637 475.083 176.15C475.072 175.662 475.187 175.18 475.417 174.75L478.669 168.738Z" fill="#251D18"/>
<path d="M484.954 164.239C484.852 164.585 484.619 164.878 484.304 165.055C483.988 165.232 483.617 165.278 483.268 165.183C483.103 165.114 482.954 165.013 482.828 164.886C482.703 164.759 482.604 164.609 482.536 164.444C482.469 164.279 482.435 164.102 482.436 163.923C482.437 163.745 482.473 163.568 482.543 163.404C482.644 163.057 482.878 162.764 483.193 162.587C483.508 162.411 483.88 162.365 484.229 162.46C484.561 162.6 484.823 162.866 484.959 163.199C485.095 163.533 485.093 163.906 484.954 164.239Z" fill="#251D18"/>
<path d="M501.204 171.727C500.584 171.422 499.869 171.374 499.214 171.594C498.56 171.813 498.018 172.281 497.706 172.897" stroke="#251D18" stroke-width="1.26025" stroke-miterlimit="10" stroke-linecap="round"/>
<path d="M486.216 148.866C491.949 144.135 499.996 142.568 506.168 149.824C512.486 157.223 511.82 164.518 503.657 169.619L486.216 148.866Z" fill="#B15EFF"/>
<path d="M514.268 151.639C517.048 151.639 519.302 149.408 519.302 146.655C519.302 143.902 517.048 141.671 514.268 141.671C511.487 141.671 509.233 143.902 509.233 146.655C509.233 149.408 511.487 151.639 514.268 151.639Z" fill="#FFA33C"/>
<path d="M487.514 146.144L485.192 148.059L504.162 171.054L506.483 169.14L487.514 146.144Z" fill="#FFA33C"/>
<path d="M386.068 133.55C385.794 133.462 385.5 133.458 385.224 133.539C384.947 133.621 384.702 133.784 384.52 134.007C384.338 134.229 384.227 134.502 384.201 134.789C384.176 135.076 384.238 135.364 384.379 135.615L390.717 146.724C391.52 148.299 392.765 149.607 394.298 150.488L401.57 153.045C402.273 153.293 403.035 153.322 403.755 153.13C404.475 152.938 405.121 152.533 405.607 151.968L410.734 146.036C411.368 145.182 411.676 144.131 411.604 143.07C411.531 142.009 411.083 141.009 410.339 140.25L401.893 131.678C401.741 131.545 401.551 131.464 401.351 131.445C401.15 131.426 400.949 131.471 400.776 131.574C400.602 131.676 400.465 131.831 400.385 132.015C400.304 132.2 400.284 132.405 400.327 132.602L401.234 136.559C401.276 136.748 401.267 136.944 401.21 137.128C401.152 137.313 401.048 137.479 400.906 137.61C400.765 137.742 400.592 137.834 400.404 137.879C400.216 137.923 400.02 137.917 399.834 137.862L386.068 133.55Z" fill="#B4702F"/>
<path d="M481.332 197.443C481.333 199.854 480.739 202.227 479.603 204.353C474.801 213.381 462.438 215.024 455.402 207.565L411.177 162.955C409.698 161.463 408.779 159.506 408.577 157.415L408.447 157.568L405.887 155.353C405.598 155.105 405.361 154.802 405.189 154.462C405.018 154.122 404.915 153.751 404.887 153.371C404.859 152.991 404.906 152.609 405.025 152.248C405.145 151.886 405.335 151.551 405.584 151.263L410.535 145.527C410.784 145.239 411.087 145.003 411.428 144.832C411.768 144.661 412.139 144.558 412.518 144.53C412.898 144.503 413.28 144.55 413.641 144.67C414.003 144.789 414.337 144.979 414.625 145.228L417.089 147.353C419.167 147.208 421.231 147.779 422.938 148.972L475.031 185.35C476.974 186.712 478.562 188.522 479.658 190.627C480.755 192.732 481.329 195.07 481.332 197.443Z" fill="white"/>
<path d="M426.603 177.41C427.462 176.516 428.491 175.803 429.63 175.314C430.769 174.824 431.995 174.567 433.234 174.559C434.474 174.55 435.703 174.789 436.849 175.263C437.994 175.737 439.034 176.435 439.905 177.316C440.777 178.198 441.464 179.245 441.924 180.396C442.385 181.547 442.611 182.778 442.589 184.018C442.566 185.257 442.296 186.48 441.793 187.613C441.291 188.746 440.567 189.768 439.664 190.617" stroke="#251D18" stroke-width="1.61937" stroke-miterlimit="10" stroke-linecap="round"/>
<path d="M459.642 211.439C465.664 214.594 473.365 212.968 478.007 207.721" stroke="#251D18" stroke-width="1.61937" stroke-miterlimit="10" stroke-linecap="round"/>
<path d="M610.755 310.011V329.497C609.623 325.832 607.372 322.613 604.318 320.291C601.265 317.969 597.561 316.66 593.727 316.549H593.191H560.701V310.021C560.7 309.163 560.869 308.314 561.197 307.521C561.525 306.728 562.006 306.008 562.612 305.401C563.219 304.794 563.939 304.313 564.731 303.985C565.524 303.656 566.373 303.487 567.231 303.487H604.234C605.963 303.49 607.621 304.178 608.843 305.401C610.066 306.624 610.753 308.282 610.755 310.011Z" fill="#B15EFF"/>
<path d="M610.755 310.012V329.497C609.622 325.832 607.372 322.613 604.318 320.291C601.264 317.969 597.561 316.66 593.726 316.549V310.012C593.726 309.154 593.894 308.304 594.223 307.511C594.551 306.719 595.031 305.998 595.638 305.392C596.244 304.785 596.965 304.303 597.757 303.975C598.55 303.647 599.399 303.478 600.257 303.478H604.224C605.082 303.478 605.931 303.647 606.724 303.975C607.516 304.303 608.236 304.785 608.843 305.392C609.449 305.998 609.93 306.719 610.258 307.511C610.586 308.304 610.755 309.154 610.755 310.012Z" fill="#251D18"/>
<path d="M393.822 365.236H328.399C322.645 365.236 317.126 362.95 313.057 358.881C308.988 354.812 306.702 349.294 306.702 343.539C306.702 337.785 308.988 332.266 313.057 328.197C317.126 324.128 322.645 321.843 328.399 321.843H393.822C388.068 321.843 382.549 324.128 378.48 328.197C374.411 332.266 372.126 337.785 372.126 343.539C372.126 349.294 374.411 354.812 378.48 358.881C382.549 362.95 388.068 365.236 393.822 365.236Z" fill="#EDEEEA" fill-opacity="0.88"/>
<path d="M610.755 343.543C610.754 349.297 608.468 354.814 604.399 358.883C600.33 362.951 594.812 365.236 589.058 365.236H393.823C388.068 365.236 382.55 362.95 378.481 358.881C374.412 354.812 372.126 349.294 372.126 343.539C372.126 337.785 374.412 332.266 378.481 328.197C382.55 324.128 388.068 321.843 393.823 321.843H589.058C591.908 321.843 594.729 322.404 597.362 323.494C599.994 324.585 602.386 326.183 604.401 328.199C606.416 330.214 608.014 332.606 609.104 335.239C610.194 337.871 610.755 340.693 610.755 343.543Z" fill="#E2E3DE"/>
<path d="M0 359.453C8.12656 353.727 17.8279 350.662 27.7687 350.677H27.8851C37.8666 350.684 47.5985 353.797 55.7302 359.586L59.4677 362.246C63.7755 365.299 68.9251 366.938 74.205 366.938C79.4849 366.938 84.6345 365.299 88.9422 362.246L93.5975 358.921C101.772 353.13 111.542 350.02 121.559 350.02C131.576 350.02 141.347 353.13 149.521 358.921L153.142 361.488C157.451 364.54 162.601 366.18 167.882 366.18C173.163 366.18 178.314 364.54 182.623 361.488L186.749 358.555C194.924 352.762 204.697 349.651 214.716 349.651C224.735 349.651 234.507 352.762 242.682 358.555L246.304 361.122C250.611 364.175 255.761 365.815 261.041 365.815C266.321 365.815 271.47 364.175 275.778 361.122L280.433 357.797C288.608 352.007 298.378 348.897 308.395 348.897C318.412 348.897 328.182 352.007 336.356 357.797L340.18 360.51C344.46 363.535 349.566 365.169 354.806 365.192C360.047 365.214 365.167 363.624 369.472 360.636L373.748 357.644C381.844 351.985 391.486 348.957 401.364 348.972H401.577C411.525 348.998 421.221 352.11 429.326 357.88L433.15 360.593C437.458 363.645 442.607 365.284 447.887 365.284C453.166 365.284 458.316 363.645 462.624 360.593L467.279 357.268C475.454 351.478 485.224 348.368 495.241 348.368C505.258 348.368 515.028 351.478 523.202 357.268L526.823 359.838C531.133 362.891 536.283 364.53 541.564 364.53C546.845 364.53 551.995 362.891 556.305 359.838L560.431 356.906C568.606 351.113 578.378 348.001 588.398 348.001C598.417 348.001 608.189 351.113 616.364 356.906V420.034H0V359.453Z" fill="white"/>
<path d="M6.56738 370.114C12.8042 365.735 20.2437 363.393 27.8644 363.411C35.4852 363.429 42.9137 365.805 49.1299 370.214L52.864 372.874C59.1042 377.299 66.5651 379.676 74.2151 379.676C81.8651 379.676 89.326 377.299 95.5662 372.874L100.221 369.549C106.462 365.124 113.923 362.747 121.572 362.747C129.222 362.747 136.683 365.124 142.924 369.549L146.541 372.116C152.782 376.543 160.244 378.921 167.896 378.921C175.547 378.921 183.009 376.543 189.25 372.116L193.377 369.186C199.617 364.76 207.08 362.382 214.731 362.382C222.382 362.382 229.845 364.76 236.085 369.186L239.703 371.753C245.943 376.179 253.404 378.556 261.054 378.556C268.704 378.556 276.165 376.179 282.405 371.753L287.061 368.428C293.301 364.003 300.762 361.626 308.412 361.626C316.062 361.626 323.523 364.003 329.763 368.428L333.583 371.138C339.779 375.531 347.178 377.905 354.773 377.938C362.367 377.971 369.787 375.66 376.02 371.321L380.296 368.329C386.529 363.989 393.948 361.679 401.543 361.711C409.137 361.744 416.537 364.119 422.732 368.511L426.556 371.221C432.796 375.646 440.256 378.023 447.905 378.023C455.554 378.023 463.015 375.646 469.255 371.221L473.91 367.896C480.149 363.469 487.609 361.091 495.259 361.091C502.909 361.091 510.37 363.469 516.609 367.896L520.23 370.463C526.469 374.892 533.931 377.271 541.582 377.271C549.234 377.271 556.696 374.892 562.935 370.463L567.065 367.531C573.306 363.104 580.767 360.727 588.418 360.727C596.069 360.727 603.53 363.104 609.771 367.531" stroke="#B15EFF" stroke-width="2.16138" stroke-miterlimit="10" stroke-linecap="round"/>
<path d="M6.56738 390.614C12.8042 386.235 20.2437 383.893 27.8644 383.911C35.4852 383.929 42.9137 386.305 49.1299 390.714L52.864 393.374C59.1042 397.799 66.5651 400.176 74.2151 400.176C81.8651 400.176 89.326 397.799 95.5662 393.374L100.221 390.049C106.462 385.623 113.923 383.246 121.572 383.246C129.222 383.246 136.683 385.623 142.924 390.049L146.541 392.616C152.782 397.043 160.244 399.42 167.896 399.42C175.547 399.42 183.009 397.043 189.25 392.616L193.377 389.686C199.617 385.26 207.08 382.882 214.731 382.882C222.382 382.882 229.845 385.26 236.085 389.686L239.703 392.253C245.943 396.679 253.404 399.056 261.054 399.056C268.704 399.056 276.165 396.679 282.405 392.253L287.061 388.928C293.301 384.503 300.762 382.126 308.412 382.126C316.062 382.126 323.523 384.503 329.763 388.928L333.583 391.638C339.779 396.031 347.178 398.405 354.773 398.438C362.367 398.471 369.787 396.16 376.02 391.821L380.296 388.828C386.529 384.489 393.948 382.179 401.543 382.211C409.137 382.244 416.537 384.619 422.732 389.011L426.556 391.721C432.794 396.149 440.255 398.527 447.905 398.527C455.555 398.527 463.016 396.149 469.255 391.721L473.91 388.396C480.149 383.969 487.609 381.591 495.259 381.591C502.909 381.591 510.37 383.969 516.609 388.396L520.23 390.963C526.469 395.392 533.931 397.771 541.582 397.771C549.234 397.771 556.696 395.392 562.935 390.963L567.065 388.034C573.304 383.605 580.766 381.226 588.418 381.226C596.069 381.226 603.531 383.605 609.771 388.034" stroke="#B15EFF" stroke-width="2.16138" stroke-miterlimit="10" stroke-linecap="round"/>
<path d="M6.56738 410.466C12.8045 406.087 20.2442 403.746 27.865 403.764C35.4858 403.783 42.914 406.16 49.1299 410.569L52.864 413.229C59.1042 417.654 66.5651 420.031 74.2151 420.031C81.8651 420.031 89.326 417.654 95.5662 413.229L100.221 409.904C106.462 405.479 113.923 403.102 121.572 403.102C129.222 403.102 136.683 405.479 142.924 409.904L146.541 412.471C152.782 416.898 160.244 419.275 167.896 419.275C175.547 419.275 183.009 416.898 189.25 412.471L193.377 409.538C199.617 405.111 207.08 402.733 214.731 402.733C222.382 402.733 229.845 405.111 236.085 409.538L239.703 412.108C245.943 416.534 253.404 418.911 261.054 418.911C268.704 418.911 276.165 416.534 282.405 412.108L287.061 408.783C293.301 404.358 300.762 401.981 308.412 401.981C316.062 401.981 323.523 404.358 329.763 408.783L333.583 411.497C339.779 415.889 347.179 418.263 354.773 418.295C362.367 418.327 369.787 416.016 376.02 411.676L380.296 408.683C386.529 404.344 393.948 402.034 401.543 402.066C409.137 402.099 416.537 404.474 422.732 408.866L426.556 411.576C432.794 416.004 440.255 418.382 447.905 418.382C455.555 418.382 463.016 416.004 469.255 411.576L473.91 408.251C480.15 403.827 487.61 401.45 495.259 401.45C502.909 401.45 510.369 403.827 516.609 408.251L520.23 410.818C526.469 415.247 533.931 417.626 541.582 417.626C549.234 417.626 556.696 415.247 562.935 410.818L567.065 407.889C573.304 403.46 580.766 401.081 588.418 401.081C596.069 401.081 603.531 403.46 609.771 407.889" stroke="#B15EFF" stroke-width="2.16138" stroke-miterlimit="10" stroke-linecap="round"/>
<path d="M452.044 261.88L447.585 266.349C446.165 267.767 444.24 268.563 442.233 268.563C440.226 268.563 438.302 267.767 436.881 266.349L432.928 262.392C432.853 264.967 431.885 267.436 430.188 269.375C429.317 270.361 428.281 271.187 427.125 271.815L426.543 272.148L419.614 275.949L419.185 275.283C418.466 274.154 418.022 272.873 417.888 271.541C417.754 270.21 417.934 268.865 418.413 267.616C415.999 264.779 415.178 261.178 416.611 258.189C417.283 256.803 418.37 255.661 419.72 254.92C418.08 254.793 416.479 254.355 415.002 253.63C413.14 252.781 411.522 251.477 410.297 249.839C411.676 248.785 413.321 248.134 415.049 247.958C416.776 247.782 418.518 248.088 420.083 248.842L426.58 251.954C428.4 252.811 429.952 254.148 431.069 255.822C432.185 257.495 432.825 259.441 432.918 261.451L436.881 257.487C437.584 256.784 438.419 256.227 439.337 255.846C440.255 255.466 441.239 255.27 442.233 255.27C443.227 255.27 444.212 255.466 445.13 255.846C446.048 256.227 446.882 256.784 447.585 257.487L452.044 261.88Z" fill="#251D18"/>
<path d="M433.493 259.452V264.304" stroke="white" stroke-width="2.43072" stroke-linecap="round" stroke-linejoin="round"/>
<path d="M406.08 279.516L406.789 275.45C406.878 274.947 406.8 274.43 406.566 273.976C406.332 273.522 405.956 273.158 405.495 272.939L402.243 271.38C401.503 271.025 400.933 270.39 400.66 269.616C400.387 268.842 400.433 267.991 400.787 267.25L402.815 263.014L401.758 261.494C401.681 261.385 401.629 261.261 401.605 261.131C401.58 261 401.584 260.866 401.615 260.737C401.647 260.608 401.706 260.487 401.787 260.383C401.869 260.278 401.972 260.192 402.09 260.131L403.803 259.21C404.535 258.82 405.124 258.207 405.485 257.461L407.52 253.208C408.157 251.871 409.103 250.705 410.28 249.806C411.506 251.444 413.124 252.748 414.985 253.597C416.462 254.322 418.063 254.76 419.704 254.887C418.353 255.627 417.267 256.77 416.595 258.155C415.308 260.836 415.836 264.008 417.698 266.681C418.351 266.135 419.175 265.836 420.026 265.837C420.568 265.838 421.103 265.959 421.592 266.192C422.209 266.488 422.729 266.951 423.093 267.53C423.457 268.108 423.651 268.778 423.651 269.461C423.651 270.003 423.528 270.537 423.291 271.024C423.086 271.453 422.798 271.838 422.444 272.155C422.09 272.473 421.677 272.718 421.228 272.876C420.78 273.034 420.304 273.103 419.829 273.077C419.354 273.051 418.889 272.932 418.46 272.726L418.041 272.524C418.258 273.491 418.64 274.413 419.172 275.25L419.601 275.915L406.08 279.516Z" fill="#B4702F"/>
<path d="M407.624 260.606C407.314 261.271 407.467 261.979 407.956 262.219C408.445 262.458 409.117 262.125 409.429 261.474C409.742 260.822 409.589 260.1 409.097 259.861C408.605 259.622 407.936 259.954 407.624 260.606Z" fill="#251D18"/>
<path d="M408.847 256.616C408.568 256.895 409.143 257.926 410.131 258.913C411.118 259.901 412.149 260.476 412.428 260.197C412.708 259.917 412.132 258.89 411.145 257.899C410.157 256.908 409.126 256.336 408.847 256.616Z" fill="#251D18"/>
<path d="M418.6 269.507C418.6 269.507 419.369 267.661 421.344 269.084" stroke="#251D18" stroke-width="1.26025" stroke-miterlimit="10" stroke-linecap="round"/>
<path d="M386.218 321.707H438.357C434.32 307.794 428.551 292.485 425.722 283.134C425.101 281.082 423.914 279.247 422.297 277.838C420.681 276.43 418.7 275.506 416.582 275.173C414.464 274.839 412.295 275.109 410.324 275.952C408.353 276.795 406.659 278.177 405.438 279.939L386.218 321.707Z" fill="#FFDEDF"/>
<path d="M414.29 301.328L404.049 321.193" stroke="white" stroke-width="2.28441" stroke-linecap="round" stroke-linejoin="round"/>
<path d="M276.812 145.55L290.313 93.9132C293.551 84.33 294.921 81.7198 307.604 79.3589L321.663 76.7686C328.383 76.7686 334.119 79.6881 335.213 86.3218L347.632 161.498C348.025 164.941 347.687 168.428 346.638 171.731C345.59 175.034 343.856 178.078 341.55 180.664C339.243 183.251 336.417 185.321 333.255 186.739C330.093 188.157 326.667 188.892 323.202 188.894H308.079C285.375 188.894 271.316 167.57 276.812 145.55Z" fill="white"/>
<path d="M316.864 79.1933C316.558 78.7664 316.344 78.2807 316.236 77.7668L321.659 76.7693C328.196 76.7693 333.806 79.5358 335.109 85.7905L336.566 94.5258L316.864 79.1933Z" fill="#B15EFF"/>
<path d="M290.998 154.239L327.472 117.864C331.745 113.605 337.532 111.214 343.566 111.214H352.437C356.814 111.214 361.097 112.474 364.777 114.843C368.456 117.212 371.376 120.591 373.187 124.575L402.422 188.894H355.144L347.336 175.287C345.868 179.279 343.21 182.723 339.722 185.156C336.234 187.59 332.084 188.894 327.831 188.894H305.326C287.234 188.894 278.189 167.011 290.998 154.239Z" fill="#251D18"/>
<path d="M409.777 188.895C407.584 188.895 405.437 188.264 403.593 187.077C401.75 185.89 400.287 184.197 399.379 182.201L396.236 175.288L370.283 183.505C370.283 184.934 370.851 186.305 371.862 187.316C372.873 188.327 374.244 188.895 375.673 188.895H409.777Z" fill="white"/>
<path d="M390.564 188.895C388.371 188.895 386.225 188.263 384.382 187.076C382.539 185.889 381.076 184.197 380.169 182.201L377.027 175.288L351.07 183.505C351.07 184.934 351.638 186.305 352.649 187.316C353.66 188.327 355.031 188.895 356.46 188.895H390.564Z" fill="white"/>
<path d="M354.625 124.575L380 181.828C380.958 183.935 382.502 185.722 384.448 186.974C386.393 188.227 388.659 188.894 390.973 188.894H406.635" stroke="#FFA33C" stroke-width="2.16138" stroke-miterlimit="10" stroke-linecap="round"/>
<path d="M333.264 144.33L351.539 184.535" stroke="white" stroke-width="2.16138" stroke-linecap="round" stroke-linejoin="round"/>
<path d="M395.302 180.452L399.705 179.185" stroke="#FFA33C" stroke-width="1.80225" stroke-miterlimit="10" stroke-linecap="round"/>
<path d="M376.515 181.097L381.566 179.185" stroke="#FFA33C" stroke-width="1.80225" stroke-miterlimit="10" stroke-linecap="round"/>
<path d="M350.881 183.883C352.088 186.543 354.735 188.887 357.651 188.887H407.881" stroke="#FFA33C" stroke-width="2.16138" stroke-miterlimit="10" stroke-linecap="round"/>
<path d="M303.138 80.6827C304.476 80.6831 305.801 80.9561 307.031 81.4851C308.26 82.0141 309.37 82.788 310.291 83.7597C311.212 84.7313 311.925 85.8804 312.387 87.1367C312.85 88.3931 313.051 89.7305 312.98 91.0673L311.736 112.704L341.57 111.926L342.654 123.332L306.23 132.479C304.36 132.948 302.406 132.967 300.527 132.534C298.649 132.101 296.9 131.228 295.424 129.988C293.948 128.747 292.788 127.174 292.039 125.398C291.29 123.622 290.973 121.693 291.114 119.77L293.348 89.3848C293.632 86.9876 294.786 84.7778 296.59 83.1741C298.394 81.5703 300.724 80.6839 303.138 80.6827Z" fill="white"/>
<path d="M342.652 123.331L306.228 132.479C304.358 132.948 302.403 132.967 300.525 132.534C298.646 132.101 296.897 131.228 295.422 129.988C293.946 128.747 292.786 127.174 292.037 125.398C291.287 123.621 290.97 121.693 291.111 119.77L291.75 111.125" stroke="#B15EFF" stroke-width="1.80225" stroke-miterlimit="10"/>
<path d="M312.981 93.701L311.738 112.705L341.568 111.926" stroke="#B15EFF" stroke-width="1.80225" stroke-miterlimit="10"/>
<path d="M306.72 113.532L311.737 112.704" stroke="#B15EFF" stroke-width="1.80225" stroke-miterlimit="10"/>
<path d="M341.571 111.119H351.853C353.348 111.117 354.787 111.692 355.87 112.725L361.522 117.713C361.596 117.782 361.653 117.868 361.688 117.964C361.724 118.059 361.737 118.161 361.726 118.262C361.716 118.364 361.683 118.461 361.629 118.547C361.575 118.634 361.502 118.706 361.416 118.76L357.073 122.085C356.54 122.418 355.915 122.571 355.289 122.523C354.663 122.476 354.068 122.229 353.592 121.819L351.68 120.157L342.642 124.283L341.571 111.119Z" fill="#B4702F"/>
<path d="M344.264 69.6432C343.968 74.9635 339.186 80.6396 334.784 83.1966L317.296 76.5928C316.192 81.564 310.154 85.368 302.872 85.368C298.995 85.368 295.467 84.2873 292.85 82.525C290.659 84.6213 287.755 85.8085 284.724 85.8468C281.692 85.885 278.759 84.7715 276.516 82.7311L262.966 70.4279L262.697 70.7305C262.075 71.4275 261.323 71.9953 260.482 72.4015C259.641 72.8076 258.729 73.0442 257.797 73.0976C256.864 73.151 255.931 73.0203 255.049 72.7128C254.167 72.4054 253.355 71.9272 252.658 71.3058L250.906 69.7429L252.469 67.9905C253.09 67.2935 253.842 66.7257 254.683 66.3196C255.524 65.9134 256.436 65.6769 257.369 65.6235C258.301 65.57 259.235 65.7008 260.116 66.0082C260.998 66.3157 261.81 66.7938 262.507 67.4153L262.723 67.6048L270.534 58.6966C271.83 57.2016 273.412 55.9808 275.187 55.1063C276.962 54.2317 278.894 53.721 280.869 53.6042C282.844 53.4874 284.823 53.7669 286.689 54.4261C288.554 55.0854 290.269 56.1111 291.732 57.443L293.033 58.6235L293.698 57.8421C294.845 56.5184 296.246 55.4376 297.818 54.6634C299.39 53.8893 301.101 53.4373 302.85 53.3341C304.599 53.2309 306.351 53.4787 308.003 54.0627C309.654 54.6467 311.173 55.5552 312.468 56.7348L315.281 59.2885C316.916 57.2545 319.015 55.6425 321.402 54.5877C323.788 53.5329 326.393 53.0662 328.998 53.2267C337.913 53.7321 344.739 61.0775 344.264 69.6432Z" fill="#251D18"/>
<path d="M262.507 66.1281V72.0369" stroke="#B15EFF" stroke-width="1.80225" stroke-miterlimit="10" stroke-linecap="round"/>
<path d="M337.411 75.9776L335.798 78.0957C334.927 79.2427 334.521 80.6759 334.661 82.1092L334.84 83.8982C334.848 83.9779 334.838 84.0583 334.811 84.1338C334.785 84.2094 334.742 84.2784 334.687 84.3361C334.631 84.3938 334.564 84.4389 334.489 84.4683C334.415 84.4978 334.335 84.5108 334.255 84.5067L331.349 84.3338L329.051 86.8709C326.64 89.1985 322.401 87.9982 320.406 85.2083L317.204 80.3037C316.692 79.5267 316.37 78.6403 316.265 77.7161C316.159 76.7919 316.272 75.8558 316.595 74.9834C316.036 74.7175 315.553 74.314 315.192 73.8107C314.832 73.3073 314.604 72.7206 314.532 72.1056C314.46 71.4905 314.546 70.8672 314.78 70.2941C315.015 69.721 315.391 69.2168 315.874 68.8288C316.356 68.4409 316.93 68.1818 317.54 68.0759C318.15 67.9701 318.777 68.0208 319.362 68.2235C319.947 68.4262 320.472 68.7741 320.886 69.2347C321.3 69.6953 321.59 70.2534 321.729 70.8568C327.552 72.9517 333.587 72.6192 338.688 69.8592C338.925 70.911 338.934 72.0016 338.714 73.0571C338.494 74.1127 338.049 75.1086 337.411 75.9776Z" fill="#B4702F"/>
<path d="M332.925 76.633C331.585 76.6247 330.256 76.384 328.998 75.9214" stroke="#251D18" stroke-width="1.26025" stroke-miterlimit="10" stroke-linecap="round"/>
<path d="M328.935 80.0977C328.82 80.0124 328.725 79.9035 328.656 79.7783C328.588 79.653 328.546 79.5145 328.536 79.372C328.525 79.2294 328.545 79.0863 328.594 78.9522C328.644 78.8181 328.721 78.6961 328.822 78.5947C329.008 78.3551 329.274 78.1915 329.572 78.1346C329.869 78.0777 330.177 78.1313 330.438 78.2854C330.553 78.3707 330.648 78.4796 330.717 78.6048C330.786 78.73 330.827 78.8686 330.838 79.0111C330.848 79.1536 330.828 79.2968 330.779 79.4309C330.729 79.565 330.652 79.6869 330.551 79.7884C330.366 80.0286 330.1 80.1926 329.802 80.2496C329.504 80.3066 329.196 80.2525 328.935 80.0977Z" fill="#251D18"/>
<path d="M318.015 70.4111C319.012 70.6273 319.607 71.8144 319.345 73.0713" stroke="#251D18" stroke-width="1.26025" stroke-miterlimit="10" stroke-linecap="round"/>
<path d="M234.998 111.244L185.253 111.816L209.574 130.065L234.998 111.244Z" fill="#251D18"/>
<path d="M245.184 94.4355V131.149H213.781C211.198 131.075 208.746 129.998 206.945 128.145C205.145 126.292 204.137 123.81 204.137 121.227V98.183C204.137 97.5542 203.888 96.9511 203.443 96.5065C202.998 96.0619 202.395 95.8121 201.767 95.8121C201.34 95.8259 200.916 95.7538 200.518 95.6002C200.12 95.4465 199.757 95.2145 199.45 94.9178C199.144 94.6211 198.9 94.2658 198.734 93.873C198.567 93.4803 198.482 93.0581 198.482 92.6316C198.482 92.205 198.567 91.7828 198.734 91.39C198.9 90.9973 199.144 90.642 199.45 90.3453C199.757 90.0486 200.12 89.8165 200.518 89.6629C200.916 89.5093 201.34 89.4372 201.767 89.451H203.669C205.697 89.451 207.642 90.2568 209.077 91.691C210.511 93.1253 211.317 95.0706 211.317 97.0989V119.218C211.316 120.189 211.539 121.148 211.97 122.018C212.401 122.889 213.028 123.648 213.801 124.236V111.437C213.804 106.93 215.595 102.609 218.782 99.4214C221.968 96.2339 226.289 94.4407 230.796 94.4355H245.184Z" fill="#FFA33C"/>
<path d="M249.663 128.718C249.663 130.746 247.641 132 245.147 132C242.653 132 240.628 130.746 240.628 128.718C240.628 126.689 242.65 125.027 245.14 125.027C247.631 125.027 249.663 126.689 249.663 128.718Z" fill="#FFA33C"/>
<path d="M243.481 130.77V131.242" stroke="#251D18" stroke-width="1.26025" stroke-miterlimit="10" stroke-linecap="round"/>
<path d="M246.62 130.77V131.242" stroke="#251D18" stroke-width="1.26025" stroke-miterlimit="10" stroke-linecap="round"/>
<path d="M239.448 128.718C239.448 130.746 237.426 132 234.932 132C232.438 132 230.413 130.746 230.413 128.718C230.413 126.689 232.435 125.027 234.932 125.027C237.429 125.027 239.448 126.689 239.448 128.718Z" fill="#B4702F"/>
<path d="M233.263 130.77V131.242" stroke="#251D18" stroke-width="1.26025" stroke-miterlimit="10" stroke-linecap="round"/>
<path d="M236.405 130.77V131.242" stroke="#251D18" stroke-width="1.26025" stroke-miterlimit="10" stroke-linecap="round"/>
<path d="M244.92 124.844C242.427 124.844 240.405 126.49 240.405 128.522V113.056L243.065 111.237" stroke="#251D18" stroke-width="1.26025" stroke-miterlimit="10" stroke-linecap="round"/>
<path d="M240.369 103.23C233.912 104.633 228.634 104.274 226.852 98.149C226.788 97.9385 226.731 97.7223 226.683 97.5006C226.646 97.2778 226.619 97.0584 226.599 96.8356C225.904 90.0156 230.001 84.0735 236.472 82.6703C242.943 81.267 249.018 84.9979 250.86 91.6017C250.917 91.8013 250.966 91.9974 251.016 92.2036C251.046 92.4197 251.073 92.6359 251.093 92.8454C251.701 99.2896 246.847 101.83 240.369 103.23Z" fill="#FFA33C"/>
<path d="M241.22 103.23C234.763 104.634 228.634 104.275 226.852 98.1495" stroke="#251D18" stroke-width="1.26025" stroke-miterlimit="10" stroke-linecap="round"/>
<path d="M244.678 97.2218C247.64 96.6212 249.518 93.5504 248.872 90.3628C248.226 87.1753 245.3 85.0782 242.338 85.6788C239.375 86.2794 237.498 89.3502 238.144 92.5377C238.79 95.7253 241.715 97.8224 244.678 97.2218Z" fill="#B4702F"/>
<path d="M249.915 81.6895L249.822 88.9617C248.447 86.2326 246.085 84.1294 243.215 83.0795L247.002 80.4692C247.261 80.2896 247.561 80.1781 247.874 80.1451C248.187 80.1121 248.503 80.1585 248.794 80.2802C249.084 80.4018 249.339 80.5947 249.535 80.8411C249.731 81.0874 249.862 81.3793 249.915 81.6895Z" fill="#B4702F"/>
<path d="M246.234 84.3427C246.746 82.5205 248.365 81.4464 249.496 81.4464" stroke="#251D18" stroke-width="1.26025" stroke-miterlimit="10" stroke-linecap="round"/>
<path d="M231.487 84.9617C228.844 87.0077 227.112 90.0118 226.666 93.3246L223.633 86.0557C223.561 85.7477 223.568 85.4265 223.653 85.1219C223.739 84.8173 223.9 84.5392 224.121 84.3136C224.343 84.0879 224.618 83.922 224.921 83.8313C225.224 83.7405 225.545 83.7279 225.854 83.7946L231.487 84.9617Z" fill="#B4702F"/>
<path d="M228.291 88.1174C227.111 86.641 225.202 86.2785 224.158 86.7174" stroke="#251D18" stroke-width="1.26025" stroke-miterlimit="10" stroke-linecap="round"/>
<path d="M234.979 93.7699C235.017 93.9556 234.998 94.1483 234.927 94.3236C234.855 94.499 234.732 94.6491 234.575 94.7549C234.418 94.8608 234.233 94.9176 234.044 94.9182C233.854 94.9189 233.669 94.8633 233.511 94.7585C233.353 94.6537 233.23 94.5044 233.157 94.3296C233.084 94.1547 233.064 93.9621 233.101 93.7762C233.137 93.5902 233.228 93.4193 233.362 93.285C233.495 93.1507 233.666 93.0591 233.852 93.0217C234.1 92.9717 234.359 93.0224 234.57 93.1627C234.781 93.303 234.928 93.5213 234.979 93.7699Z" fill="#251D18"/>
<path d="M244.476 91.8515C244.501 91.9749 244.501 92.102 244.477 92.2255C244.453 92.3489 244.404 92.4665 244.335 92.5713C244.265 92.6761 244.175 92.7662 244.071 92.8364C243.967 92.9066 243.849 92.9555 243.726 92.9804C243.603 93.0053 243.475 93.0057 243.352 92.9815C243.228 92.9573 243.111 92.909 243.006 92.8393C242.901 92.7697 242.811 92.6801 242.741 92.5757C242.671 92.4712 242.622 92.354 242.597 92.2306C242.547 91.9815 242.598 91.7226 242.738 91.5109C242.879 91.2991 243.098 91.152 243.347 91.1017C243.596 91.0514 243.855 91.1022 244.067 91.2428C244.278 91.3834 244.425 91.6024 244.476 91.8515Z" fill="#251D18"/>
<path d="M240.043 96.6296L239.019 96.8358" stroke="#251D18" stroke-width="1.26025" stroke-miterlimit="10" stroke-linecap="round"/>
<path d="M241.523 98.3754C241.314 98.4181 241.098 98.4191 240.889 98.3783C240.679 98.3376 240.479 98.2558 240.302 98.1378C240.124 98.0198 239.971 97.8679 239.852 97.6907C239.733 97.5135 239.65 97.3145 239.608 97.1052" stroke="#251D18" stroke-width="1.26025" stroke-miterlimit="10" stroke-linecap="round"/>
<path d="M238.39 99.0108C238.812 98.9242 239.182 98.6741 239.42 98.3152C239.658 97.9563 239.745 97.5178 239.66 97.0955" stroke="#251D18" stroke-width="1.26025" stroke-miterlimit="10" stroke-linecap="round"/>
</svg>
