<svg width="630" height="409" viewBox="0 0 630 409" fill="none" xmlns="http://www.w3.org/2000/svg">
<path d="M481.439 343.714L258.042 380.098V118.761C258.042 57.0688 308.057 7.05786 369.749 7.05786C431.441 7.05786 481.455 57.0688 481.455 118.761L481.439 343.714Z" fill="#EDEEEA" fill-opacity="0.88"/>
<path d="M385.097 85.3559C398.43 85.3559 409.238 74.5476 409.238 61.215C409.238 47.8823 398.43 37.0741 385.097 37.0741C371.765 37.0741 360.957 47.8823 360.957 61.215C360.957 74.5476 371.765 85.3559 385.097 85.3559Z" fill="white"/>
<path d="M481.439 193.923C466.633 200.898 449.743 202.038 434.134 197.116C418.526 192.194 405.345 181.571 397.218 167.365C397.095 167.149 396.917 166.969 396.702 166.844C396.486 166.719 396.242 166.653 395.993 166.653C395.744 166.653 395.499 166.719 395.284 166.844C395.069 166.969 394.891 167.149 394.768 167.365C387.957 179.258 377.567 188.7 365.079 194.345C352.59 199.991 338.639 201.552 325.211 198.808" stroke="#E2E3DE" stroke-width="2.16138" stroke-miterlimit="10"/>
<path d="M325.205 228.386H481.439" stroke="#E2E3DE" stroke-width="2.16138" stroke-miterlimit="10"/>
<path d="M395.995 166.653V275.234" stroke="#E2E3DE" stroke-width="2.16138" stroke-miterlimit="10"/>
<path d="M384.891 192.34V223.225" stroke="#E2E3DE" stroke-width="2.16138" stroke-miterlimit="10"/>
<path d="M369.067 199.486V223.225" stroke="#E2E3DE" stroke-width="2.16138" stroke-miterlimit="10"/>
<path d="M353.242 204.593V223.224" stroke="#E2E3DE" stroke-width="2.16138" stroke-miterlimit="10"/>
<path d="M337.414 205.615V223.225" stroke="#E2E3DE" stroke-width="2.16138" stroke-miterlimit="10"/>
<path d="M406.845 192.34V223.225" stroke="#E2E3DE" stroke-width="2.16138" stroke-miterlimit="10"/>
<path d="M422.669 199.486V223.225" stroke="#E2E3DE" stroke-width="2.16138" stroke-miterlimit="10"/>
<path d="M438.493 204.593V223.224" stroke="#E2E3DE" stroke-width="2.16138" stroke-miterlimit="10"/>
<path d="M454.322 205.615V223.225" stroke="#E2E3DE" stroke-width="2.16138" stroke-miterlimit="10"/>
<path d="M469.125 205.615V223.225" stroke="#E2E3DE" stroke-width="2.16138" stroke-miterlimit="10"/>
<path d="M395.995 248.224V244.097C395.994 242.034 396.4 239.991 397.19 238.085C397.979 236.179 399.136 234.447 400.595 232.988C402.053 231.529 403.785 230.371 405.691 229.582C407.597 228.792 409.64 228.386 411.703 228.386" stroke="#E2E3DE" stroke-width="2.16138" stroke-miterlimit="10"/>
<path d="M395.994 248.224V244.097C395.994 239.93 394.339 235.934 391.393 232.988C388.446 230.041 384.45 228.386 380.283 228.386" stroke="#E2E3DE" stroke-width="2.16138" stroke-miterlimit="10"/>
<path d="M418.323 275.234H267.023L447.548 284.864L341.168 365.919L481.438 343.723V275.234H418.323Z" fill="#E2E3DE"/>
<path d="M253.128 332.108V114.867C253.128 52.2503 304.579 2 368.047 2C387.752 2 407.32 6.3826 423.527 15.0048" stroke="#FFA33C" stroke-width="2.16138" stroke-miterlimit="10" stroke-linecap="round"/>
<path d="M435.541 21.6587C438.026 23.4321 440.431 25.302 442.756 27.2683" stroke="#FFA33C" stroke-width="2.16138" stroke-miterlimit="10" stroke-linecap="round"/>
<path d="M367.883 101.034H292.019C292.019 94.3038 298.929 88.8505 307.455 88.8505C309.311 88.8457 311.158 89.1123 312.938 89.6419C315.768 85.4987 320.107 82.8485 324.972 82.8485C332.287 82.8485 338.399 88.8339 339.998 96.8609C342.808 94.8857 347.337 93.3229 352.448 93.3229C360.974 93.3262 367.883 97.6689 367.883 101.034Z" fill="#E2E3DE"/>
<path d="M342.539 71.6257L345.315 74.4023L348.122 71.5958" stroke="#251D18" stroke-width="1.80225" stroke-linecap="round" stroke-linejoin="round"/>
<path d="M258.026 130.922H292.638L258.026 165.124V130.922Z" fill="#B4702F"/>
<path d="M357.133 246.638V275.235H258.029V165.124L292.637 130.922L325.204 165.124V231.898L357.133 246.638Z" fill="white"/>
<path d="M340.66 247.196C342.435 247.196 344.138 247.902 345.393 249.157C346.648 250.412 347.354 252.115 347.354 253.89V275.234H333.97V253.89C333.97 252.115 334.675 250.413 335.929 249.158C337.184 247.903 338.885 247.197 340.66 247.196Z" fill="#FFA33C"/>
<path d="M347.35 253.89V275.234H345.309V254.398C345.309 252.549 345.073 250.877 343.859 249.663C343.238 249.041 342.501 248.548 341.689 248.212C340.876 247.876 340.006 247.703 339.127 247.705C338.68 247.705 338.235 247.751 337.797 247.841C338.817 247.356 339.944 247.137 341.072 247.205C342.199 247.273 343.291 247.625 344.246 248.229C345.201 248.833 345.987 249.668 346.532 250.658C347.076 251.648 347.361 252.76 347.36 253.89H347.35Z" fill="#251D18"/>
<path d="M326.225 231.897L358.154 246.637" stroke="#B4702F" stroke-width="1.80225" stroke-miterlimit="10" stroke-linecap="round"/>
<path d="M292.019 163.505C295.73 163.505 298.739 160.496 298.739 156.785C298.739 153.073 295.73 150.064 292.019 150.064C288.307 150.064 285.299 153.073 285.299 156.785C285.299 160.496 288.307 163.505 292.019 163.505Z" fill="#B15EFF"/>
<path d="M286.1 182.625H272.717V203.075H286.1V182.625Z" fill="#B15EFF"/>
<path d="M286.1 182.625V203.078" stroke="#251D18" stroke-width="2.16138" stroke-miterlimit="10"/>
<path d="M311.116 213.768H297.732V234.218H311.116V213.768Z" fill="#B15EFF"/>
<path d="M311.116 213.768V234.218" stroke="#251D18" stroke-width="2.16138" stroke-miterlimit="10"/>
<path d="M286.1 213.768H272.717V234.218H286.1V213.768Z" fill="#B15EFF"/>
<path d="M286.1 213.768V234.218" stroke="#251D18" stroke-width="2.16138" stroke-miterlimit="10"/>
<path d="M311.116 182.625H297.732V203.075H311.116V182.625Z" fill="#B15EFF"/>
<path d="M311.116 182.625V203.078" stroke="#251D18" stroke-width="2.16138" stroke-miterlimit="10"/>
<path d="M297.732 189.059H309.929" stroke="white" stroke-width="1.61937" stroke-miterlimit="10"/>
<path d="M481.439 275.235C481.439 258.738 466.778 245.365 448.693 245.365C430.607 245.365 415.946 258.738 415.946 275.235H481.439Z" fill="#E2E3DE"/>
<path d="M260.579 238.304H263.272C273.029 238.304 280.939 245.653 280.939 254.717V255.249H282.602C292.361 255.249 301.289 263.619 301.289 272.683V275.234H260.579V238.304Z" fill="#B15EFF"/>
<path d="M258.042 235.485H260.739C263.059 235.485 265.357 235.942 267.5 236.829C269.643 237.717 271.591 239.019 273.231 240.659C274.872 242.3 276.173 244.247 277.061 246.391C277.949 248.534 278.406 250.831 278.406 253.151V253.723H280.069C282.389 253.723 284.686 254.18 286.829 255.068C288.973 255.956 290.92 257.257 292.561 258.898C294.201 260.538 295.503 262.486 296.39 264.629C297.278 266.773 297.735 269.07 297.735 271.39V275.234H258.042V235.485Z" fill="#FFA33C"/>
<path d="M481.438 299.488V343.713L426.24 352.691C425.133 324.689 447.914 300.765 477.538 299.488C478.846 299.435 480.146 299.435 481.438 299.488Z" fill="#FFA33C"/>
<path d="M413.944 328.598C419.327 340.126 417.458 352.379 417.458 352.379C417.458 352.379 406.864 345.942 401.497 334.423C396.131 322.905 397.983 310.641 397.983 310.641C397.983 310.641 408.563 317.069 413.944 328.598Z" fill="#FFA33C"/>
<path d="M418.283 308.384V352.443" stroke="#251D18" stroke-width="1.43981" stroke-miterlimit="10"/>
<path d="M428.621 327.503L418.283 340.095" stroke="#251D18" stroke-width="1.43981" stroke-miterlimit="10"/>
<path d="M424.873 302.637C428.511 298.998 428.511 293.099 424.873 289.461C421.234 285.822 415.335 285.822 411.696 289.461C408.058 293.099 408.058 298.998 411.696 302.637C415.335 306.276 421.234 306.276 424.873 302.637Z" fill="white"/>
<path d="M418.283 286.733V305.367" stroke="#FFA33C" stroke-width="0.744843" stroke-miterlimit="10" stroke-linecap="round"/>
<path d="M408.966 296.05H427.6" stroke="#FFA33C" stroke-width="0.744843" stroke-miterlimit="10" stroke-linecap="round"/>
<path d="M411.692 289.459L424.87 302.637" stroke="#FFA33C" stroke-width="0.744843" stroke-miterlimit="10" stroke-linecap="round"/>
<path d="M411.692 302.637L424.87 289.459" stroke="#FFA33C" stroke-width="0.744843" stroke-miterlimit="10" stroke-linecap="round"/>
<path d="M418.284 299.498C420.188 299.498 421.732 297.955 421.732 296.05C421.732 294.146 420.188 292.602 418.284 292.602C416.379 292.602 414.835 294.146 414.835 296.05C414.835 297.955 416.379 299.498 418.284 299.498Z" fill="white"/>
<path d="M418.283 297.912C419.311 297.912 420.145 297.078 420.145 296.05C420.145 295.021 419.311 294.188 418.283 294.188C417.255 294.188 416.421 295.021 416.421 296.05C416.421 297.078 417.255 297.912 418.283 297.912Z" fill="#251D18"/>
<path d="M443.078 325.516C446.716 321.878 446.716 315.979 443.078 312.34C439.439 308.701 433.54 308.701 429.901 312.34C426.263 315.979 426.263 321.878 429.901 325.516C433.54 329.155 439.439 329.155 443.078 325.516Z" fill="white"/>
<path d="M436.492 309.61V328.244" stroke="#FFA33C" stroke-width="0.744843" stroke-miterlimit="10" stroke-linecap="round"/>
<path d="M427.175 318.927H445.809" stroke="#FFA33C" stroke-width="0.744843" stroke-miterlimit="10" stroke-linecap="round"/>
<path d="M429.905 312.341L443.079 325.518" stroke="#FFA33C" stroke-width="0.744843" stroke-miterlimit="10" stroke-linecap="round"/>
<path d="M429.905 325.518L443.079 312.341" stroke="#FFA33C" stroke-width="0.744843" stroke-miterlimit="10" stroke-linecap="round"/>
<path d="M436.492 322.376C438.397 322.376 439.941 320.832 439.941 318.927C439.941 317.023 438.397 315.479 436.492 315.479C434.588 315.479 433.044 317.023 433.044 318.927C433.044 320.832 434.588 322.376 436.492 322.376Z" fill="white"/>
<path d="M436.492 320.789C437.52 320.789 438.354 319.955 438.354 318.927C438.354 317.899 437.52 317.065 436.492 317.065C435.464 317.065 434.63 317.899 434.63 318.927C434.63 319.955 435.464 320.789 436.492 320.789Z" fill="#251D18"/>
<path d="M443.412 342.181C436.695 348.609 427.783 350.188 427.783 350.188C427.783 350.188 429.755 341.346 436.472 334.919C443.189 328.491 452.101 326.912 452.101 326.912C452.101 326.912 450.129 335.753 443.412 342.181Z" fill="#251D18"/>
<path d="M294.927 300.556C296.829 298.653 296.829 295.569 294.927 293.667C293.025 291.764 289.94 291.764 288.038 293.667C286.135 295.569 286.135 298.653 288.038 300.556C289.94 302.458 293.025 302.458 294.927 300.556Z" fill="#B4702F"/>
<path d="M302.716 361.537C299.434 369.029 292.741 373.328 292.741 373.328C292.741 373.328 291.354 365.481 294.636 357.989C297.918 350.497 304.612 346.198 304.612 346.198C304.612 346.198 306.002 354.045 302.716 361.537Z" fill="#E2E3DE"/>
<path d="M280.514 361.537C283.799 369.029 290.509 373.328 290.509 373.328C290.509 373.328 291.896 365.481 288.614 357.989C285.332 350.497 278.638 346.198 278.638 346.198C278.638 346.198 277.232 354.045 280.514 361.537Z" fill="#E2E3DE"/>
<path d="M302.716 338.629C299.434 346.12 292.741 350.42 292.741 350.42C292.741 350.42 291.354 342.572 294.636 335.081C297.918 327.589 304.612 323.289 304.612 323.289C304.612 323.289 306.002 331.137 302.716 338.629Z" fill="#E2E3DE"/>
<path d="M280.514 338.629C283.799 346.12 290.509 350.42 290.509 350.42C290.509 350.42 291.896 342.572 288.614 335.081C285.332 327.589 278.638 323.289 278.638 323.289C278.638 323.289 277.232 331.137 280.514 338.629Z" fill="#E2E3DE"/>
<path d="M302.716 315.722C299.434 323.214 292.741 327.514 292.741 327.514C292.741 327.514 291.354 319.666 294.636 312.174C297.918 304.683 304.612 300.383 304.612 300.383C304.612 300.383 306.002 308.231 302.716 315.722Z" fill="#E2E3DE"/>
<path d="M280.514 315.722C283.799 323.214 290.509 327.514 290.509 327.514C290.509 327.514 291.896 319.666 288.614 312.174C285.332 304.683 278.638 300.383 278.638 300.383C278.638 300.383 277.232 308.231 280.514 315.722Z" fill="#E2E3DE"/>
<path d="M100.415 407.148L492.894 341.681" stroke="#EDEEEA" stroke-opacity="0.88" stroke-width="2.16138" stroke-miterlimit="10"/>
<path d="M367.69 407.661L457.913 377.451" stroke="#EDEEEA" stroke-opacity="0.88" stroke-width="2.16138" stroke-miterlimit="10"/>
<path d="M72.6089 236.892H9.24403C4.13869 236.892 0 241.031 0 246.136V385.375C0 390.481 4.13869 394.619 9.24403 394.619H72.6089C77.7142 394.619 81.8529 390.481 81.8529 385.375V246.136C81.8529 241.031 77.7142 236.892 72.6089 236.892Z" fill="#EDEEEA" fill-opacity="0.88"/>
<path d="M81.4136 231.761H0.441895" stroke="#EDEEEA" stroke-opacity="0.88" stroke-width="2.16138" stroke-miterlimit="10"/>
<path d="M11.0659 312.5H70.7897" stroke="white" stroke-width="2.16138" stroke-miterlimit="10"/>
<path d="M40.9295 297.646C42.8799 297.646 44.4609 296.065 44.4609 294.115C44.4609 292.165 42.8799 290.584 40.9295 290.584C38.9792 290.584 37.3982 292.165 37.3982 294.115C37.3982 296.065 38.9792 297.646 40.9295 297.646Z" stroke="white" stroke-width="2.16138" stroke-miterlimit="10"/>
<path d="M11.0659 349.257H70.7897" stroke="white" stroke-width="2.16138" stroke-miterlimit="10"/>
<path d="M40.9295 334.403C42.8799 334.403 44.4609 332.822 44.4609 330.871C44.4609 328.921 42.8799 327.34 40.9295 327.34C38.9792 327.34 37.3982 328.921 37.3982 330.871C37.3982 332.822 38.9792 334.403 40.9295 334.403Z" stroke="white" stroke-width="2.16138" stroke-miterlimit="10"/>
<path d="M40.9295 370.647C42.8799 370.647 44.4609 369.066 44.4609 367.116C44.4609 365.166 42.8799 363.584 40.9295 363.584C38.9792 363.584 37.3982 365.166 37.3982 367.116C37.3982 369.066 38.9792 370.647 40.9295 370.647Z" stroke="white" stroke-width="2.16138" stroke-miterlimit="10"/>
<path d="M11.0659 275.235H70.7897" stroke="white" stroke-width="2.16138" stroke-miterlimit="10"/>
<path d="M42.281 260.111C44.0829 259.365 44.9385 257.299 44.1922 255.498C43.4458 253.696 41.3801 252.84 39.5782 253.586C37.7764 254.333 36.9207 256.398 37.6671 258.2C38.4134 260.002 40.4791 260.858 42.281 260.111Z" stroke="white" stroke-width="2.16138" stroke-miterlimit="10"/>
<path d="M143.675 286.266H180.402L151.968 177.832H89.8401L111.833 261.696C113.679 268.735 117.804 274.964 123.565 279.409C129.327 283.855 136.398 286.266 143.675 286.266Z" fill="#B4702F"/>
<path d="M197.835 374.656C196.628 374.938 195.372 374.938 194.165 374.658C192.958 374.378 191.831 373.824 190.872 373.039C189.913 372.255 189.146 371.26 188.632 370.133C188.118 369.005 187.869 367.775 187.906 366.536L192.704 295.789C192.793 294.469 192.609 293.144 192.165 291.897C191.72 290.65 191.024 289.508 190.12 288.542C189.216 287.575 188.123 286.805 186.908 286.278C185.694 285.752 184.385 285.48 183.061 285.481L140.133 285.431C122.842 285.405 115.729 263.259 129.755 253.177L132.588 251.138H208.828C214.267 251.138 219.532 253.055 223.699 256.552C227.865 260.048 230.666 264.901 231.609 270.258L245.126 347.07C245.309 348.107 245.615 349.118 246.037 350.083C235.516 362.273 223.459 362.998 223.459 362.998L197.835 374.656Z" fill="#FFA33C"/>
<path d="M228.58 268.691L216.992 351.199C216.515 354.255 217.27 357.375 219.091 359.875C220.912 362.374 223.65 364.05 226.705 364.533L230.273 365.098" stroke="white" stroke-width="1.80225" stroke-miterlimit="10" stroke-linecap="round"/>
<path d="M151.02 256.056L122.33 264.991C122.33 264.991 122.084 269.224 122.816 271.611L151.02 256.056Z" fill="#251D18"/>
<path d="M258.995 360.487L224.32 368.521L223.459 362.998C223.459 362.998 235.523 362.283 246.047 350.08C246.933 352.107 248.312 353.881 250.058 355.24C251.804 356.599 253.863 357.5 256.046 357.861L258.935 358.339C259.181 358.387 259.404 358.517 259.566 358.708C259.728 358.899 259.82 359.139 259.827 359.389C259.834 359.64 259.755 359.885 259.604 360.085C259.453 360.284 259.238 360.426 258.995 360.487Z" fill="#B4702F"/>
<path d="M249.642 352.583H246.596V349.541C246.596 348.733 246.917 347.958 247.488 347.387C248.059 346.816 248.834 346.495 249.642 346.495C250.449 346.496 251.223 346.817 251.793 347.388C252.364 347.959 252.684 348.733 252.684 349.541V349.541C252.684 350.347 252.364 351.121 251.793 351.692C251.223 352.262 250.449 352.583 249.642 352.583V352.583Z" stroke="#251D18" stroke-width="1.80225" stroke-miterlimit="10" stroke-linecap="round"/>
<path d="M223.546 363.56L231.985 366.602L197.835 374.656C196.121 375.055 194.323 374.885 192.714 374.171C191.105 373.457 189.772 372.238 188.917 370.699C188.917 370.699 208.044 368.607 216.955 354.562C217.217 356.492 217.957 358.326 219.108 359.898C220.259 361.469 221.784 362.728 223.546 363.56Z" fill="#B4702F"/>
<path d="M223.26 358.675H220.214V355.629C220.214 354.822 220.535 354.047 221.106 353.476C221.677 352.904 222.452 352.583 223.26 352.583V352.583C224.068 352.583 224.842 352.904 225.413 353.476C225.985 354.047 226.306 354.822 226.306 355.629V355.629C226.306 356.437 225.985 357.212 225.413 357.783C224.842 358.354 224.068 358.675 223.26 358.675V358.675Z" stroke="white" stroke-width="1.80225" stroke-miterlimit="10" stroke-linecap="round"/>
<path d="M126.443 233.086L116.002 228.487C113.085 227.333 110.583 225.329 108.819 222.734C107.056 220.14 106.113 217.076 106.113 213.939C106.113 213.7 106.113 213.457 106.113 213.214C106.302 209.117 108.093 205.259 111.101 202.471L139.488 172.876C146.644 165.042 152.529 162.901 161.657 163.233L191.833 164.294C193.653 164.366 195.431 164.86 197.027 165.737C198.623 166.614 199.993 167.851 201.028 169.349C202.064 170.847 202.737 172.565 202.994 174.368C203.251 176.17 203.086 178.008 202.51 179.736L178.1 253.176H163.765C161.448 253.176 159.144 253.526 156.932 254.214L122.845 264.831C122.537 264.927 122.208 264.941 121.893 264.871C121.577 264.801 121.285 264.65 121.046 264.433C120.807 264.215 120.629 263.939 120.529 263.632C120.429 263.324 120.412 262.996 120.478 262.68L126.443 233.086Z" fill="#B15EFF"/>
<path d="M135.581 213.387L131.88 210.893" stroke="white" stroke-width="1.80225" stroke-miterlimit="10" stroke-linecap="round"/>
<path d="M168.444 249.768L175.161 239.297L135.591 213.387L159.097 194.453C164.304 189.951 167.493 184.172 166.665 178.911" stroke="white" stroke-width="1.80225" stroke-miterlimit="10" stroke-linecap="round"/>
<path d="M162.625 247.111L169.229 236.89" stroke="white" stroke-width="1.80225" stroke-miterlimit="10" stroke-linecap="round"/>
<path d="M195.836 200.379H152.004" stroke="white" stroke-width="1.80225" stroke-miterlimit="10" stroke-linecap="round"/>
<path d="M193.716 206.218H144.573" stroke="white" stroke-width="1.87208" stroke-miterlimit="10" stroke-linecap="round"/>
<path d="M176.431 239.3L184.149 248.687C185.136 250.047 185.566 251.733 185.349 253.399L184.554 261.852C184.539 261.965 184.499 262.073 184.435 262.168C184.372 262.263 184.288 262.342 184.19 262.399C184.091 262.457 183.981 262.491 183.867 262.499C183.753 262.507 183.639 262.49 183.534 262.447L177.628 260.705C176.977 260.439 176.427 259.975 176.056 259.377C175.686 258.78 175.515 258.081 175.566 257.379L175.773 255.052L170.057 250.327C169.886 250.187 169.774 249.988 169.742 249.77C169.709 249.552 169.759 249.33 169.88 249.146L176.431 239.3Z" fill="#FFDEDF"/>
<path d="M183.483 254.669L182.745 261.692C182.682 262.178 181.681 262.407 181.229 262.224" stroke="#B4702F" stroke-width="1.08069" stroke-miterlimit="10" stroke-linecap="round"/>
<path d="M181.199 253.878L180.508 261.164C180.493 261.277 180.452 261.385 180.388 261.481C180.325 261.576 180.241 261.655 180.142 261.713C180.043 261.77 179.932 261.804 179.818 261.812C179.704 261.82 179.589 261.802 179.483 261.759" stroke="#B4702F" stroke-width="1.08069" stroke-miterlimit="10" stroke-linecap="round"/>
<path d="M179.048 253.266L178.513 259.777C178.449 260.262 177.475 260.488 177.475 260.488" stroke="#B4702F" stroke-width="1.08069" stroke-miterlimit="10" stroke-linecap="round"/>
<path d="M204.455 146.607C204.424 147.752 204.799 148.871 205.513 149.766L206.667 151.216C206.765 151.338 206.831 151.483 206.86 151.637C206.888 151.792 206.878 151.95 206.831 152.1C206.783 152.249 206.699 152.385 206.586 152.494C206.473 152.603 206.336 152.683 206.185 152.725L204.273 153.271L204.223 156.692C204.2 158.254 203.561 159.743 202.446 160.836C201.331 161.929 199.829 162.537 198.267 162.528L194.699 162.508L186.795 186.43L185.771 181.079C185.068 177.404 183.331 174.005 180.765 171.281C178.198 168.558 174.908 166.623 171.28 165.704L161.245 163.246H165.092C167.261 163.252 169.35 162.424 170.925 160.933C172.501 159.442 173.444 157.402 173.558 155.236L176.7 153.457C176.198 152.821 175.884 152.057 175.795 151.252C175.706 150.447 175.845 149.633 176.196 148.903C176.547 148.173 177.097 147.556 177.781 147.123C178.466 146.69 179.258 146.458 180.069 146.454H180.94C181.785 146.455 182.611 146.704 183.316 147.17C184.021 147.636 184.574 148.298 184.907 149.074C186.487 148.436 187.839 147.34 188.792 145.926C189.744 144.513 190.252 142.848 190.25 141.144V138.929C190.25 138.305 190.099 137.691 189.809 137.139C189.52 136.586 189.1 136.112 188.588 135.757L197.19 134.616C198.116 134.494 199.057 134.572 199.95 134.844C200.843 135.117 201.668 135.578 202.367 136.197C203.067 136.815 203.626 137.576 204.006 138.429C204.387 139.282 204.579 140.207 204.572 141.14L204.455 146.607Z" fill="#FFDEDF"/>
<path d="M194.7 162.508L192.772 168.348L186.391 158.372C187.287 159.538 188.418 160.503 189.71 161.206C191.002 161.909 192.426 162.333 193.892 162.452L194.7 162.508Z" fill="#B4702F"/>
<path d="M179.534 149.314C180.342 149.314 181.116 149.635 181.687 150.206C182.259 150.777 182.58 151.552 182.58 152.36" stroke="#B4702F" stroke-width="1.12392" stroke-miterlimit="10" stroke-linecap="round"/>
<path d="M180.115 151.758L181.622 150.142" stroke="#B4702F" stroke-width="1.12392" stroke-miterlimit="10" stroke-linecap="round"/>
<path d="M198.973 142.285L203.079 141.62L203.242 142.627C203.297 142.962 203.216 143.305 203.017 143.581C202.819 143.856 202.519 144.042 202.184 144.096L197.638 144.833L197.546 144.268C197.473 143.816 197.582 143.354 197.849 142.982C198.117 142.61 198.521 142.36 198.973 142.285Z" fill="#B4702F"/>
<path d="M200.399 148.181C200.884 148.181 201.277 147.704 201.277 147.117C201.277 146.529 200.884 146.052 200.399 146.052C199.915 146.052 199.521 146.529 199.521 147.117C199.521 147.704 199.915 148.181 200.399 148.181Z" fill="#251D18"/>
<path d="M204.173 155.655C203.269 155.655 201.905 154.631 201.619 153.414" stroke="#B4702F" stroke-width="1.227" stroke-miterlimit="10"/>
<path d="M206.574 131.857C206.574 133.007 206.233 134.133 205.594 135.09C204.956 136.048 204.049 136.795 202.986 137.238C201.924 137.681 200.755 137.8 199.625 137.579C198.495 137.359 197.456 136.809 196.638 136C195.743 136.886 194.585 137.459 193.337 137.633C192.089 137.807 190.819 137.572 189.715 136.964C189.905 137.284 190.048 137.63 190.138 137.992C190.212 138.297 190.25 138.611 190.251 138.926V141.323C190.215 142.996 189.69 144.622 188.74 146C187.791 147.377 186.458 148.446 184.907 149.074C184.575 148.297 184.022 147.634 183.317 147.168C182.612 146.702 181.785 146.452 180.94 146.451H180.069C179.259 146.455 178.466 146.687 177.782 147.12C177.097 147.553 176.548 148.17 176.197 148.9C175.845 149.63 175.706 150.444 175.796 151.249C175.885 152.054 176.198 152.818 176.7 153.454L173.558 155.233L172.487 141.679C172.424 136.691 174.586 133.941 177.751 132.345C177.751 132.186 177.731 132.013 177.731 131.857C177.733 130.659 178.103 129.491 178.791 128.511C179.48 127.531 180.453 126.787 181.58 126.381C182.706 125.974 183.93 125.923 185.086 126.237C186.242 126.55 187.273 127.212 188.039 128.132C188.555 127.509 189.196 127.001 189.919 126.639C190.643 126.277 191.434 126.07 192.242 126.03C193.05 125.991 193.857 126.12 194.612 126.41C195.367 126.7 196.054 127.144 196.628 127.713C197.446 126.904 198.485 126.354 199.615 126.134C200.745 125.913 201.914 126.032 202.976 126.475C204.039 126.918 204.946 127.665 205.584 128.623C206.223 129.581 206.564 130.706 206.564 131.857H206.574Z" fill="#B4702F"/>
<path d="M193.057 376.249L260.017 359.976L261.081 364.222L194.118 380.499L193.057 376.249Z" stroke="#251D18" stroke-width="1.80225" stroke-miterlimit="10" stroke-linecap="round"/>
<path d="M135.231 321.96C137.455 319.737 137.455 316.133 135.231 313.91C133.008 311.686 129.404 311.686 127.181 313.91C124.957 316.133 124.957 319.737 127.181 321.96C129.404 324.183 133.008 324.183 135.231 321.96Z" stroke="#251D18" stroke-width="2.16138" stroke-miterlimit="10" stroke-linecap="round"/>
<path d="M69.6594 168.368H76.1535C79.3143 168.367 82.3887 169.399 84.9095 171.306C87.4303 173.213 89.2596 175.89 90.1193 178.932L112.175 260.399C114.19 267.824 118.592 274.379 124.702 279.054C130.811 283.728 138.29 286.263 145.983 286.266H180.402" stroke="#251D18" stroke-width="2.16138" stroke-miterlimit="10" stroke-linecap="round"/>
<path d="M203.715 286.265C201.443 280.423 198.394 274.251 194.63 268.974" stroke="white" stroke-width="1.80225" stroke-miterlimit="10" stroke-linecap="round"/>
<path d="M131.621 397.903C170.172 397.903 201.423 362.734 201.423 319.352C201.423 275.969 170.172 240.801 131.621 240.801C93.07 240.801 61.8184 275.969 61.8184 319.352C61.8184 362.734 93.07 397.903 131.621 397.903Z" stroke="#B4702F" stroke-width="2.16138" stroke-miterlimit="10" stroke-linecap="round"/>
<path d="M138.441 236.092H114.393C113.716 236.092 113.066 235.823 112.587 235.344C112.108 234.865 111.839 234.216 111.839 233.538V233.538C111.839 233.203 111.905 232.871 112.034 232.562C112.162 232.252 112.35 231.971 112.587 231.734C112.824 231.497 113.106 231.309 113.416 231.181C113.726 231.053 114.058 230.987 114.393 230.988" stroke="#251D18" stroke-width="1.80225" stroke-miterlimit="10" stroke-linecap="round"/>
<path d="M37.9951 191.389C39.5029 188.394 38.297 184.743 35.3018 183.236C32.3065 181.728 28.6561 182.934 27.1483 185.929C25.6405 188.924 26.8464 192.575 29.8416 194.082C32.8369 195.59 36.4874 194.384 37.9951 191.389Z" stroke="#E2E3DE" stroke-width="1.61937" stroke-miterlimit="10"/>
<path d="M26.4989 187.827L18.0064 215.36C17.5936 216.698 17.5007 218.114 17.7352 219.494C17.9696 220.875 18.5248 222.181 19.3562 223.308C20.1875 224.434 21.2717 225.35 22.5216 225.981C23.7714 226.612 25.152 226.941 26.5521 226.942H38.5794C39.9804 226.943 41.3621 226.615 42.6132 225.985C43.8644 225.354 44.9499 224.438 45.7824 223.312C46.6148 222.185 47.1709 220.878 47.4059 219.497C47.6409 218.116 47.5481 216.699 47.1351 215.36L38.6425 187.827" stroke="#E2E3DE" stroke-width="1.61937" stroke-miterlimit="10"/>
<path d="M36.6409 180.698L24.7168 221.562" stroke="#B4702F" stroke-width="1.26025" stroke-miterlimit="10"/>
<path d="M37.8514 168.628C37.9079 170.54 41.4559 173.336 41.4559 173.336C41.4559 173.336 44.8376 170.344 44.7811 168.422C44.7538 167.503 44.3625 166.632 43.6934 166.002C43.0243 165.371 42.1321 165.033 41.2132 165.06C40.2942 165.087 39.4238 165.478 38.7933 166.148C38.1629 166.817 37.824 167.709 37.8514 168.628Z" fill="#FFA33C"/>
<path d="M45.1169 179.878C45.0604 177.962 41.5124 175.166 41.5124 175.166C41.5124 175.166 38.1307 178.159 38.1872 180.081C38.2005 180.536 38.3034 180.983 38.4898 181.399C38.6762 181.814 38.9426 182.189 39.2738 182.501C39.6049 182.813 39.9944 183.057 40.4198 183.219C40.8453 183.381 41.2985 183.457 41.7535 183.444C42.2085 183.431 42.6564 183.328 43.0717 183.141C43.487 182.955 43.8615 182.689 44.1738 182.357C44.4861 182.026 44.7302 181.637 44.892 181.211C45.0538 180.786 45.1302 180.333 45.1169 179.878Z" fill="#FFA33C"/>
<path d="M46.7995 170.627C44.8875 170.683 42.0911 174.235 42.0911 174.235C42.0911 174.235 45.0837 177.613 47.0057 177.56C47.4607 177.546 47.9086 177.443 48.3238 177.257C48.739 177.07 49.1134 176.803 49.4255 176.472C49.7377 176.141 49.9815 175.751 50.1432 175.326C50.3048 174.9 50.381 174.447 50.3675 173.992C50.3539 173.537 50.2509 173.089 50.0643 172.674C49.8776 172.259 49.6111 171.884 49.2797 171.572C48.9484 171.26 48.5589 171.016 48.1333 170.854C47.7078 170.693 47.2545 170.617 46.7995 170.63V170.627Z" fill="#FFA33C"/>
<path d="M36.1691 177.875C38.0811 177.819 40.8775 174.271 40.8775 174.271C40.8775 174.271 37.8849 170.889 35.9629 170.946C35.5079 170.959 35.06 171.062 34.6448 171.249C34.2296 171.435 33.8552 171.702 33.5431 172.033C33.2309 172.365 32.987 172.754 32.8254 173.18C32.6638 173.605 32.5876 174.058 32.6011 174.513C32.6147 174.968 32.7177 175.416 32.9043 175.832C33.091 176.247 33.3575 176.621 33.6889 176.933C34.0202 177.245 34.4097 177.489 34.8353 177.651C35.2608 177.813 35.7141 177.889 36.1691 177.875Z" fill="#FFA33C"/>
<path d="M42.0111 176.334C43.1703 176.049 43.8795 174.879 43.5949 173.719C43.3104 172.56 42.14 171.851 40.9807 172.136C39.8214 172.42 39.1123 173.591 39.3968 174.75C39.6813 175.909 40.8518 176.618 42.0111 176.334Z" fill="#B4702F"/>
<path d="M36.9236 213.15L27.7693 175.897" stroke="#B4702F" stroke-width="1.26025" stroke-miterlimit="10"/>
<path d="M19.8359 159.288C19.9689 161.283 23.8062 164.099 23.8062 164.099C23.8062 164.099 27.2445 160.817 27.1115 158.806C26.9768 157.897 26.5049 157.072 25.7897 156.495C25.0744 155.918 24.1683 155.631 23.2514 155.692C22.3345 155.753 21.4741 156.157 20.8412 156.823C20.2084 157.489 19.8495 158.369 19.8359 159.288Z" fill="#E2E3DE"/>
<path d="M27.9026 170.833C27.7695 168.808 23.9489 166.018 23.9489 166.018C23.9489 166.018 20.5106 169.304 20.6437 171.312C20.6358 171.817 20.7327 172.319 20.9283 172.785C21.1239 173.251 21.414 173.671 21.7802 174.02C22.1464 174.368 22.5808 174.636 23.056 174.808C23.5312 174.98 24.0369 175.052 24.5411 175.019C25.0454 174.986 25.5373 174.848 25.9859 174.616C26.4345 174.383 26.8299 174.06 27.1473 173.666C27.4647 173.273 27.6971 172.818 27.83 172.331C27.9628 171.843 27.9932 171.333 27.9192 170.833H27.9026Z" fill="#E2E3DE"/>
<path d="M29.3184 161.047C27.3233 161.18 24.5068 165.018 24.5068 165.018C24.5068 165.018 27.7888 168.456 29.7972 168.323C30.706 168.188 31.5308 167.717 32.1078 167.002C32.6847 166.287 32.9716 165.381 32.9112 164.464C32.8509 163.548 32.4478 162.687 31.7822 162.054C31.1165 161.421 30.237 161.062 29.3184 161.047Z" fill="#E2E3DE"/>
<path d="M18.4191 169.071C20.4142 168.941 23.2307 165.1 23.2307 165.1C23.2307 165.1 19.9487 161.665 17.9403 161.795C17.435 161.787 16.9335 161.884 16.4675 162.08C16.0016 162.275 15.5812 162.565 15.2329 162.932C14.8846 163.298 14.616 163.732 14.444 164.207C14.272 164.683 14.2003 165.188 14.2335 165.693C14.2667 166.197 14.404 166.689 14.6368 167.137C14.8696 167.586 15.1928 167.981 15.5861 168.299C15.9794 168.616 16.4342 168.849 16.9218 168.981C17.4094 169.114 17.9192 169.145 18.4191 169.071Z" fill="#E2E3DE"/>
<path d="M25.8543 166.159C26.4684 165.063 26.078 163.677 24.9823 163.063C23.8865 162.449 22.5004 162.839 21.8862 163.935C21.272 165.031 21.6624 166.417 22.7582 167.031C23.854 167.645 25.2401 167.255 25.8543 166.159Z" fill="#B4702F"/>
<path d="M26.4995 188.629C26.4995 190.239 27.1392 191.784 28.2779 192.922C29.4166 194.061 30.961 194.701 32.5713 194.701C34.1817 194.701 35.7261 194.061 36.8647 192.922C38.0034 191.784 38.6431 190.239 38.6431 188.629" stroke="#E2E3DE" stroke-width="1.61937" stroke-miterlimit="10"/>
<path d="M123.47 99.6478C128.72 94.3977 128.72 85.8855 123.47 80.6354C118.22 75.3853 109.708 75.3853 104.458 80.6354C99.2077 85.8855 99.2077 94.3977 104.458 99.6478C109.708 104.898 118.22 104.898 123.47 99.6478Z" fill="#EDEEEA" fill-opacity="0.88"/>
<path d="M142.079 90.424H85.8502C85.0702 90.4234 84.3037 90.2202 83.6258 89.8343C82.9479 89.4483 82.382 88.8929 81.9833 88.2224C81.5847 87.5519 81.3671 86.7893 81.3519 86.0095C81.3367 85.2296 81.5244 84.4591 81.8966 83.7736L97.8076 54.585C98.5587 53.2073 99.6673 52.0574 101.017 51.2563C102.366 50.4552 103.906 50.0326 105.475 50.0328H122.454C124.023 50.0326 125.563 50.4552 126.913 51.2563C128.262 52.0574 129.371 53.2073 130.122 54.585L146.033 83.7736C146.405 84.4591 146.593 85.2296 146.577 86.0095C146.562 86.7893 146.345 87.5519 145.946 88.2224C145.547 88.8929 144.981 89.4483 144.304 89.8343C143.626 90.2202 142.859 90.4234 142.079 90.424V90.424Z" stroke="#B15EFF" stroke-width="1.80225" stroke-miterlimit="10"/>
<path d="M132.815 90.4239H94.6023L107.438 50.0261H119.98L132.815 90.4239Z" stroke="#B15EFF" stroke-width="1.80225" stroke-miterlimit="10"/>
<path d="M114.061 50.0261V90.4239" stroke="#B15EFF" stroke-width="1.80225" stroke-miterlimit="10"/>
<path d="M113.965 43.2025V13.1826" stroke="#E2E3DE" stroke-width="1.80225" stroke-miterlimit="10"/>
<path d="M485.372 112.452L469.697 111.033L471.925 122.305C472.471 125.058 473.789 127.599 475.725 129.632C477.661 131.664 480.135 133.104 482.858 133.784L488.554 135.203L485.372 112.452Z" fill="#251D18"/>
<path d="M483.042 356.199L474.29 268.54L466.678 265.88C456.357 262.28 447.411 255.558 441.081 246.646C434.75 237.734 431.349 227.073 431.348 216.142V126.152C431.349 125.248 431.709 124.381 432.348 123.741C432.988 123.101 433.855 122.742 434.76 122.741H439.003C442.311 122.741 445.524 123.842 448.137 125.87C450.75 127.898 452.614 130.739 453.434 133.943L463.077 176.263C463.918 179.951 465.986 183.245 468.943 185.604C471.901 187.963 475.571 189.248 479.354 189.248C481.848 189.248 484.311 188.69 486.561 187.614C488.811 186.537 490.792 184.971 492.357 183.028C493.922 181.086 495.032 178.818 495.605 176.391C496.179 173.963 496.201 171.438 495.671 169.001L484.242 116.463L477.179 112.762C472.329 109.704 468.795 104.947 467.267 99.4211L463.543 85.9607C463.419 85.5127 463.425 85.0388 463.56 84.5941C463.695 84.1493 463.953 83.7519 464.305 83.448C464.656 83.144 465.087 82.9461 465.546 82.877C466.006 82.808 466.476 82.8707 466.901 83.0578L499.977 97.6488C501.513 98.3224 502.885 99.3202 504 100.574C505.114 101.827 505.945 103.307 506.434 104.911L508.293 111.033L527.716 113.51C529.202 113.7 530.612 114.282 531.799 115.196C532.987 116.109 533.911 117.322 534.476 118.711L537.871 127.043L553.167 131.725C556.747 132.821 559.88 135.041 562.101 138.056C564.322 141.07 565.514 144.72 565.5 148.464L565.121 255.359L603.42 333.299L483.042 356.199Z" fill="#FFDEDF"/>
<path d="M431.347 137.103C434.377 137.103 436.831 139.723 436.831 141C435.126 141.85 433.252 142.304 431.347 142.33V137.103Z" fill="white"/>
<path d="M509.303 111.542L519.568 148.022" stroke="#251D18" stroke-width="2.16138" stroke-miterlimit="10" stroke-linecap="round"/>
<path d="M539.386 128.573L545.837 152.292" stroke="#251D18" stroke-width="2.16138" stroke-miterlimit="10" stroke-linecap="round"/>
<path d="M431.926 126.026C436.698 126.026 440.572 129.654 440.572 134.13C440.572 138.605 436.701 142.236 431.926 142.236" stroke="#251D18" stroke-width="2.16138" stroke-miterlimit="10" stroke-linecap="round"/>
<path d="M476.175 87.9524C473.315 90.4729 469.378 90.9816 466.661 88.95" stroke="#251D18" stroke-width="2.16138" stroke-miterlimit="10" stroke-linecap="round"/>
<path d="M493.239 269.595C493.239 269.595 478.765 271.923 466.678 265.887" stroke="#251D18" stroke-width="2.16138" stroke-miterlimit="10" stroke-linecap="round"/>
<path d="M463.06 360L613.748 331.334L629.399 374.897L463.06 375.918V360Z" fill="#B15EFF"/>
<path d="M479.822 381.232V401.605" stroke="#B15EFF" stroke-width="1.80225" stroke-miterlimit="10"/>
<path d="M607.249 360.33C610.81 356.769 610.81 350.996 607.249 347.436C603.688 343.875 597.915 343.875 594.355 347.436C590.794 350.996 590.794 356.769 594.355 360.33C597.915 363.891 603.688 363.891 607.249 360.33Z" stroke="white" stroke-width="2.16138" stroke-miterlimit="10"/>
<path d="M483.605 220.95L475.119 222.499C473.527 222.79 471.884 222.437 470.552 221.516C469.22 220.596 468.308 219.184 468.017 217.591L438.383 55.4185C438.113 53.941 438.17 52.4221 438.552 50.9694L442.177 37.1665L443.297 32.897C443.396 32.599 443.574 32.3331 443.811 32.1272C444.048 31.9212 444.336 31.7828 444.645 31.7264C444.954 31.67 445.273 31.6976 445.567 31.8064C445.862 31.9153 446.122 32.1013 446.32 32.345L448.907 36.1324L457.389 48.5088C458.203 49.698 458.757 51.0451 459.016 52.4624L488.507 213.857C488.795 215.447 488.441 217.087 487.522 218.417C486.603 219.746 485.195 220.657 483.605 220.95Z" fill="#B4702F"/>
<path d="M458.57 50.7863L454.965 48.6682C454.702 48.4976 454.383 48.4339 454.074 48.4901C453.765 48.5463 453.489 48.7182 453.303 48.9708L451.035 52.0832C450.885 52.2838 450.664 52.4205 450.418 52.466C450.172 52.5116 449.917 52.4628 449.705 52.3292L446.476 50.2277C446.213 50.0563 445.894 49.9921 445.585 50.0484C445.276 50.1047 445 50.2771 444.814 50.5303L442.642 53.5063C442.492 53.7069 442.272 53.8436 442.025 53.8892C441.779 53.9348 441.524 53.886 441.312 53.7524L438.349 51.8238C438.399 51.5312 438.462 51.2452 438.539 50.9592L442.163 37.1564L443.287 32.8901C443.385 32.5919 443.562 32.3255 443.799 32.1191C444.035 31.9127 444.323 31.7738 444.632 31.717C444.941 31.6602 445.259 31.6876 445.554 31.7963C445.849 31.905 446.109 32.091 446.307 32.3348L448.907 36.1322L457.389 48.5086C457.878 49.2147 458.275 49.9801 458.57 50.7863Z" fill="white"/>
<path d="M466.849 211.227L487.346 207.487" stroke="#FFA33C" stroke-width="3.60118" stroke-miterlimit="10"/>
<path d="M488.238 212.182L467.741 215.926L468.476 219.986C468.721 221.333 469.228 222.619 469.97 223.771C470.711 224.922 471.673 225.916 472.799 226.695C473.925 227.474 475.193 228.024 476.532 228.313C477.87 228.602 479.253 228.624 480.6 228.379C483.314 227.883 485.721 226.33 487.292 224.061C488.863 221.793 489.47 218.994 488.979 216.278L488.238 212.182Z" fill="#B15EFF"/>
<path d="M480.101 225.418C482.196 225.035 484.053 223.836 485.265 222.085C486.478 220.334 486.946 218.174 486.568 216.078" stroke="white" stroke-width="1.80225" stroke-miterlimit="10" stroke-linecap="round"/>
<path d="M449.998 94.1642L457.592 135.732" stroke="white" stroke-width="1.80225" stroke-miterlimit="10" stroke-linecap="round"/>
<path d="M448.694 86.636L449.126 89.0035" stroke="white" stroke-width="1.80225" stroke-miterlimit="10" stroke-linecap="round"/>
<path d="M448.907 36.1326L448.574 36.6313C447.971 37.5174 447.04 38.1276 445.987 38.3278C444.934 38.5279 443.845 38.3017 442.958 37.6987L442.177 37.1667L443.507 31.9328C443.575 31.6643 443.721 31.4219 443.926 31.2357C444.131 31.0495 444.386 30.9279 444.66 30.8861C444.934 30.8442 445.214 30.8839 445.466 31.0003C445.717 31.1167 445.929 31.3046 446.074 31.5405L448.907 36.1326Z" fill="#FFA33C"/>
</svg>
