<svg width="607" height="490" viewBox="0 0 607 490" fill="none" xmlns="http://www.w3.org/2000/svg">
<path d="M576.062 76.1226H500.045C500.045 67.7464 510.183 60.9564 522.69 60.9564C526.829 60.9206 530.934 61.7119 534.763 63.284C537.501 59.3022 541.44 56.3006 546.005 54.718C550.571 53.1355 555.523 53.055 560.137 54.4884C564.752 55.9218 568.787 58.7938 571.652 62.6846C574.517 66.5753 576.063 71.2807 576.062 76.1126V76.1226Z" fill="#EDEEEA" fill-opacity="0.88"/>
<path d="M135.172 95.691H33.9961C33.9961 86.6631 43.2102 79.3444 54.579 79.3444C57.0565 79.3381 59.5214 79.6966 61.8945 80.4085C65.6652 74.8487 71.4544 71.2908 77.9418 71.2908C87.6846 71.2908 95.8447 79.3145 97.9794 90.0947C101.724 87.4346 107.765 85.3464 114.582 85.3464C125.954 85.353 135.172 91.1854 135.172 95.691Z" fill="#EDEEEA" fill-opacity="0.88"/>
<path d="M118.29 489.242C150.968 489.242 177.459 449.698 177.459 400.918C177.459 352.138 150.968 312.594 118.29 312.594C85.6125 312.594 59.1218 352.138 59.1218 400.918C59.1218 449.698 85.6125 489.242 118.29 489.242Z" fill="#EDEEEA" fill-opacity="0.88"/>
<path d="M578.104 489.246C578.104 434.078 547.143 389.354 508.94 389.354C470.737 389.354 439.776 434.078 439.776 489.246H578.104Z" fill="#E2E3DE"/>
<path d="M125.692 489.245C125.692 455.112 97.5578 427.443 62.8461 427.443C28.1345 427.443 0 455.112 0 489.245H125.692Z" fill="#E2E3DE"/>
<path d="M262.601 489.245H131.821C144.161 466.69 168.814 451.308 197.211 451.308C225.608 451.308 250.261 466.69 262.601 489.245Z" fill="#EDEEEA" fill-opacity="0.88"/>
<path d="M532.626 489.245H414.914C426.02 466.69 448.209 451.308 473.77 451.308C499.331 451.308 521.52 466.69 532.626 489.245Z" fill="#EDEEEA" fill-opacity="0.88"/>
<path d="M112.577 436.512V489.246" stroke="#FFA33C" stroke-width="1.24362" stroke-miterlimit="10" stroke-linecap="round"/>
<path d="M121.466 454.747L112.577 466.272" stroke="#FFA33C" stroke-width="1.24362" stroke-miterlimit="10" stroke-linecap="round"/>
<path d="M112.578 489.245L96.3579 473.63" stroke="#FFA33C" stroke-width="1.24362" stroke-miterlimit="10" stroke-linecap="round"/>
<path d="M112.578 433.146C117.487 433.146 121.466 429.167 121.466 424.258C121.466 419.349 117.487 415.37 112.578 415.37C107.669 415.37 103.69 419.349 103.69 424.258C103.69 429.167 107.669 433.146 112.578 433.146Z" fill="white"/>
<path d="M112.577 415.372V433.146" stroke="#FFA33C" stroke-width="0.711591" stroke-miterlimit="10" stroke-linecap="round"/>
<path d="M103.693 424.258H121.466" stroke="#FFA33C" stroke-width="0.711591" stroke-miterlimit="10" stroke-linecap="round"/>
<path d="M106.293 417.973L118.862 430.543" stroke="#FFA33C" stroke-width="0.711591" stroke-miterlimit="10" stroke-linecap="round"/>
<path d="M106.293 430.543L118.862 417.973" stroke="#FFA33C" stroke-width="0.711591" stroke-miterlimit="10" stroke-linecap="round"/>
<path d="M113.836 427.298C115.514 426.603 116.31 424.679 115.615 423.001C114.92 421.323 112.997 420.526 111.319 421.221C109.641 421.916 108.844 423.84 109.539 425.518C110.234 427.196 112.158 427.993 113.836 427.298Z" fill="white"/>
<path d="M112.577 426.036C113.56 426.036 114.356 425.239 114.356 424.257C114.356 423.274 113.56 422.478 112.577 422.478C111.595 422.478 110.798 423.274 110.798 424.257C110.798 425.239 111.595 426.036 112.577 426.036Z" fill="#FFA33C"/>
<path d="M128.974 455.454C133.883 455.454 137.863 451.475 137.863 446.566C137.863 441.657 133.883 437.678 128.974 437.678C124.066 437.678 120.086 441.657 120.086 446.566C120.086 451.475 124.066 455.454 128.974 455.454Z" fill="white"/>
<path d="M128.974 437.678V455.454" stroke="#FFA33C" stroke-width="0.711591" stroke-miterlimit="10" stroke-linecap="round"/>
<path d="M120.086 446.566H137.859" stroke="#FFA33C" stroke-width="0.711591" stroke-miterlimit="10" stroke-linecap="round"/>
<path d="M122.69 440.282L135.256 452.851" stroke="#FFA33C" stroke-width="0.711591" stroke-miterlimit="10" stroke-linecap="round"/>
<path d="M122.69 452.851L135.256 440.282" stroke="#FFA33C" stroke-width="0.711591" stroke-miterlimit="10" stroke-linecap="round"/>
<path d="M132.166 447.296C132.583 445.529 131.489 443.758 129.721 443.34C127.953 442.923 126.182 444.018 125.765 445.786C125.348 447.553 126.442 449.325 128.21 449.742C129.978 450.159 131.749 449.064 132.166 447.296Z" fill="white"/>
<path d="M128.975 448.346C129.957 448.346 130.753 447.549 130.753 446.567C130.753 445.584 129.957 444.788 128.975 444.788C127.992 444.788 127.196 445.584 127.196 446.567C127.196 447.549 127.992 448.346 128.975 448.346Z" fill="#FFA33C"/>
<path d="M87.8748 473.933C92.7837 473.933 96.7631 469.953 96.7631 465.044C96.7631 460.136 92.7837 456.156 87.8748 456.156C82.966 456.156 78.9866 460.136 78.9866 465.044C78.9866 469.953 82.966 473.933 87.8748 473.933Z" fill="white"/>
<path d="M87.875 456.159V473.932" stroke="#FFA33C" stroke-width="0.711591" stroke-miterlimit="10" stroke-linecap="round"/>
<path d="M78.9895 465.045H96.7627" stroke="#FFA33C" stroke-width="0.711591" stroke-miterlimit="10" stroke-linecap="round"/>
<path d="M81.5935 458.763L94.1594 471.329" stroke="#FFA33C" stroke-width="0.711591" stroke-miterlimit="10" stroke-linecap="round"/>
<path d="M81.5935 471.329L94.1594 458.763" stroke="#FFA33C" stroke-width="0.711591" stroke-miterlimit="10" stroke-linecap="round"/>
<path d="M91.0699 465.778C91.4871 464.01 90.3923 462.239 88.6246 461.822C86.8569 461.405 85.0857 462.499 84.6685 464.267C84.2513 466.035 85.3461 467.806 87.1138 468.223C88.8814 468.64 90.6527 467.546 91.0699 465.778Z" fill="white"/>
<path d="M87.8749 466.823C88.8574 466.823 89.6539 466.026 89.6539 465.044C89.6539 464.061 88.8574 463.265 87.8749 463.265C86.8924 463.265 86.0959 464.061 86.0959 465.044C86.0959 466.026 86.8924 466.823 87.8749 466.823Z" fill="#FFA33C"/>
<path d="M518.371 454.293V488.529" stroke="#FFA33C" stroke-width="1.24362" stroke-miterlimit="10" stroke-linecap="round"/>
<path d="M527.259 467.993L518.371 479.519" stroke="#FFA33C" stroke-width="1.24362" stroke-miterlimit="10" stroke-linecap="round"/>
<path d="M518.371 450.929C523.28 450.929 527.259 446.949 527.259 442.04C527.259 437.131 523.28 433.152 518.371 433.152C513.462 433.152 509.483 437.131 509.483 442.04C509.483 446.949 513.462 450.929 518.371 450.929Z" fill="white"/>
<path d="M518.371 433.152V450.929" stroke="#FFA33C" stroke-width="0.711591" stroke-miterlimit="10" stroke-linecap="round"/>
<path d="M509.487 442.041H527.26" stroke="#FFA33C" stroke-width="0.711591" stroke-miterlimit="10" stroke-linecap="round"/>
<path d="M512.09 435.756L524.656 448.325" stroke="#FFA33C" stroke-width="0.711591" stroke-miterlimit="10" stroke-linecap="round"/>
<path d="M512.09 448.325L524.656 435.756" stroke="#FFA33C" stroke-width="0.711591" stroke-miterlimit="10" stroke-linecap="round"/>
<path d="M521.547 442.768C521.965 441 520.87 439.229 519.102 438.812C517.334 438.395 515.563 439.49 515.146 441.257C514.729 443.025 515.824 444.796 517.591 445.213C519.359 445.631 521.13 444.536 521.547 442.768Z" fill="white"/>
<path d="M518.371 443.819C519.354 443.819 520.15 443.022 520.15 442.04C520.15 441.057 519.354 440.261 518.371 440.261C517.389 440.261 516.592 441.057 516.592 442.04C516.592 443.022 517.389 443.819 518.371 443.819Z" fill="#FFA33C"/>
<path d="M543.568 461.265C544.354 456.419 541.064 451.854 536.218 451.067C531.373 450.281 526.807 453.571 526.021 458.417C525.234 463.262 528.525 467.828 533.37 468.614C538.215 469.401 542.781 466.11 543.568 461.265Z" fill="white"/>
<path d="M534.768 450.929V468.702" stroke="#FFA33C" stroke-width="0.711591" stroke-miterlimit="10" stroke-linecap="round"/>
<path d="M525.879 459.814H543.652" stroke="#FFA33C" stroke-width="0.711591" stroke-miterlimit="10" stroke-linecap="round"/>
<path d="M528.482 453.528L541.052 466.098" stroke="#FFA33C" stroke-width="0.711591" stroke-miterlimit="10" stroke-linecap="round"/>
<path d="M528.482 466.098L541.052 453.528" stroke="#FFA33C" stroke-width="0.711591" stroke-miterlimit="10" stroke-linecap="round"/>
<path d="M536.026 462.854C537.704 462.159 538.501 460.235 537.805 458.557C537.11 456.879 535.187 456.082 533.509 456.778C531.831 457.473 531.034 459.396 531.729 461.074C532.424 462.752 534.348 463.549 536.026 462.854Z" fill="white"/>
<path d="M534.768 461.592C535.75 461.592 536.547 460.796 536.547 459.813C536.547 458.831 535.75 458.034 534.768 458.034C533.785 458.034 532.989 458.831 532.989 459.813C532.989 460.796 533.785 461.592 534.768 461.592Z" fill="#FFA33C"/>
<path d="M606.565 489.245H530.548C530.548 480.869 540.687 474.079 553.189 474.079C557.33 474.044 561.435 474.835 565.266 476.406C568.005 472.426 571.945 469.427 576.51 467.846C581.075 466.265 586.026 466.185 590.64 467.619C595.253 469.052 599.287 471.924 602.153 475.813C605.018 479.703 606.564 484.407 606.565 489.238V489.245Z" fill="#EDEEEA" fill-opacity="0.88"/>
<path d="M316.751 411.895L166.984 267.335L320.062 108.747C359.965 67.3883 425.867 66.2245 467.225 106.143C508.581 146.062 509.748 211.948 469.826 253.306L316.751 411.895Z" fill="#B15EFF"/>
<path d="M316.477 411.894L363.432 363.247C417.337 307.383 415.764 218.428 359.918 164.526L302.448 109.052C261.106 69.1333 195.204 70.2971 155.285 111.653C115.383 153.008 116.53 218.897 157.889 258.816L316.477 411.894Z" fill="#FFDEDF"/>
<path d="M148.812 470.927L154.847 483.509C154.958 483.741 155.129 483.938 155.343 484.08C155.557 484.222 155.805 484.304 156.061 484.317C156.318 484.33 156.573 484.273 156.8 484.153C157.027 484.034 157.217 483.855 157.351 483.635L164.061 472.609C164.518 471.858 165.162 471.236 165.929 470.805C166.696 470.374 167.561 470.148 168.44 470.148H168.637L185.183 407.851L155.841 404.812L149.48 467.399C149.36 468.592 149.136 469.772 148.812 470.927Z" fill="#B4702F"/>
<path d="M155.841 404.812L185.183 407.851L182.892 416.47L155.575 407.432L155.841 404.812Z" fill="#251D18"/>
<path d="M133.086 488.271H155.844C156.354 488.271 156.855 488.144 157.303 487.901C157.752 487.658 158.132 487.308 158.411 486.881L162.631 479.649C162.833 479.328 163.122 479.07 163.465 478.908C163.809 478.745 164.191 478.684 164.568 478.731C164.944 478.778 165.3 478.932 165.592 479.174C165.885 479.416 166.102 479.737 166.219 480.098L169.012 488.271H171.828L173.773 477.963C173.773 476.303 173.288 474.68 172.377 473.292C171.466 471.904 170.169 470.813 168.646 470.152H168.45C167.57 470.152 166.705 470.378 165.938 470.809C165.171 471.24 164.528 471.861 164.071 472.613L157.36 483.636C157.227 483.855 157.036 484.034 156.809 484.154C156.582 484.274 156.327 484.33 156.071 484.317C155.814 484.305 155.566 484.223 155.353 484.081C155.139 483.938 154.967 483.741 154.856 483.51L148.821 470.927C148.018 473.805 146.608 476.478 144.686 478.767C142.764 481.055 140.375 482.906 137.678 484.195L132.691 486.572C132.508 486.661 132.361 486.809 132.274 486.992C132.187 487.175 132.164 487.382 132.21 487.58C132.256 487.777 132.368 487.953 132.527 488.079C132.686 488.205 132.884 488.272 133.086 488.271Z" fill="#FFDEDF"/>
<path d="M157.603 488.271H131.73" stroke="#251D18" stroke-width="1.71912" stroke-miterlimit="10" stroke-linecap="round"/>
<path d="M171.818 488.271H169.002" stroke="#251D18" stroke-width="1.71912" stroke-miterlimit="10" stroke-linecap="round"/>
<path d="M168.44 469.66H148.579" stroke="#251D18" stroke-width="1.71912" stroke-miterlimit="10" stroke-linecap="round"/>
<path d="M266.905 470.927L260.87 483.509C260.759 483.741 260.588 483.938 260.374 484.08C260.16 484.222 259.912 484.304 259.656 484.317C259.399 484.33 259.144 484.274 258.917 484.154C258.69 484.034 258.5 483.855 258.366 483.636L251.656 472.609C251.199 471.858 250.556 471.236 249.789 470.805C249.022 470.374 248.157 470.148 247.277 470.149H247.081L230.534 407.851L259.876 404.812L266.237 467.399C266.358 468.592 266.581 469.772 266.905 470.927Z" fill="#B4702F"/>
<path d="M259.876 404.812L230.534 407.851L232.822 416.47L260.155 407.562L259.876 404.812Z" fill="#251D18"/>
<path d="M282.641 488.271H259.883C259.373 488.271 258.872 488.144 258.424 487.901C257.976 487.658 257.595 487.308 257.316 486.881L253.096 479.649C252.894 479.328 252.605 479.071 252.262 478.908C251.919 478.745 251.536 478.684 251.159 478.731C250.783 478.778 250.427 478.932 250.135 479.174C249.842 479.416 249.625 479.737 249.508 480.098L246.715 488.271H243.899L241.954 477.963C241.954 476.303 242.439 474.68 243.35 473.292C244.261 471.904 245.558 470.813 247.081 470.152H247.277C248.157 470.152 249.022 470.378 249.789 470.809C250.556 471.24 251.199 471.861 251.657 472.613L258.367 483.639C258.5 483.858 258.691 484.037 258.918 484.157C259.145 484.277 259.4 484.334 259.656 484.321C259.913 484.308 260.161 484.226 260.374 484.084C260.588 483.942 260.76 483.744 260.871 483.513L266.906 470.93C267.709 473.809 269.119 476.482 271.041 478.77C272.963 481.058 275.352 482.909 278.049 484.198L283.036 486.575C283.217 486.665 283.362 486.813 283.448 486.995C283.534 487.178 283.556 487.384 283.51 487.58C283.464 487.776 283.353 487.952 283.196 488.077C283.038 488.202 282.842 488.271 282.641 488.271Z" fill="#FFDEDF"/>
<path d="M257.794 488.271H284.127" stroke="#251D18" stroke-width="1.71912" stroke-miterlimit="10" stroke-linecap="round"/>
<path d="M243.899 488.271H246.716" stroke="#251D18" stroke-width="1.71912" stroke-miterlimit="10" stroke-linecap="round"/>
<path d="M247.081 469.66H266.906" stroke="#251D18" stroke-width="1.71912" stroke-miterlimit="10" stroke-linecap="round"/>
<path d="M272.019 402.783C254.608 405.992 236.976 407.86 219.279 408.372L206.55 305.511L195.088 408.362C162.833 407.365 141.077 402.773 141.077 402.773L174.501 203.128C175.324 198.196 177.871 193.716 181.69 190.488C185.509 187.26 190.35 185.494 195.35 185.505L221.097 185.561C226.137 185.573 231.006 187.388 234.823 190.679C238.64 193.969 241.153 198.518 241.906 203.501L272.019 402.783Z" fill="#FFA33C"/>
<path d="M235.717 191.915C232.003 196.215 221.466 198.898 208.085 198.898C194.904 198.898 184.31 196.019 180.376 191.716" stroke="#251D18" stroke-width="1.3733" stroke-miterlimit="10" stroke-linecap="round"/>
<path d="M241.61 213.07C237.515 213.07 233.579 211.483 230.629 208.643C227.679 205.802 225.944 201.93 225.788 197.838" stroke="#251D18" stroke-width="1.3733" stroke-miterlimit="10" stroke-linecap="round"/>
<path d="M174.178 213.07C178.273 213.07 182.209 211.483 185.159 208.643C188.109 205.802 189.844 201.93 189.999 197.838" stroke="#251D18" stroke-width="1.3733" stroke-miterlimit="10" stroke-linecap="round"/>
<path d="M218.164 399.38C218.164 399.38 247.093 397.531 270.659 393.787" stroke="#251D18" stroke-width="1.3733" stroke-miterlimit="10" stroke-linecap="round"/>
<path d="M196.088 398.892C196.088 398.892 160.841 398.337 142.726 392.927" stroke="#251D18" stroke-width="1.3733" stroke-miterlimit="10" stroke-linecap="round"/>
<path d="M175.599 152.054C170.255 145.936 167.668 139.831 168.45 131.744L168.998 126.25L139.198 151.449L167.043 176.72C169.835 179.182 171.535 182.651 171.769 186.366C172.003 190.081 170.751 193.736 168.29 196.528C165.829 199.32 162.359 201.02 158.644 201.254C154.929 201.488 151.274 200.237 148.482 197.775L112.696 167.15C110.655 165.405 108.996 163.259 107.82 160.845C106.645 158.431 105.979 155.801 105.864 153.118C105.75 150.436 106.188 147.758 107.153 145.252C108.118 142.747 109.588 140.467 111.472 138.554L150.69 100.68C160 91.2262 170.747 85.886 184.012 85.8527L228.622 85.7463C243.496 85.7097 255.889 90.4016 265.017 104.55L275.152 104.437C285.543 104.321 290.996 113.748 289.044 123.959L282.62 170.219C282.026 173.333 280.389 176.15 277.978 178.208C275.568 180.266 272.529 181.441 269.361 181.541C266.193 181.64 263.086 180.657 260.552 178.754C258.018 176.85 256.208 174.141 255.42 171.071L244.713 143.006C244.618 142.754 244.442 142.54 244.212 142.399C243.982 142.259 243.712 142.199 243.444 142.23C243.176 142.261 242.926 142.381 242.734 142.57C242.543 142.76 242.42 143.008 242.385 143.275L237.165 182.024C237.165 188.342 224.862 192.575 208.086 192.575C191.31 192.575 178.725 187.919 178.725 181.582L175.599 152.054Z" fill="#E2E3DE"/>
<path d="M256.992 146.435V113.925C256.992 112.618 257.255 111.325 257.764 110.122C258.273 108.919 259.019 107.831 259.958 106.922C260.896 106.013 262.008 105.302 263.226 104.832C264.445 104.361 265.745 104.14 267.051 104.182" stroke="#251D18" stroke-width="1.3733" stroke-miterlimit="10" stroke-linecap="round"/>
<path d="M228.3 134.265L221.556 127.505C221.128 127.071 220.803 126.547 220.604 125.971C220.404 125.395 220.336 124.782 220.404 124.177C220.471 123.571 220.673 122.989 220.995 122.471C221.316 121.954 221.749 121.514 222.262 121.186C222.775 120.857 223.355 120.647 223.96 120.57C224.564 120.494 225.178 120.554 225.757 120.745C226.335 120.937 226.864 121.255 227.304 121.676C227.744 122.098 228.084 122.612 228.3 123.182C228.642 122.262 229.303 121.494 230.162 121.017C231.024 120.538 232.032 120.386 232.998 120.59C233.964 120.794 234.823 121.341 235.418 122.129C236.013 122.917 236.303 123.893 236.234 124.878C236.166 125.863 235.744 126.79 235.046 127.488L228.3 134.265Z" fill="white"/>
<path d="M140.155 151.45L134.622 146.804" stroke="#251D18" stroke-width="1.3733" stroke-miterlimit="10" stroke-linecap="round"/>
<path d="M231.192 52.0192C237.778 52.0192 243.116 47.8612 243.116 42.732C243.116 37.6028 237.778 33.4447 231.192 33.4447C224.607 33.4447 219.268 37.6028 219.268 42.732C219.268 47.8612 224.607 52.0192 231.192 52.0192Z" fill="#251D18"/>
<path d="M213.489 71.4783C224.928 71.4783 234.202 62.9642 234.202 52.4615C234.202 41.9588 224.928 33.4447 213.489 33.4447C202.05 33.4447 192.776 41.9588 192.776 52.4615C192.776 62.9642 202.05 71.4783 213.489 71.4783Z" fill="#251D18"/>
<path d="M194.225 56.4881C197.345 48.9342 193.751 40.2812 186.197 37.1611C178.643 34.041 169.99 37.6353 166.87 45.1892C163.75 52.7432 167.344 61.3962 174.898 64.5163C182.452 67.6364 191.105 64.042 194.225 56.4881Z" fill="#251D18"/>
<path d="M172.688 55.5935C175.83 48.0077 172.228 39.311 164.642 36.1689C157.056 33.0268 148.36 36.6291 145.218 44.2148C142.076 51.8006 145.678 60.4973 153.264 63.6394C160.849 66.7815 169.546 63.1793 172.688 55.5935Z" fill="#251D18"/>
<path d="M143.281 47.1642L146.023 49.9058L143.274 52.6544C142.381 53.548 141.169 54.05 139.905 54.05C138.641 54.05 137.429 53.548 136.535 52.6544L133.794 49.9128L136.542 47.1642C137.436 46.2706 138.648 45.7685 139.912 45.7685C141.176 45.7685 142.388 46.2706 143.281 47.1642Z" fill="#251D18"/>
<path d="M234.274 54.8194C234.346 55.7031 234.665 56.5488 235.194 57.2602C235.723 57.9715 236.441 58.5199 237.267 58.8429C237.421 58.9342 237.549 59.0629 237.639 59.2171C237.73 59.3713 237.779 59.5458 237.784 59.7245C237.789 59.9032 237.748 60.0801 237.666 60.2388C237.583 60.3975 237.462 60.5327 237.314 60.6318L234.321 62.627L234.394 70.2051C234.402 70.6907 234.314 71.1731 234.134 71.6242C233.954 72.0753 233.686 72.486 233.345 72.8324C233.005 73.1788 232.599 73.4539 232.151 73.6416C231.703 73.8294 231.222 73.926 230.736 73.926H225.359V89.7073L209.818 108.461L190.581 89.7073L204.62 65.4334C203.36 65.4325 202.151 64.9312 201.26 64.0395C200.369 63.1479 199.869 61.9389 199.869 60.6784V60.0499C199.866 58.6773 200.353 57.3487 201.241 56.3024C202.13 55.2561 203.362 54.5607 204.717 54.3409C206.072 54.1211 207.46 54.3913 208.634 55.103C209.808 55.8147 210.69 56.9214 211.121 58.2244L211.317 58.8096C211.317 58.8096 218.875 56.8644 221.685 49.7352C222.615 47.489 222.795 45.0029 222.201 42.6459L224.994 42.9152C227.497 43.1579 229.823 44.3177 231.523 46.1714C233.224 48.0251 234.178 50.442 234.204 52.9573L234.274 54.8194Z" fill="#B4702F"/>
<path d="M228.24 57.985C228.79 57.985 229.237 57.318 229.237 56.4953C229.237 55.6726 228.79 55.0056 228.24 55.0056C227.689 55.0056 227.242 55.6726 227.242 56.4953C227.242 57.318 227.689 57.985 228.24 57.985Z" fill="#251D18"/>
<path d="M225.131 53.26C225.131 53.26 227.259 51.8667 229.387 51.9499" stroke="#251D18" stroke-width="1.32343" stroke-miterlimit="10" stroke-linecap="round"/>
<path d="M208.418 60.5815C208.418 60.5815 207.563 57.3361 204.192 58.2738" stroke="#251D18" stroke-width="1.32343" stroke-miterlimit="10" stroke-linecap="round"/>
<path d="M205.479 60.412L206.752 58.7361" stroke="#251D18" stroke-width="1.32343" stroke-miterlimit="10" stroke-linecap="round"/>
<path d="M234.308 65.8723C234.308 65.8723 231.408 65.9422 230.56 63.7343" stroke="#251D18" stroke-width="1.32343" stroke-miterlimit="10"/>
<path d="M225.36 73.9189C225.36 73.9189 220.605 73.4867 217.583 70.2612L225.36 80.3199V73.9189Z" fill="#251D18"/>
<path d="M192.175 195.554L187.783 200.984C187.308 201.57 186.626 201.949 185.878 202.044C185.131 202.139 184.375 201.941 183.769 201.493L182.363 200.436C181.406 199.728 180.248 199.346 179.058 199.346C177.868 199.346 176.709 199.728 175.752 200.436L174.18 201.596C171.327 203.874 165.059 201.649 163.988 197.636C163.373 195.308 163.426 192.931 164.879 189.901C166.379 186.772 168.008 185.502 171.479 185.429L176.979 184.807C178.137 184.671 179.306 184.943 180.285 185.575L191.763 192.994C191.968 193.127 192.142 193.302 192.275 193.507C192.408 193.711 192.497 193.942 192.536 194.183C192.574 194.424 192.562 194.67 192.5 194.907C192.438 195.143 192.328 195.363 192.175 195.554Z" fill="#B4702F"/>
<path d="M183.361 192.868L190.078 197.311" stroke="#251D18" stroke-width="1.3733" stroke-miterlimit="10" stroke-linecap="round"/>
<path d="M185.159 190.647L191.873 195.089" stroke="#251D18" stroke-width="1.3733" stroke-miterlimit="10" stroke-linecap="round"/>
<path d="M180.96 195.391L187.969 199.78" stroke="#251D18" stroke-width="1.3733" stroke-miterlimit="10" stroke-linecap="round"/>
<path d="M196.009 80.3062C187.823 80.3062 168.932 85.7462 163.918 90.1554L166.245 89.6799C170.442 88.8217 174.771 88.8349 178.962 89.7186C183.154 90.6023 187.119 92.3378 190.612 94.8173L209.829 108.451L196.598 95.5655C194.874 93.8858 193.759 91.679 193.431 89.2945C193.103 86.9099 193.579 84.484 194.786 82.401L196.009 80.3062Z" fill="#FFDEDF"/>
<path d="M209.819 108.444L221.171 94.7439C223.878 91.4772 225.36 87.3681 225.361 83.1257V80.3059L252.295 88.2864L250.829 88.1101C242.602 87.1288 234.32 89.4233 227.772 94.4978L209.819 108.444Z" fill="#FFDEDF"/>
<path d="M166.252 89.6793C170.448 88.8221 174.775 88.8358 178.966 89.7195C183.156 90.6032 187.12 92.3381 190.613 94.8168L209.829 108.45" stroke="#251D18" stroke-width="1.3733" stroke-miterlimit="10" stroke-linecap="round"/>
<path d="M244.149 88.0431C238.196 88.6061 232.525 90.8503 227.799 94.5139L209.843 108.443" stroke="#251D18" stroke-width="1.3733" stroke-miterlimit="10" stroke-linecap="round"/>
<path d="M209.819 115.084C212.523 115.084 214.714 112.893 214.714 110.19C214.714 107.486 212.523 105.295 209.819 105.295C207.116 105.295 204.925 107.486 204.925 110.19C204.925 112.893 207.116 115.084 209.819 115.084Z" fill="#FFA33C"/>
<path d="M206.767 110.565C206.771 110.133 206.86 109.705 207.029 109.308C207.198 108.91 207.445 108.549 207.753 108.247C208.062 107.945 208.428 107.706 208.829 107.545C209.23 107.384 209.66 107.304 210.092 107.309" stroke="white" stroke-width="1.3733" stroke-miterlimit="10" stroke-linecap="round"/>
<path d="M282.531 97.6174L276.496 35.5261" stroke="#251D18" stroke-width="1.88871" stroke-miterlimit="10" stroke-linecap="round"/>
<path d="M302.278 0.568356L245.078 6.12646L248.771 44.1406L305.971 38.5825L302.278 0.568356Z" fill="#E2E3DE"/>
<path d="M262.51 22.3879L267.548 27.4089C268.984 28.5927 269.939 30.7807 270.118 32.6328L270.587 37.4643L260.256 38.4619L259.923 34.6944L253.821 27.6916C253.535 27.2243 253.361 26.6963 253.316 26.15C253.27 25.6037 253.353 25.0543 253.559 24.5459C254.806 21.4602 257.107 16.1 257.815 14.3476C257.837 14.2934 257.87 14.2447 257.913 14.2049C257.955 14.165 258.006 14.135 258.062 14.1169C258.117 14.0988 258.176 14.0932 258.234 14.1003C258.292 14.1074 258.347 14.1271 258.397 14.158H258.423C258.842 14.4145 259.175 14.7884 259.382 15.2331C259.589 15.6778 259.66 16.1736 259.587 16.6586L258.922 22.1917C258.876 22.5052 258.949 22.8247 259.128 23.0862L259.71 23.9308L260.708 22.4943C260.809 22.3545 260.94 22.239 261.092 22.156C261.243 22.073 261.411 22.0247 261.584 22.0145C261.756 22.0044 261.929 22.0326 262.089 22.0971C262.249 22.1617 262.393 22.261 262.51 22.3879Z" fill="white"/>
<path d="M263.182 29.5871C263.075 29.5867 262.969 29.5578 262.877 29.5035C262.785 29.4491 262.709 29.3713 262.656 29.2778L259.068 22.837C258.998 22.6982 258.985 22.5378 259.03 22.3892C259.076 22.2405 259.177 22.1153 259.313 22.0397C259.448 21.964 259.608 21.9439 259.759 21.9834C259.909 22.0229 260.038 22.1191 260.119 22.2517L263.707 28.6926C263.784 28.832 263.803 28.9964 263.76 29.1498C263.716 29.3031 263.613 29.4329 263.474 29.5106C263.385 29.5599 263.284 29.5862 263.182 29.5871Z" fill="#E2E3DE"/>
<path d="M287.708 19.9407L283.718 25.8395C282.537 27.276 282.022 29.607 282.202 31.4591L282.67 36.2906L293.002 35.2931L292.606 31.5156L297.261 23.4687C297.456 22.956 297.527 22.4048 297.469 21.8596C297.411 21.3144 297.226 20.7903 296.929 20.3297C295.113 17.5432 291.821 12.725 290.791 11.1422C290.759 11.0931 290.717 11.0517 290.667 11.0207C290.617 10.9898 290.562 10.9702 290.503 10.9632C290.445 10.9562 290.387 10.9621 290.331 10.9804C290.275 10.9986 290.225 11.0289 290.182 11.069L290.159 11.0857C289.798 11.4175 289.542 11.8481 289.424 12.3241C289.306 12.8 289.33 13.3002 289.494 13.7624L291.223 19.0661C291.33 19.3636 291.319 19.6907 291.193 19.9806L290.784 20.9216L289.52 19.7079C289.395 19.5849 289.243 19.4919 289.076 19.436C288.909 19.3801 288.732 19.3627 288.558 19.3851C288.383 19.4075 288.216 19.4691 288.069 19.5653C287.922 19.6616 287.799 19.7899 287.708 19.9407Z" fill="white"/>
<path d="M288.3 27.1459C288.237 27.1455 288.174 27.1354 288.114 27.116C287.962 27.0665 287.836 26.9589 287.764 26.8168C287.692 26.6746 287.679 26.5096 287.728 26.3579L290.009 19.3484C290.031 19.2707 290.069 19.1983 290.12 19.1355C290.171 19.0727 290.234 19.0207 290.305 18.9828C290.377 18.9449 290.455 18.9217 290.535 18.9147C290.616 18.9077 290.697 18.917 290.774 18.942C290.851 18.9671 290.922 19.0073 290.983 19.0604C291.044 19.1135 291.093 19.1783 291.129 19.251C291.164 19.3236 291.184 19.4027 291.189 19.4834C291.193 19.5641 291.181 19.6449 291.153 19.7208L288.872 26.7303C288.833 26.8511 288.756 26.9563 288.653 27.031C288.551 27.1056 288.427 27.1459 288.3 27.1459Z" fill="#E2E3DE"/>
<path d="M275.718 27.5256L266.048 19.5452C265.43 19.033 264.935 18.3889 264.599 17.6602C264.262 16.9316 264.093 16.1369 264.105 15.3344C264.116 14.5319 264.306 13.7422 264.662 13.023C265.019 12.3039 265.531 11.6737 266.163 11.1787C266.795 10.6837 267.529 10.3365 268.313 10.1626C269.096 9.98865 269.909 9.99241 270.691 10.1736C271.472 10.3548 272.204 10.7088 272.831 11.2096C273.458 11.7104 273.965 12.3453 274.314 13.0677C274.643 11.8208 275.407 10.733 276.469 10.0019C277.535 9.26931 278.83 8.94604 280.116 9.09142C281.401 9.2368 282.591 9.84108 283.467 10.7933C284.343 11.7455 284.846 12.9817 284.883 14.2748C284.921 15.568 284.491 16.8313 283.672 17.8327L275.718 27.5256Z" fill="#FFDEDF"/>
<path d="M289.736 96.6428C289.969 98.0819 289.668 99.5563 288.89 100.789C288.113 102.022 286.912 102.929 285.513 103.34L281.962 104.374L283.399 108.072C283.731 110.24 281.915 112.797 276.904 113.538C271.893 114.28 267.574 113.123 267.261 110.954L266.004 95.6087C265.713 93.5279 266.18 91.4116 267.32 89.6469C268.461 87.8823 270.199 86.5873 272.216 85.9989L281.453 83.3088C282.184 83.096 282.952 83.0408 283.706 83.1467C284.46 83.2527 285.183 83.5175 285.827 83.9235C286.471 84.3296 287.021 84.8678 287.442 85.5024C287.862 86.137 288.144 86.8536 288.267 87.605L289.736 96.6428Z" fill="#B4702F"/>
<path d="M272.822 97.3806C272.822 97.3806 277.244 95.1427 275.385 90.4808C275.385 90.4808 281.617 87.5879 281.038 83.7805" stroke="#251D18" stroke-width="1.3733" stroke-miterlimit="10" stroke-linecap="round"/>
<path d="M277.22 89.6298L278.434 96.3167C278.679 97.664 279.383 98.8849 280.426 99.7722C281.469 100.66 282.787 101.159 284.157 101.185L287.442 101.248" stroke="#251D18" stroke-width="1.3733" stroke-miterlimit="10" stroke-linecap="round"/>
<path d="M279.495 97.6199L287.858 95.688" stroke="#251D18" stroke-width="1.3733" stroke-miterlimit="10" stroke-linecap="round"/>
<path d="M278.374 93.7793L286.737 91.844" stroke="#251D18" stroke-width="1.3733" stroke-miterlimit="10" stroke-linecap="round"/>
<path d="M277.257 89.9357L285.619 88.0038" stroke="#251D18" stroke-width="1.3733" stroke-miterlimit="10" stroke-linecap="round"/>
<path d="M381.585 488.271H336.057C333.952 488.271 333.526 485.295 335.548 484.703L343.293 482.442C346.548 481.49 349.54 479.798 352.033 477.497C354.525 475.197 356.452 472.35 357.661 469.181L358.193 467.781L358.568 466.784L376.611 467.372L379.238 471.997L385.074 482.262C385.425 482.873 385.608 483.565 385.607 484.269C385.605 484.974 385.419 485.665 385.065 486.274C384.711 486.883 384.204 487.388 383.593 487.739C382.982 488.089 382.29 488.273 381.585 488.271Z" fill="#B15EFF"/>
<path d="M334.108 488.272H386.939" stroke="#251D18" stroke-width="1.71912" stroke-miterlimit="10" stroke-linecap="round"/>
<path d="M359.433 476.682L357.319 474.538C357.088 474.302 356.809 474.118 356.502 473.998C356.195 473.878 355.865 473.824 355.536 473.841C355.206 473.858 354.884 473.945 354.591 474.096C354.297 474.247 354.039 474.459 353.834 474.717L353.042 475.715C352.891 475.904 352.7 476.057 352.481 476.162C352.263 476.267 352.024 476.321 351.782 476.321C351.54 476.321 351.301 476.267 351.083 476.162C350.865 476.057 350.673 475.904 350.522 475.715" stroke="#251D18" stroke-width="1.71912" stroke-miterlimit="10" stroke-linecap="round"/>
<path d="M379.238 472.014C379.238 472.014 369.558 476.191 358.193 467.781L358.568 466.784L376.611 467.372L379.238 472.014Z" fill="#B4702F"/>
<path d="M499.663 488.271H457.566C456.856 488.272 456.155 488.102 455.523 487.777C454.891 487.452 454.346 486.981 453.932 486.403C453.519 485.824 453.249 485.156 453.146 484.453C453.044 483.749 453.11 483.032 453.34 482.359L457.078 471.403L458.607 466.93L477.025 466.312C477.335 466.977 477.667 467.605 478.023 468.23C481.661 474.7 487.461 479.682 494.406 482.303L500.345 484.547C500.769 484.704 501.124 485.006 501.348 485.399C501.571 485.792 501.649 486.251 501.568 486.695C501.487 487.14 501.251 487.542 500.903 487.83C500.554 488.118 500.115 488.275 499.663 488.271Z" fill="#B15EFF"/>
<path d="M451.68 488.272H502.745" stroke="#251D18" stroke-width="1.71912" stroke-miterlimit="10" stroke-linecap="round"/>
<path d="M486.512 476.682L484.398 474.538C484.167 474.302 483.888 474.118 483.581 473.998C483.274 473.878 482.944 473.824 482.615 473.841C482.285 473.858 481.963 473.945 481.67 474.096C481.376 474.247 481.118 474.459 480.913 474.717L480.125 475.715C479.973 475.904 479.781 476.057 479.563 476.162C479.344 476.267 479.105 476.321 478.863 476.321C478.62 476.321 478.381 476.267 478.163 476.162C477.944 476.057 477.752 475.904 477.601 475.715" stroke="#251D18" stroke-width="1.71912" stroke-miterlimit="10" stroke-linecap="round"/>
<path d="M478.039 468.27C478.039 468.27 462.78 476.417 457.09 471.403L458.62 466.93L477.038 466.312L478.036 468.23L478.039 468.27Z" fill="#B4702F"/>
<path d="M481.611 461.367C481.694 461.95 481.654 462.544 481.494 463.111C481.334 463.678 481.058 464.205 480.682 464.659C480.306 465.112 479.84 465.482 479.312 465.745C478.785 466.008 478.209 466.158 477.621 466.185L457.669 467.029C451.761 467.255 448.053 463.102 446.996 457.287L410.701 257.679L388.027 460.023C387.789 462.134 386.764 464.077 385.157 465.464C383.549 466.852 381.477 467.582 379.355 467.508L354.256 466.624C353.474 466.597 352.707 466.407 352.002 466.068C351.297 465.729 350.67 465.247 350.161 464.654C349.652 464.06 349.271 463.367 349.044 462.618C348.816 461.87 348.747 461.083 348.839 460.306L378.719 204.226C378.819 203.373 379.228 202.587 379.869 202.016C380.511 201.446 381.339 201.13 382.198 201.13H444.379L481.611 461.367Z" fill="#251D18"/>
<path d="M419.054 308.381L410.036 253.449L406.046 251.218C405.454 250.952 404.925 250.564 404.493 250.08C404.061 249.596 403.736 249.026 403.538 248.408" stroke="white" stroke-width="1.71912" stroke-miterlimit="10" stroke-linecap="round"/>
<path d="M408.864 206.827C409.139 205.664 408.418 204.498 407.255 204.223C406.091 203.949 404.925 204.669 404.651 205.833C404.376 206.996 405.097 208.162 406.26 208.437C407.424 208.712 408.59 207.991 408.864 206.827Z" stroke="white" stroke-width="1.3733" stroke-miterlimit="10" stroke-linecap="round"/>
<path d="M391.744 213.877H447.239" stroke="white" stroke-width="1.3733" stroke-miterlimit="10" stroke-linecap="round"/>
<path d="M519.315 168.94C519.305 173.396 517.788 177.717 515.01 181.202C512.232 184.686 508.357 187.128 504.015 188.13C499.673 189.132 495.12 188.635 491.096 186.721C487.072 184.806 483.815 181.586 481.853 177.585L465.606 139.415C465.151 138.871 464.552 138.466 463.877 138.247C463.202 138.028 462.479 138.004 461.791 138.178C461.103 138.351 460.478 138.716 459.987 139.229C459.497 139.742 459.162 140.383 459.019 141.078L452.249 194.813C452.027 196.559 451.175 198.164 449.854 199.327C448.533 200.49 446.833 201.131 445.073 201.131H384.804C381.95 201.128 379.195 200.087 377.053 198.201C374.912 196.315 373.53 193.713 373.166 190.883L366.602 139.917C366.454 139.298 366.151 138.726 365.722 138.255C365.292 137.784 364.751 137.429 364.147 137.224C363.544 137.019 362.899 136.971 362.271 137.083C361.644 137.195 361.055 137.464 360.56 137.866L327.737 163.902L372.917 206.132L357.232 222.495L312.269 192.123C308.397 189.225 305.169 185.555 302.788 181.346C300.408 177.136 298.927 172.478 298.44 167.667C297.953 162.855 298.469 157.995 299.957 153.394C301.445 148.792 303.872 144.55 307.085 140.935L341.071 102.695C345.558 97.6448 351.036 93.5715 357.165 90.7285C363.293 87.8855 369.941 86.3334 376.694 86.1689L442.247 84.5695C453.476 84.293 464.462 87.8619 473.384 94.6847C478.428 98.5722 482.34 103.739 484.713 109.648L490.003 122.67L493.714 90.8608L510.899 97.2219L519.172 166.565C519.267 167.353 519.315 168.146 519.315 168.94Z" fill="#E2E3DE"/>
<path d="M323.408 159.15L327.604 163.399L322.59 163.885" stroke="white" stroke-width="1.71912" stroke-linecap="round" stroke-linejoin="round"/>
<path d="M437.675 135.262L430.928 128.502C430.498 128.068 430.17 127.543 429.968 126.966C429.767 126.389 429.697 125.774 429.765 125.167C429.832 124.559 430.034 123.974 430.357 123.455C430.679 122.936 431.114 122.495 431.629 122.166C432.144 121.836 432.726 121.626 433.332 121.551C433.939 121.476 434.555 121.538 435.135 121.731C435.714 121.925 436.243 122.246 436.683 122.671C437.123 123.095 437.462 123.613 437.675 124.186C438.017 123.265 438.677 122.497 439.537 122.021C440.147 121.682 440.834 121.505 441.532 121.509C442.341 121.509 443.132 121.749 443.805 122.198C444.478 122.647 445.003 123.285 445.313 124.032C445.624 124.779 445.707 125.601 445.551 126.394C445.396 127.188 445.008 127.918 444.438 128.492L437.675 135.262Z" fill="white"/>
<path d="M371.241 204.3L364.079 197.869L355.948 221.65L371.241 204.3Z" fill="#B15EFF"/>
<path d="M489.501 119.517L485.271 156.816" stroke="white" stroke-width="1.80225" stroke-linecap="round" stroke-linejoin="round"/>
<path d="M513.273 98.5578L517.257 35.9611" stroke="#251D18" stroke-width="1.88871" stroke-miterlimit="10" stroke-linecap="round"/>
<path d="M550.11 5.07936L490.983 0L487.508 40.4483L546.635 45.5277L550.11 5.07936Z" fill="#E2E3DE"/>
<path d="M525.803 26.4696C530.409 22.5929 530.999 15.7167 527.123 11.1113C523.246 6.50589 516.37 5.91516 511.764 9.79192C507.159 13.6687 506.568 20.5448 510.445 25.1503C514.322 29.7557 521.198 30.3464 525.803 26.4696Z" fill="#B15EFF"/>
<path d="M517.749 11.8969L516.589 11.7972C516.404 11.781 516.22 11.8329 516.071 11.9432C515.922 12.0535 515.819 12.2144 515.781 12.3957L515.315 14.5936C515.266 14.8247 515.148 15.0356 514.977 15.1988C514.807 15.3619 514.59 15.4697 514.357 15.5081L511.913 15.9171C511.69 15.9539 511.485 16.0619 511.328 16.2248C511.171 16.3878 511.071 16.5971 511.042 16.8215L510.949 17.5564C510.925 17.7744 510.978 17.994 511.1 18.1765C511.221 18.359 511.403 18.4926 511.614 18.554L512.279 18.7435C512.402 18.7786 512.515 18.8428 512.609 18.9308C512.702 19.0188 512.772 19.1279 512.814 19.2489L512.997 19.7643L513.12 20.1201L512.884 19.8308L512.552 19.4285C512.432 19.279 512.262 19.1785 512.073 19.1458L510.287 18.8133C510.165 18.7907 510.049 18.7403 509.95 18.6659C509.85 18.5915 509.769 18.4952 509.712 18.3844L508.212 15.4715C508.651 13.735 509.511 12.1333 510.716 10.8076C511.92 9.48193 513.432 8.4731 515.119 7.87012L514.254 9.3864C514.218 9.45273 514.198 9.52724 514.198 9.60301C514.198 9.67877 514.217 9.75332 514.254 9.8197C514.29 9.88608 514.343 9.94214 514.407 9.98266C514.471 10.0232 514.544 10.0468 514.62 10.0514L516.529 10.1545C516.706 10.164 516.874 10.2345 517.004 10.354L518.002 11.2784C518.084 11.312 518.149 11.3767 518.183 11.4584C518.218 11.54 518.218 11.632 518.185 11.714C518.151 11.7961 518.086 11.8614 518.005 11.8957C517.923 11.93 517.831 11.9304 517.749 11.8969Z" fill="#B15EFF"/>
<path d="M519.474 22.8703L519.375 24.0474C519.359 24.2323 519.277 24.4052 519.142 24.5329L517.765 25.7599C517.676 25.8391 517.567 25.892 517.449 25.9126C517.332 25.9331 517.211 25.9206 517.1 25.8763L516.588 25.6701C516.551 25.6549 516.512 25.6485 516.472 25.6513C516.432 25.6542 516.394 25.6663 516.359 25.6866C516.325 25.7069 516.296 25.735 516.275 25.7685C516.253 25.802 516.24 25.84 516.236 25.8796L516.049 27.4956C516.036 27.6168 516.05 27.7396 516.09 27.8547C516.13 27.9699 516.196 28.0744 516.282 28.1607L517.024 28.8989C516.302 28.7805 515.593 28.59 514.909 28.3303L513.822 27.2196C513.705 27.0959 513.636 26.9342 513.629 26.7641L513.579 25.0017L511.66 23.8279C511.492 23.7251 511.355 23.5772 511.267 23.4009C511.178 23.2246 511.14 23.027 511.158 22.8304L511.298 21.2143C511.31 21.0641 511.358 20.919 511.439 20.7916C511.519 20.6642 511.629 20.5582 511.76 20.4828L512.887 19.8178L513 19.7513L514.151 19.0862C514.264 19.0224 514.394 18.9934 514.525 19.0029C514.655 19.0123 514.779 19.0598 514.882 19.1394L516.375 20.3431C516.54 20.4768 516.646 20.6706 516.668 20.8818L516.731 21.5236C516.741 21.6084 516.779 21.6873 516.84 21.7476C516.9 21.808 516.979 21.8462 517.064 21.8561L518.769 22.0024C518.874 22.011 518.975 22.0406 519.067 22.0893C519.16 22.1381 519.241 22.205 519.307 22.2861C519.373 22.3671 519.422 22.4607 519.45 22.5611C519.479 22.6615 519.487 22.7666 519.474 22.8703Z" fill="#B15EFF"/>
<path d="M524.482 8.84096L523.737 9.00722C523.652 9.02771 523.564 9.03334 523.478 9.02384L521.925 8.89083C521.779 8.87779 521.633 8.91032 521.506 8.98394L519.714 10.0014C519.648 10.0388 519.575 10.0623 519.499 10.0706C519.424 10.0789 519.348 10.0718 519.276 10.0497C519.203 10.0276 519.136 9.99101 519.078 9.94213C519.02 9.89325 518.973 9.83311 518.939 9.76536L518.606 9.10032C518.551 8.98989 518.526 8.86655 518.534 8.74316C518.542 8.61976 518.583 8.50082 518.653 8.39871L518.812 8.16262C518.841 8.12142 518.861 8.07493 518.871 8.02592C518.881 7.9769 518.881 7.92637 518.871 7.87733C518.861 7.8283 518.841 7.78176 518.813 7.74051C518.785 7.69926 518.748 7.66414 518.706 7.63724L518.111 7.24154C518.647 7.21005 519.185 7.21672 519.72 7.26149C521.409 7.4095 523.04 7.95039 524.482 8.84096Z" fill="#B15EFF"/>
<path d="M529.65 19.0696C529.513 20.6548 529.031 22.191 528.238 23.5698C527.444 24.9486 526.357 26.1366 525.054 27.05L525.659 25.1281L525.713 23.8146C525.722 23.5891 525.644 23.3688 525.494 23.1996C525.345 23.0304 525.136 22.9255 524.911 22.9068L523.528 22.7871C523.404 22.776 523.283 22.7389 523.174 22.6781C523.066 22.6174 522.971 22.5345 522.896 22.4346L522.141 21.4371C522.01 21.2625 521.948 21.0461 521.965 20.8286L522.135 18.8667C522.157 18.5997 522.264 18.3467 522.439 18.1438C522.614 17.9408 522.848 17.7981 523.109 17.7361L526.434 16.9381C526.667 16.8821 526.912 16.9178 527.119 17.0379L529.241 18.2648C529.38 18.3448 529.493 18.4626 529.568 18.6044C529.642 18.7463 529.675 18.9064 529.663 19.0662L529.65 19.0696Z" fill="#B15EFF"/>
<path d="M505.715 22.5176L509.755 28.3733C510.956 29.7965 511.494 32.1208 511.338 33.9729L510.923 38.8077L500.578 37.9199L500.93 34.1525L496.199 26.172C496.004 25.6588 495.933 25.107 495.991 24.5613C496.048 24.0155 496.234 23.4909 496.531 23.0297C498.317 20.2232 501.555 15.3818 502.566 13.7757C502.598 13.7264 502.639 13.6845 502.689 13.6529C502.738 13.6214 502.793 13.601 502.851 13.5931C502.909 13.5851 502.968 13.5899 503.024 13.6071C503.08 13.6243 503.131 13.6535 503.175 13.6926L503.195 13.7092C503.558 14.0362 503.817 14.4624 503.941 14.9352C504.064 15.4079 504.047 15.9065 503.89 16.3693L502.227 21.6896C502.124 21.9884 502.138 22.3154 502.267 22.6041L502.686 23.5385L503.936 22.3115C504.06 22.1934 504.208 22.104 504.37 22.0496C504.532 21.9952 504.704 21.9772 504.874 21.9969C505.044 22.0166 505.207 22.0735 505.353 22.1635C505.498 22.2535 505.622 22.3744 505.715 22.5176Z" fill="white"/>
<path d="M505.176 29.7298C505.051 29.7289 504.929 29.6891 504.827 29.6159C504.725 29.5426 504.649 29.4395 504.608 29.3207L502.25 22.3378C502.225 22.2632 502.215 22.1843 502.22 22.1057C502.226 22.0271 502.247 21.9503 502.282 21.8798C502.317 21.8092 502.365 21.7463 502.425 21.6945C502.484 21.6427 502.553 21.6031 502.628 21.578C502.702 21.5529 502.781 21.5428 502.86 21.5482C502.938 21.5535 503.015 21.5743 503.086 21.6094C503.156 21.6444 503.219 21.693 503.271 21.7524C503.323 21.8118 503.362 21.8808 503.387 21.9554L505.748 28.9384C505.774 29.0132 505.784 29.0924 505.779 29.1713C505.774 29.2502 505.753 29.3273 505.718 29.3981C505.682 29.469 505.633 29.5321 505.574 29.5838C505.514 29.6356 505.444 29.6751 505.369 29.6998C505.307 29.7212 505.242 29.7314 505.176 29.7298Z" fill="#E2E3DE"/>
<path d="M530.923 24.6849L525.935 29.7625C524.515 30.9596 523.584 33.1575 523.424 35.013L523.009 39.8478L533.353 40.7357L533.646 36.9649L539.671 29.8955C539.953 29.4244 540.12 28.8938 540.159 28.3463C540.199 27.7988 540.109 27.2497 539.897 26.7432C538.617 23.6741 536.256 18.3372 535.528 16.5948C535.506 16.5408 535.472 16.4924 535.429 16.4529C535.386 16.4134 535.334 16.3837 535.279 16.366C535.223 16.3483 535.164 16.3429 535.106 16.3502C535.048 16.3576 534.992 16.3775 534.943 16.4085H534.92C534.504 16.67 534.174 17.0482 533.972 17.4959C533.77 17.9435 533.704 18.4408 533.782 18.9257L534.517 24.4522C534.568 24.764 534.499 25.0836 534.324 25.3467L533.749 26.1979L532.728 24.7714C532.626 24.6318 532.493 24.5169 532.341 24.435C532.188 24.3531 532.019 24.3063 531.846 24.298C531.673 24.2898 531.5 24.3202 531.341 24.3871C531.181 24.4541 531.038 24.5558 530.923 24.6849Z" fill="white"/>
<path d="M530.321 31.8876C530.222 31.8874 530.124 31.8635 530.035 31.8178C529.895 31.7411 529.791 31.6121 529.745 31.4588C529.7 31.3056 529.717 31.1405 529.793 30.9998L533.311 24.5323C533.346 24.4586 533.395 24.3929 533.457 24.3391C533.518 24.2852 533.59 24.2444 533.667 24.2192C533.745 24.1939 533.827 24.1847 533.908 24.192C533.989 24.1994 534.068 24.2232 534.14 24.2621C534.212 24.3009 534.275 24.3539 534.326 24.4179C534.376 24.4819 534.413 24.5555 534.435 24.6342C534.456 24.713 534.461 24.7953 534.45 24.8761C534.438 24.9569 534.41 25.0345 534.368 25.1042L530.85 31.585C530.797 31.6779 530.72 31.7549 530.627 31.8081C530.534 31.8613 530.428 31.8888 530.321 31.8876Z" fill="#E2E3DE"/>
<path d="M521.274 89.6102C521.187 91.2828 520.492 92.866 519.318 94.0606C518.144 95.2553 516.573 95.9788 514.903 96.0944L510.912 96.3737L511.148 99.3431C510.979 101.854 506.297 103.303 500.508 102.911C494.719 102.519 492.587 100.184 492.587 100.184L494.915 82.6672C495.093 80.2615 496.132 78.0006 497.843 76.299C499.553 74.5975 501.819 73.5694 504.225 73.4032L515.245 72.6385C516.114 72.5834 516.984 72.7126 517.799 73.0176C518.614 73.3226 519.356 73.7964 519.975 74.408C520.594 75.0197 521.077 75.7553 521.392 76.5666C521.707 77.378 521.847 78.2467 521.802 79.1159L521.274 89.6102Z" fill="#B4702F"/>
<path d="M502.121 86.3147C502.121 86.3147 507.624 84.8849 506.679 79.2021C506.679 79.2021 514.371 77.4763 514.66 73.0671" stroke="#251D18" stroke-width="1.57614" stroke-miterlimit="10" stroke-linecap="round"/>
<path d="M508.944 78.6969L508.678 86.4878C508.623 88.0586 509.114 89.5999 510.067 90.8498C511.019 92.0998 512.376 92.9812 513.905 93.3444L517.563 94.2156" stroke="#251D18" stroke-width="1.57614" stroke-miterlimit="10" stroke-linecap="round"/>
<path d="M509.546 88.2106L519.398 88.0809" stroke="#251D18" stroke-width="1.57614" stroke-miterlimit="10" stroke-linecap="round"/>
<path d="M509.226 83.6276L519.079 83.4979" stroke="#251D18" stroke-width="1.57614" stroke-miterlimit="10" stroke-linecap="round"/>
<path d="M508.907 79.0461L518.76 78.9164" stroke="#251D18" stroke-width="1.57614" stroke-miterlimit="10" stroke-linecap="round"/>
<path d="M388.675 44.0547L382.829 37.9896C381.275 36.3527 380.408 34.1816 380.408 31.9244C380.408 29.6672 381.275 27.4961 382.829 25.8592C383.582 25.066 384.489 24.4343 385.494 24.0027C386.499 23.571 387.581 23.3484 388.675 23.3484C389.768 23.3484 390.851 23.571 391.856 24.0027C392.861 24.4343 393.767 25.066 394.52 25.8592L396.14 27.5418L397.772 25.8626C398.525 25.0694 399.431 24.4378 400.436 24.0062C401.441 23.5745 402.523 23.352 403.616 23.352C404.71 23.352 405.792 23.5745 406.797 24.0062C407.801 24.4378 408.708 25.0694 409.46 25.8626L411.08 27.5451L412.699 25.8659C413.452 25.0723 414.358 24.4403 415.363 24.0084C416.367 23.5765 417.45 23.3538 418.543 23.3538C419.637 23.3538 420.719 23.5765 421.724 24.0084C422.728 24.4403 423.635 25.0723 424.387 25.8659C426.106 27.6762 427.244 29.959 427.655 32.4209C428.066 34.8829 427.732 37.4116 426.695 39.6821L418.049 58.5958L388.675 44.0547Z" fill="#FFA33C"/>
<path d="M432.561 84.7381C415.27 88.2295 413.504 102.764 413.504 102.764C406.954 85.3632 392.645 85.7157 392.645 85.7157V65.146L391.847 65.1028C390.903 65.0494 389.979 64.8059 389.131 64.387C388.283 63.968 387.528 63.3823 386.912 62.6648C386.296 61.9473 385.831 61.1128 385.545 60.2113C385.258 59.3098 385.157 58.3599 385.247 57.4183L386.983 39.286C387.127 37.754 387.838 36.3311 388.977 35.2955C390.115 34.26 391.599 33.6862 393.137 33.6864H397.573C399.103 33.6869 400.615 34.0045 402.016 34.6192C403.416 35.2339 404.674 36.1323 405.71 37.2577L407.353 45.6637C407.591 46.8813 408.245 47.9782 409.203 48.7667C410.16 49.5553 411.362 49.9865 412.603 49.9865L412.69 49.654C413.082 48.107 413.98 46.7351 415.239 45.7553C416.499 44.7755 418.05 44.2436 419.646 44.2439H419.945C421.848 44.2439 423.673 44.9999 425.019 46.3456C426.365 47.6913 427.121 49.5165 427.121 51.4196C427.121 53.3228 426.365 55.148 425.019 56.4937C423.673 57.8394 421.848 58.5954 419.945 58.5954H418.974L432.561 84.7381Z" fill="#B4702F"/>
<path d="M392.646 65.1468C392.646 65.1468 401.474 65.3629 406.714 62.9688L392.646 74.5437V65.1468Z" fill="#251D18"/>
<path d="M400.16 49.5784C400.16 50.3797 399.678 51.0315 399.079 51.0315C398.481 51.0315 397.995 50.3664 397.995 49.5784C397.995 48.7903 398.481 48.1252 399.079 48.1252C399.678 48.1252 400.16 48.777 400.16 49.5784Z" fill="#251D18"/>
<path d="M389.326 49.5779C389.326 50.2895 388.897 50.8647 388.365 50.8647C387.833 50.8647 387.408 50.2895 387.408 49.5779C387.408 48.8663 387.837 48.291 388.365 48.291C388.894 48.291 389.326 48.8663 389.326 49.5779Z" fill="#251D18"/>
<path d="M391.581 45.8439V52.3912C391.581 52.7122 391.687 53.0243 391.881 53.2796C392.076 53.5349 392.349 53.7192 392.658 53.8044L393.35 53.9939" stroke="#251D18" stroke-width="1.3733" stroke-miterlimit="10" stroke-linecap="round"/>
<path d="M392.066 57.5023C392.066 57.5023 395.391 57.9279 396.971 55.7632" stroke="#251D18" stroke-width="1.3733" stroke-miterlimit="10" stroke-linecap="round"/>
<path d="M395.647 42.5948H400.516C401.244 42.5948 401.943 42.8842 402.458 43.3993C402.973 43.9144 403.262 44.613 403.262 45.3415V45.8436H398.105C397.455 45.8436 396.831 45.5854 396.372 45.1258C395.912 44.6662 395.654 44.0429 395.654 43.3929V42.5948H395.647Z" fill="#FFA33C"/>
<path d="M392.263 45.8436H387.631C387.323 45.8436 387.017 45.7828 386.732 45.6649C386.448 45.5469 386.189 45.374 385.971 45.156C385.753 44.938 385.58 44.6792 385.462 44.3944C385.344 44.1095 385.283 43.8043 385.283 43.496V42.5948H389.014C389.876 42.5948 390.702 42.9371 391.311 43.5464C391.921 44.1556 392.263 44.9819 392.263 45.8436Z" fill="#FFA33C"/>
<path d="M421.205 49.2089C421.205 49.2089 417.737 48.903 417.467 52.5341" stroke="#251D18" stroke-width="1.3733" stroke-miterlimit="10" stroke-linecap="round"/>
<path d="M420.753 52.5273L418.818 50.1864" stroke="#251D18" stroke-width="1.3733" stroke-miterlimit="10" stroke-linecap="round"/>
<path d="M411.699 98.4616L412.53 102.761L408.776 99.2131C400.955 91.8179 388.765 86.5774 377.592 86.082L392.645 76.9742L403.007 84.6554C407.529 88.0086 410.63 92.9345 411.699 98.4616Z" fill="#B15EFF"/>
<path d="M408.775 99.2129C400.954 91.8177 388.276 86.0784 377.106 85.5796" stroke="#251D18" stroke-width="1.3733" stroke-miterlimit="10" stroke-linecap="round"/>
<path d="M412.645 98.4447L412.17 102.767L415.924 99.2195C423.743 91.8248 433.846 87.3112 444.571 86.4208L455.377 86.3344L433.538 78.5867C431.984 78.0362 430.312 77.9099 428.694 78.2209C427.075 78.5318 425.569 79.2688 424.33 80.3557L420.167 84.0134C415.947 87.7168 413.264 92.8643 412.645 98.4447Z" fill="#B15EFF"/>
<path d="M415.925 99.213C423.744 91.8183 433.847 87.3046 444.572 86.4143" stroke="#251D18" stroke-width="1.3733" stroke-miterlimit="10" stroke-linecap="round"/>
<path d="M416.893 104.631C417.326 101.963 415.514 99.4483 412.846 99.0152C410.178 98.582 407.663 100.394 407.23 103.062C406.797 105.731 408.609 108.245 411.277 108.678C413.946 109.111 416.46 107.299 416.893 104.631Z" fill="#FFA33C"/>
<path d="M408.985 104.211C408.989 103.779 409.078 103.351 409.248 102.954C409.417 102.556 409.663 102.196 409.972 101.893C410.281 101.591 410.646 101.352 411.048 101.191C411.449 101.031 411.878 100.95 412.31 100.956" stroke="white" stroke-width="1.3733" stroke-miterlimit="10" stroke-linecap="round"/>
<path d="M355.948 221.65L371.244 204.299C372.359 202.998 373.908 202.146 375.603 201.902C377.298 201.657 379.025 202.036 380.462 202.969L388.875 208.416C389.132 208.583 389.35 208.803 389.515 209.062C389.68 209.32 389.788 209.611 389.831 209.915C389.874 210.218 389.852 210.528 389.766 210.822C389.679 211.117 389.531 211.389 389.33 211.621L383.188 218.724L373.708 218.391L372.308 220.785C370.789 224.177 364.055 226.185 360.89 224.237L355.948 221.65Z" fill="#B4702F"/>
<path d="M384.937 217.128L374.781 212.932" stroke="#251D18" stroke-width="1.3733" stroke-miterlimit="10" stroke-linecap="round"/>
<path d="M387.278 214.368L376.727 210.009" stroke="#251D18" stroke-width="1.3733" stroke-miterlimit="10" stroke-linecap="round"/>
<path d="M389.522 211.771L378.19 207.089" stroke="#251D18" stroke-width="1.3733" stroke-miterlimit="10" stroke-linecap="round"/>
</svg>
